<svg width="233" height="11" viewBox="0 0 233 11" fill="none" xmlns="http://www.w3.org/2000/svg">
<path d="M45.3746 1.05469H232.918" stroke="#B1AA00" stroke-width="2"/>
<path d="M0.440521 9.18096C1.15309 9.18096 1.86065 9.36593 2.57391 9.41997C4.77466 9.58669 6.99844 9.49964 9.20425 9.49964C11.5986 9.49964 13.9645 9.20454 16.3215 8.79146C22.3757 7.7304 28.6591 6.64443 34.805 6.34824C40.8007 6.05929 46.8615 6.31283 52.8636 6.31283C55.4533 6.31283 58.0681 6.42206 60.6535 6.27742C64.6274 6.05511 68.601 6.17734 72.5687 5.97644C81.0502 5.547 89.555 5.29372 98.0543 5.0381C104.21 4.85296 110.265 3.68699 116.29 2.57718C118.073 2.24864 120.033 2.48866 121.849 2.48866C122.925 2.48866 124.174 2.61753 125.204 2.24964C126.174 1.9034 127.435 1.78299 128.462 1.7008C129.652 1.60556 131.143 1.37461 132.215 1.85129" stroke="#B1AA00" stroke-width="2"/>
<path d="M180.177 1.53271C180.796 1.59468 181.668 2.33935 182.266 2.56843C183.674 3.10831 185.14 3.08622 186.524 3.68381C187.485 4.09871 188.373 4.66749 189.383 4.96739C189.874 5.11326 190.354 5.51623 190.852 5.51623" stroke="#B1AA00" stroke-width="2"/>
<path d="M4.10535 9.49976H197.545" stroke="#B1AA00" stroke-width="2"/>
<path d="M188.622 5.35693C190.101 5.35693 191.334 5.73414 192.765 5.9943C193.553 6.13772 194.457 6.28744 195.164 6.64051C195.898 7.00798 197.067 8.68712 197.067 9.49979" stroke="#B1AA00" stroke-width="2"/>
</svg>
