<svg width="50" height="37" viewBox="0 0 50 37" fill="none" xmlns="http://www.w3.org/2000/svg">
<path d="M0 2.53286C0 1.32348 0.980398 0.343079 2.18978 0.343079H47.8102C49.0196 0.343079 50 1.32348 50 2.53286V34.4672C50 35.6765 49.0196 36.6569 47.8102 36.6569H2.18978C0.9804 36.6569 0 35.6765 0 34.4672V2.53286Z" fill="#1C88BD"/>
<g clip-path="url(#clip0_516_3039)">
<path d="M20.6012 3.08032H5.39856V24.5271H20.6012V3.08032Z" fill="#B1D2FC"/>
<path d="M12.7779 29.2087C13.0884 29.5493 13.3747 29.9147 13.6307 30.2979C13.3831 30.5162 13.1532 30.7544 12.9431 31.0081C13.2011 30.8138 13.488 30.6578 13.7899 30.5451C14.2933 31.3498 14.9646 32.4182 15.143 33.3145C14.4939 33.3742 13.5078 33.1619 12.8207 33.0658C12.9461 32.8075 13.0795 32.5548 13.2228 32.3073C12.9494 32.5216 12.6914 32.7546 12.4506 33.0059C11.7571 32.883 11.0648 32.6847 10.4042 32.4162C10.6326 32.0062 10.9177 31.6253 11.2004 31.2479C10.7178 31.4939 10.273 31.8118 9.88221 32.1874C9.58981 32.0501 9.30727 31.8997 9.03374 31.7356C8.98816 31.708 8.9429 31.6802 8.89731 31.6515C8.53646 31.4262 8.211 31.1999 7.91025 30.9604C7.97037 30.888 8.03048 30.8156 8.09043 30.7432C8.40287 30.367 8.7158 29.9891 9.02823 29.6128C8.48285 29.8209 8.08225 30.2082 7.58763 30.5197C7.54756 30.5448 7.50765 30.5709 7.46807 30.5966L7.46757 30.5961C6.90365 30.0624 6.28096 29.3213 5.75345 28.5212C5.83577 28.4494 5.9221 28.3816 6.01144 28.3178C6.10011 28.2522 6.19329 28.1902 6.28714 28.1331C6.15856 28.1415 6.02998 28.1533 5.9009 28.168C5.78601 28.181 5.67012 28.1962 5.55523 28.215C5.30993 27.8289 5.05628 27.4023 4.78375 26.9262C5.46957 26.8219 6.10612 26.7394 6.70778 26.6997C6.74602 26.8041 6.78643 26.9075 6.82851 27.0102C6.90249 27.194 6.98297 27.3751 7.07014 27.5526C7.07832 27.3883 7.09619 27.2245 7.12391 27.0613C7.14696 26.9323 7.17451 26.8046 7.20841 26.6773C7.85515 26.6621 8.46532 26.7097 9.05996 26.8491C9.04894 26.9992 9.04009 27.1493 9.02907 27.2992C9.00285 27.6855 8.97563 28.0708 8.94992 28.4575C9.04694 28.1306 9.15815 27.8089 9.28306 27.4919C9.35185 27.3173 9.42516 27.144 9.50248 26.9722C9.9829 27.124 10.4545 27.3426 10.9307 27.6445C11.1967 27.8138 11.4582 28.0001 11.7105 28.2035C11.6646 28.3449 11.6187 28.4864 11.5723 28.6285C11.4627 28.9679 11.3537 29.3068 11.2432 29.645C11.5018 29.3486 11.7598 29.0504 12.0185 28.7541C12.0666 28.6994 12.1135 28.6446 12.1609 28.5904C12.3755 28.7859 12.5816 28.9922 12.7784 29.2087" fill="#D8E7FF"/>
<path d="M6.40816 27.7102L6.43487 27.7233L6.41817 27.7314C6.41483 27.7243 6.41149 27.7172 6.40816 27.7102ZM10.3933 29.9248L10.3991 29.9285L10.3935 29.9288V29.925L10.3933 29.9248ZM5.29936 27.1793C5.38753 27.2222 6.27406 27.6441 6.36207 27.6875C6.03728 27.7427 5.7215 27.8583 5.43596 28.0261L5.4787 28.0946C5.78012 27.918 6.11643 27.8011 6.46025 27.7542L6.48881 27.7504C6.75265 27.8815 7.01532 28.015 7.27666 28.151C6.82412 28.3226 6.42552 28.5869 6.09472 28.9165C6.08053 28.9307 6.06633 28.945 6.05231 28.9595C6.06817 28.982 6.08403 29.0042 6.10006 29.0264C6.1171 29.0087 6.13446 28.991 6.15183 28.9737C6.49148 28.6353 6.90394 28.3676 7.37351 28.2013C7.46752 28.2505 7.5612 28.3001 7.65471 28.3498C7.22856 28.5688 6.83865 28.8618 6.49516 29.204C6.44456 29.2544 6.39496 29.3059 6.34637 29.3584C6.36307 29.3801 6.37977 29.4018 6.39647 29.4232C6.44723 29.368 6.49916 29.3139 6.5521 29.2612C6.90377 28.9108 7.30454 28.6133 7.74188 28.3961C7.93826 28.501 8.13397 28.6074 8.32867 28.715C8.05264 28.9308 7.78947 29.1633 7.54133 29.4106C7.33143 29.6198 7.13204 29.8398 6.94452 30.0691C6.96305 30.0891 6.98159 30.1088 7.00012 30.1286C7.18782 29.8983 7.3877 29.6777 7.59827 29.4679C7.85226 29.2149 8.12194 28.9774 8.40532 28.7577C8.86353 29.012 9.31741 29.2739 9.76677 29.5432C9.38236 29.8014 9.02651 30.0934 8.70373 30.4152C8.48581 30.6321 8.28309 30.8626 8.09656 31.1053C8.11794 31.1215 8.13948 31.1376 8.16119 31.1537C8.34537 30.9142 8.54559 30.6867 8.76084 30.4724C9.0888 30.1456 9.45116 29.8496 9.84341 29.5893C10.0204 29.6957 10.1966 29.8034 10.3721 29.9122C9.86546 30.1625 9.40057 30.4977 8.99963 30.8971C8.83498 31.0613 8.68102 31.2362 8.53958 31.4205C8.56196 31.4355 8.58433 31.4505 8.60688 31.4654C8.74531 31.2854 8.89576 31.1146 9.05674 30.9542C9.46285 30.5494 9.93593 30.2117 10.4512 29.9632L10.4531 29.9624C10.7874 30.1703 11.119 30.3825 11.448 30.5986C10.908 30.9262 10.4073 31.3191 9.95964 31.7652C9.85694 31.8675 9.75708 31.9725 9.66023 32.0803C9.68528 32.0928 9.71016 32.1051 9.73537 32.1175C9.82655 32.0167 9.9204 31.9183 10.0167 31.8223C10.4689 31.3718 10.9758 30.9759 11.5226 30.6478C11.6819 30.7529 11.8406 30.859 11.9986 30.966C11.8486 31.0886 11.7047 31.2187 11.5674 31.3553C11.2184 31.703 10.9126 32.0943 10.6605 32.5167C10.6862 32.5264 10.7117 32.5359 10.7375 32.5453C10.9846 32.1336 11.2837 31.7521 11.6243 31.4125C11.7654 31.2719 11.9136 31.1386 12.0682 31.0134C12.2303 31.1236 12.392 31.2349 12.5528 31.3471C12.2317 31.5356 11.9351 31.7656 11.6714 32.0284C11.4712 32.2279 11.2899 32.4462 11.1311 32.6798C11.1578 32.6884 11.1847 32.6969 11.2115 32.7052C11.3642 32.4834 11.5375 32.2757 11.7284 32.0856C11.9962 31.8188 12.2983 31.5866 12.6256 31.3982C12.8497 31.5553 13.0724 31.7142 13.2939 31.8751C12.9108 32.0503 12.5598 32.2959 12.2611 32.5936C12.1605 32.6937 12.066 32.7998 11.9782 32.9108C12.0074 32.9175 12.0366 32.924 12.066 32.9304C12.145 32.8328 12.2292 32.7394 12.3182 32.6507C12.6211 32.3488 12.9789 32.1018 13.3692 31.9298C13.6327 32.1221 13.8942 32.3171 14.1537 32.5147C13.9139 32.6203 13.6941 32.7717 13.5081 32.957C13.448 33.0169 13.3914 33.0803 13.339 33.147L13.4306 33.162C13.473 33.1106 13.518 33.0613 13.5652 33.0142C13.7549 32.8253 13.9812 32.673 14.2275 32.5711C15.1132 33.2482 14.2986 32.8438 15.1342 33.5811L15.2147 33.5444C14.3694 32.7974 15.1735 33.1929 14.2769 32.5076C14.3045 32.2532 14.3925 32.0046 14.5291 31.7859C14.5145 31.7589 14.4997 31.732 14.485 31.7052C14.337 31.9293 14.2389 32.1859 14.2024 32.4509C13.9424 32.2529 13.6803 32.0574 13.4163 31.8648C13.5525 31.5067 13.7491 31.1705 13.994 30.8738L13.9491 30.8014C13.6951 31.1043 13.4911 31.4484 13.3486 31.8156C13.1224 31.6512 12.8948 31.4887 12.6657 31.3283C12.7523 30.7969 12.9819 30.2864 13.3204 29.863C13.3037 29.8408 13.2869 29.8188 13.27 29.7969C12.924 30.2242 12.6872 30.7389 12.5924 31.2771C12.4357 31.1678 12.2786 31.0596 12.1206 30.9522C12.3127 30.3993 12.5967 29.8771 12.9581 29.4137C12.9402 29.3928 12.9222 29.3721 12.9041 29.3514C12.5373 29.8194 12.248 30.3466 12.0515 30.9053C11.8913 30.7969 11.7305 30.6893 11.5692 30.5828C11.7442 29.9649 12.056 29.383 12.4738 28.891C12.4548 28.8718 12.4356 28.8528 12.4164 28.8339C11.9947 29.3293 11.6788 29.914 11.4986 30.5362C11.1591 30.3131 10.8168 30.0941 10.4716 29.8796C10.4387 29.1098 10.5808 28.3303 10.8794 27.6138C10.8562 27.5993 10.833 27.5851 10.8098 27.5711C10.5104 28.2847 10.3642 29.0601 10.3888 29.8284C10.2195 29.7237 10.0493 29.6198 9.87865 29.5172C9.87331 28.7564 10.0007 27.9927 10.2517 27.2694C10.2272 27.2577 10.2026 27.2462 10.1781 27.2349C9.92774 27.9537 9.79799 28.712 9.79766 29.4687C9.35481 29.2035 8.90779 28.9455 8.45642 28.6948C8.41584 28.0499 8.4975 27.3956 8.69438 26.776C8.66766 26.7714 8.64077 26.767 8.61389 26.7627C8.42169 27.3718 8.33936 28.0139 8.37293 28.6483C8.17471 28.5387 7.97566 28.4305 7.77578 28.3238C7.68561 27.7819 7.72869 27.216 7.89584 26.6877C7.86812 26.6861 7.8404 26.6848 7.81252 26.6835C7.65271 27.1982 7.60813 27.7469 7.68644 28.2761C7.60111 28.2307 7.51561 28.1855 7.42995 28.1406C7.36816 27.6551 7.39121 27.1571 7.49674 26.6756C7.46919 26.6755 7.44181 26.6755 7.41409 26.6755C7.31356 27.1423 7.28918 27.6238 7.34295 28.0953C7.05323 27.9443 6.762 27.7964 6.46911 27.6515C6.33668 27.3638 6.24401 27.0572 6.19391 26.7435L6.11342 26.7517C6.15934 27.0419 6.241 27.3259 6.35605 27.5954C6.28175 27.5589 5.4089 27.1438 5.33443 27.1076C5.31439 27.0978 5.29018 27.1061 5.28049 27.1263C5.27081 27.1463 5.27899 27.1705 5.29919 27.1801L5.29936 27.1793Z" fill="#B4D2FF"/>
<path d="M20.83 4.34161H5.62732V24.1191H20.83V4.34161Z" fill="white"/>
<path d="M15.0615 28.9623C15.1475 29.3823 15.2022 29.8109 15.2243 30.2392C14.9222 30.2961 14.6246 30.3771 14.3356 30.4802C14.6345 30.4475 14.9384 30.4592 15.2336 30.5126C15.2528 31.3957 15.2802 32.5696 14.9957 33.3711C14.448 33.1101 13.7606 32.4715 13.2567 32.0678C13.4803 31.9208 13.7074 31.7821 13.9398 31.6523C13.619 31.6937 13.3016 31.7574 12.989 31.844C12.4929 31.4158 12.0337 30.928 11.6332 30.399C12.0115 30.1797 12.4211 30.0106 12.827 29.8431C12.3237 29.8103 11.8164 29.8529 11.3248 29.9677C11.1565 29.7189 11.002 29.464 10.8616 29.2027C10.8382 29.159 10.8153 29.1151 10.7925 29.0706C10.6113 28.7189 10.4588 28.383 10.3324 28.0484C10.4149 28.019 10.4976 27.9897 10.5802 27.9603C11.0095 27.8079 11.44 27.6545 11.8694 27.502C11.3338 27.4091 10.8287 27.5284 10.2845 27.5424C10.2406 27.5434 10.196 27.5454 10.1522 27.5471V27.5464C9.95551 26.8514 9.81073 25.9623 9.77016 25.0714C9.87035 25.0531 9.97171 25.04 10.0734 25.0314C10.1756 25.021 10.2798 25.0159 10.3818 25.0149C10.275 24.9605 10.1666 24.9088 10.0562 24.8591C9.95818 24.8149 9.85799 24.7719 9.7573 24.7322C9.74527 24.3067 9.74561 23.8449 9.75463 23.3342C10.3528 23.5771 10.9013 23.8137 11.4016 24.0681C11.3822 24.1698 11.3654 24.2717 11.3502 24.3739C11.3218 24.5562 11.2998 24.7392 11.2849 24.9226C11.3697 24.795 11.4622 24.6726 11.5621 24.5552C11.6419 24.463 11.7249 24.3739 11.8127 24.2882C12.3374 24.5836 12.8028 24.9118 13.2119 25.3061C13.1316 25.4208 13.053 25.5367 12.9726 25.6515C12.7676 25.948 12.562 26.243 12.3571 26.5404C12.5906 26.3251 12.8329 26.1206 13.084 25.9263C13.2223 25.8194 13.3636 25.7157 13.5073 25.6151C13.8191 25.965 14.0923 26.3641 14.3292 26.8321C14.4613 27.0939 14.5817 27.3674 14.6864 27.6501C14.5822 27.7415 14.4782 27.8328 14.3733 27.9243C14.1238 28.1436 13.8752 28.3629 13.6254 28.5808C13.9736 28.4667 14.3221 28.3509 14.6704 28.2367C14.7349 28.2158 14.7986 28.1943 14.8624 28.1737C14.9409 28.432 15.0074 28.695 15.0616 28.9618" fill="#D8E7FF"/>
<path d="M10.6809 24.7343L10.6959 24.7577L10.6787 24.7562C10.6794 24.749 10.6801 24.7417 10.6807 24.7345M12.8125 28.4011L12.8155 28.4068L12.8108 28.4043L12.8125 28.4011ZM10.0468 23.7824C10.0969 23.8586 10.6049 24.6178 10.6547 24.6941C10.3685 24.5839 10.0609 24.526 9.75244 24.5244L9.75394 24.5994C10.0792 24.6014 10.404 24.6678 10.7014 24.7939L10.7261 24.8044C10.8748 25.0347 11.021 25.2665 11.1653 25.4995C10.7216 25.4215 10.2766 25.4435 9.85497 25.5497C9.83677 25.5542 9.81857 25.5591 9.80053 25.5639C9.80254 25.5894 9.80471 25.6148 9.80671 25.6401C9.82892 25.6341 9.85096 25.6281 9.87334 25.6226C10.3063 25.5135 10.7639 25.4955 11.2188 25.5859C11.2705 25.67 11.3218 25.754 11.3729 25.8384C10.9277 25.8109 10.476 25.8599 10.038 25.9703C9.97353 25.9867 9.90924 26.0042 9.84545 26.023C9.84846 26.0484 9.85146 26.0736 9.85464 26.0986C9.9216 26.0786 9.98873 26.0601 10.0564 26.043C10.5049 25.93 10.9671 25.8826 11.4205 25.917C11.5275 26.0943 11.6334 26.2724 11.7379 26.4512C11.4143 26.4925 11.093 26.5534 10.7764 26.6331C10.5087 26.7007 10.2444 26.7817 9.98505 26.8759C9.9904 26.9006 9.99574 26.9253 10.0013 26.95C10.2613 26.8551 10.5263 26.7737 10.7948 26.706C11.1186 26.6244 11.4475 26.5627 11.7788 26.5217C12.0241 26.943 12.2623 27.3684 12.4934 27.7976C12.0629 27.8212 11.6389 27.8856 11.2274 27.9894C10.9497 28.0594 10.6776 28.1473 10.4127 28.2527C10.4221 28.2759 10.4317 28.2989 10.4414 28.3221C10.7029 28.2182 10.9716 28.1315 11.2458 28.0622C11.6639 27.9568 12.0949 27.8925 12.5328 27.8708C12.6236 28.0401 12.7131 28.21 12.8018 28.3805C12.2773 28.3398 11.7454 28.3868 11.2343 28.5157C11.0244 28.5686 10.8178 28.6355 10.6168 28.7155C10.6275 28.7382 10.6383 28.7607 10.6492 28.7834C10.8457 28.7053 11.0474 28.6403 11.2527 28.5884C11.7705 28.4578 12.3099 28.4126 12.8407 28.459H12.8427C13.0109 28.7846 13.175 29.1119 13.3352 29.4413C12.747 29.4465 12.1592 29.5227 11.5885 29.6667C11.4575 29.6997 11.3276 29.7362 11.1987 29.7762C11.2127 29.7981 11.2268 29.8199 11.2411 29.8418C11.3622 29.8046 11.4841 29.7704 11.6068 29.7395C12.1833 29.5943 12.7776 29.5186 13.3714 29.5164C13.4487 29.6762 13.525 29.8364 13.6003 29.9972C13.4218 30.0239 13.2448 30.0594 13.0698 30.1036C12.6248 30.2159 12.1938 30.3833 11.7907 30.6013C11.8066 30.6211 11.8226 30.641 11.8388 30.6607C12.2327 30.4488 12.6538 30.2859 13.0883 30.1763C13.2682 30.131 13.4502 30.0949 13.6337 30.0681C13.7109 30.2334 13.787 30.3993 13.8622 30.5654C13.5155 30.5636 13.1687 30.6065 12.8324 30.6912C12.5772 30.7556 12.3279 30.8439 12.0896 30.9552C12.107 30.9747 12.1243 30.9942 12.1419 31.0137C12.3696 30.909 12.6074 30.8253 12.8507 30.7639C13.192 30.6778 13.5446 30.6358 13.8962 30.6408C14.0006 30.873 14.103 31.1061 14.2033 31.3401C13.8134 31.2979 13.4156 31.3276 13.0346 31.4235C12.9065 31.4559 12.7803 31.4956 12.657 31.5427C12.6772 31.5619 12.6976 31.5811 12.718 31.6001C12.8277 31.5596 12.9396 31.5249 13.0531 31.4964C13.4394 31.399 13.8433 31.3716 14.2375 31.4197C14.3566 31.6989 14.4728 31.979 14.5862 32.2606C14.3441 32.2309 14.0961 32.2476 13.859 32.3073C13.7823 32.3266 13.7069 32.3505 13.6331 32.3786L13.6992 32.4342C13.7576 32.4133 13.8171 32.3952 13.8772 32.38C14.119 32.3191 14.3726 32.3048 14.6183 32.3405C15.0039 33.3033 14.5451 32.5925 14.8621 33.5796L14.9439 33.5886C14.6238 32.5891 15.0785 33.2879 14.6882 32.3133C14.8315 32.1228 15.0206 31.9659 15.2341 31.856C15.2353 31.8274 15.2363 31.7989 15.2373 31.7704C15.012 31.8793 14.8112 32.0379 14.6559 32.2325C14.5423 31.9505 14.4257 31.6695 14.3065 31.3898C14.5862 31.1682 14.9038 30.9927 15.2411 30.8718L15.2398 30.7926C14.8923 30.9142 14.565 31.0921 14.276 31.3183C14.1734 31.0791 14.0689 30.8409 13.962 30.6036C14.2846 30.2199 14.7118 29.9207 15.1844 29.7429C15.1815 29.7172 15.1785 29.6917 15.1755 29.666C14.6951 29.8433 14.2603 30.1421 13.9278 30.5277C13.8546 30.366 13.7805 30.2045 13.7054 30.0436C14.1225 29.6927 14.5987 29.41 15.1087 29.2112C15.1044 29.186 15.0999 29.161 15.0952 29.1358C14.5785 29.3356 14.0959 29.6198 13.6723 29.9732C13.596 29.8103 13.5187 29.6478 13.4404 29.4859C13.875 29.0748 14.4019 28.7577 14.9705 28.5627C14.9643 28.5384 14.9581 28.514 14.9516 28.4897C14.3782 28.6853 13.8466 29.0029 13.406 29.4148C13.2408 29.0749 13.0713 28.7369 12.8975 28.4013C13.2383 27.7699 13.7236 27.214 14.304 26.7827C14.2923 26.76 14.2805 26.7377 14.2686 26.7153C13.6888 27.1438 13.2024 27.6945 12.8556 28.3207C12.7701 28.1563 12.6836 27.9925 12.5959 27.8291C12.9544 27.218 13.4205 26.6678 13.966 26.2085C13.952 26.1875 13.9378 26.1666 13.9236 26.146C13.3807 26.6019 12.9153 27.1468 12.5543 27.7519C12.3265 27.3292 12.0919 26.9101 11.8505 26.495C12.1255 25.9598 12.5027 25.4753 12.9556 25.0734C12.9364 25.0569 12.917 25.0407 12.8975 25.0245C12.4533 25.4205 12.0814 25.8946 11.8057 26.4181C11.6993 26.2362 11.5918 26.0549 11.4828 25.8744C11.669 25.3981 11.9732 24.966 12.3589 24.6229C12.3376 24.6086 12.3159 24.5942 12.2943 24.5801C11.9211 24.9158 11.6239 25.3334 11.4342 25.794C11.3876 25.7172 11.3407 25.6403 11.2936 25.5637C11.4756 25.1459 11.7314 24.7585 12.0455 24.4236C12.0236 24.4105 12.0016 24.3973 11.9795 24.3843C11.6766 24.7098 11.4275 25.0834 11.2458 25.486C11.086 25.2275 10.9235 24.9705 10.7584 24.7153C10.7896 24.4221 10.8616 24.1329 10.9711 23.8581L10.9028 23.8264C10.8013 24.0802 10.731 24.3464 10.6946 24.6166C10.6525 24.552 10.1524 23.8049 10.11 23.7405C10.0986 23.7232 10.0752 23.7183 10.0579 23.7298C10.0405 23.7413 10.0357 23.7645 10.0472 23.7819L10.0468 23.7824Z" fill="#B4D2FF"/>
<path d="M18.4184 10.4474C18.1485 10.1779 17.7756 10.0111 17.3637 10.0111C16.9517 10.0111 16.579 10.1779 16.309 10.4474C16.0391 10.7169 15.8722 11.0893 15.8722 11.5008C15.8722 11.9122 16.0391 12.2845 16.309 12.5541C16.5788 12.8237 16.9517 12.9904 17.3637 12.9904C17.7756 12.9904 18.1484 12.8237 18.4184 12.5541C18.6882 12.2846 18.8552 11.9122 18.8552 11.5008C18.8552 11.0893 18.6882 10.7171 18.4184 10.4474ZM17.3637 9.6507C17.8752 9.6507 18.3382 9.85784 18.6735 10.1926C19.0087 10.5275 19.2161 10.9899 19.2161 11.5008C19.2161 12.0116 19.0087 12.4741 18.6735 12.809C18.3384 13.1439 17.8752 13.3509 17.3637 13.3509C16.8522 13.3509 16.3891 13.1437 16.0538 12.809C15.7187 12.4741 15.5113 12.0116 15.5113 11.5008C15.5113 10.9899 15.7187 10.5275 16.0538 10.1926C16.389 9.85784 16.8522 9.6507 17.3637 9.6507Z" fill="#A0C9FF"/>
<path d="M18.3369 7.04397H17.9646V6.77246H19.0506V7.04397H18.6799V7.98327H18.3369V7.04397ZM17.4379 8.00746C17.3397 8.00746 17.2445 7.99528 17.1522 7.9711C17.0598 7.94691 16.9847 7.91456 16.9271 7.8742L17.0396 7.6217C17.0939 7.65739 17.1568 7.68624 17.2285 7.70825C17.3001 7.7301 17.3706 7.74111 17.4397 7.74111C17.5713 7.74111 17.6371 7.70825 17.6371 7.64254C17.6371 7.60802 17.6184 7.58234 17.5808 7.56549C17.5433 7.54881 17.483 7.53113 17.3998 7.51279C17.3086 7.49311 17.2323 7.4721 17.1712 7.44958C17.1101 7.42706 17.0575 7.39104 17.0136 7.34151C16.9697 7.29197 16.9478 7.2251 16.9478 7.14087C16.9478 7.06699 16.968 7.00044 17.0084 6.94107C17.0488 6.8817 17.1091 6.83467 17.1894 6.80014C17.2697 6.76562 17.3681 6.74827 17.4848 6.74827C17.5645 6.74827 17.6429 6.75728 17.7204 6.77513C17.7977 6.79297 17.8659 6.81932 17.9248 6.85385L17.8191 7.10818C17.7036 7.04597 17.5917 7.01479 17.4831 7.01479C17.415 7.01479 17.3654 7.02496 17.3342 7.04514C17.303 7.06532 17.2874 7.09151 17.2874 7.12386C17.2874 7.15622 17.306 7.1804 17.3429 7.19658C17.3798 7.21275 17.4392 7.22943 17.5212 7.24678C17.6136 7.26646 17.69 7.28747 17.7507 7.30999C17.8113 7.3325 17.8639 7.36819 17.9083 7.41722C17.9527 7.46626 17.9749 7.5328 17.9749 7.61703C17.9749 7.68974 17.9547 7.75545 17.9143 7.81416C17.8739 7.87303 17.8133 7.9199 17.7325 7.95509C17.6516 7.99028 17.5534 8.00779 17.4381 8.00779L17.4379 8.00746ZM16.8576 7.71859V7.98327H15.8842V6.77229H16.8351V7.03697H16.2237V7.24111H16.7624V7.49711H16.2237V7.71859H16.8576ZM15.0787 7.04397H14.7063V6.77246H15.7924V7.04397H15.4217V7.98327H15.0787V7.04397ZM14.1623 7.71859V7.98327H13.1889V6.77229H14.1397V7.03697H13.5284V7.24111H14.0671V7.49711H13.5284V7.71859H14.1623ZM12.9827 6.77229V7.98327H12.7003L12.1651 7.338V7.98327H11.8291V6.77229H12.1115L12.6467 7.41756V6.77229H12.9827ZM11.2782 6.77229H11.6212V7.98327H11.2782V6.77229ZM10.2579 6.77229H10.6009V7.71159H11.1794V7.98311H10.2579V6.77212V6.77229ZM10.0517 6.77229V7.98327H9.76933L9.23414 7.338V7.98327H8.89816V6.77229H9.18054L9.71573 7.41756V6.77229H10.0517ZM8.08059 7.72376C8.14171 7.72376 8.19715 7.70942 8.24691 7.68057C8.29651 7.65172 8.33575 7.61102 8.36464 7.55865C8.39353 7.50612 8.40789 7.44591 8.40789 7.37786C8.40789 7.30982 8.39353 7.24961 8.36464 7.19708C8.33575 7.14454 8.29651 7.10401 8.24691 7.07516C8.19732 7.04631 8.14188 7.03197 8.08059 7.03197C8.01931 7.03197 7.96404 7.04631 7.91427 7.07516C7.86468 7.10401 7.82544 7.14471 7.79655 7.19708C7.76766 7.24961 7.7533 7.30982 7.7533 7.37786C7.7533 7.44591 7.76766 7.50612 7.79655 7.55865C7.82544 7.61119 7.86468 7.65172 7.91427 7.68057C7.96387 7.70942 8.01931 7.72376 8.08059 7.72376ZM8.08059 8.00746C7.95235 8.00746 7.83729 7.98044 7.7351 7.92623C7.6329 7.87203 7.55258 7.79698 7.4943 7.70142C7.43602 7.60568 7.4068 7.49795 7.4068 7.37786C7.4068 7.25778 7.43602 7.15005 7.4943 7.05431C7.55258 6.95858 7.6329 6.8837 7.7351 6.8295C7.83729 6.77529 7.95251 6.74811 8.08059 6.74811C8.20867 6.74811 8.32389 6.77529 8.42609 6.8295C8.52829 6.8837 8.60861 6.95858 8.66688 7.05431C8.72516 7.15005 8.75439 7.25795 8.75439 7.37786C8.75439 7.49778 8.72516 7.60568 8.66688 7.70142C8.60861 7.79715 8.52829 7.87203 8.42609 7.92623C8.32389 7.98044 8.20867 8.00746 8.08059 8.00746Z" fill="#7BA9E3"/>
<path fill-rule="evenodd" clip-rule="evenodd" d="M17.2807 11.7628L18.6949 10.4458C18.8053 10.3434 18.9786 10.3495 19.0811 10.4598C19.1838 10.57 19.1777 10.7433 19.0671 10.8457L17.4445 12.3559L17.4405 12.3592C17.3274 12.458 17.1541 12.4463 17.0551 12.3337L16.2734 11.4401C16.1744 11.3274 16.1859 11.1538 16.299 11.055C16.412 10.9563 16.5853 10.968 16.6844 11.0805L17.2805 11.7628H17.2807Z" fill="#F85C24"/>
<path d="M18.4184 14.7845C18.1485 14.515 17.7756 14.3482 17.3637 14.3482C16.9517 14.3482 16.579 14.515 16.309 14.7845C16.0391 15.054 15.8722 15.4264 15.8722 15.8379C15.8722 16.2493 16.0391 16.6216 16.309 16.8912C16.5788 17.1608 16.9517 17.3275 17.3637 17.3275C17.7756 17.3275 18.1484 17.1608 18.4184 16.8912C18.6882 16.6217 18.8552 16.2493 18.8552 15.8379C18.8552 15.4264 18.6882 15.0542 18.4184 14.7845ZM17.3637 13.9878C17.8752 13.9878 18.3382 14.1949 18.6735 14.5297C19.0087 14.8645 19.2161 15.327 19.2161 15.8379C19.2161 16.3487 19.0087 16.8112 18.6735 17.1461C18.3384 17.4808 17.8752 17.6879 17.3637 17.6879C16.8522 17.6879 16.3891 17.4808 16.0538 17.1461C15.7185 16.8112 15.5113 16.3487 15.5113 15.8379C15.5113 15.327 15.7187 14.8645 16.0538 14.5297C16.389 14.1949 16.8522 13.9878 17.3637 13.9878Z" fill="#A0C9FF"/>
<path d="M18.4184 19.1218C18.1485 18.8523 17.7756 18.6855 17.3637 18.6855C16.9517 18.6855 16.579 18.8523 16.309 19.1218C16.0391 19.3913 15.8722 19.7637 15.8722 20.1752C15.8722 20.5866 16.0391 20.9588 16.309 21.2285C16.5788 21.498 16.9517 21.6648 17.3637 21.6648C17.7756 21.6648 18.1484 21.498 18.4184 21.2285C18.6882 20.959 18.8552 20.5866 18.8552 20.1752C18.8552 19.7637 18.6882 19.3915 18.4184 19.1218ZM17.3637 18.3251C17.8752 18.3251 18.3382 18.5322 18.6735 18.8669C19.0087 19.2017 19.2161 19.6643 19.2161 20.1752C19.2161 20.686 19.0087 21.1485 18.6735 21.4834C18.3384 21.8181 17.8752 22.0252 17.3637 22.0252C16.8522 22.0252 16.3891 21.8181 16.0538 21.4834C15.7187 21.1486 15.5113 20.686 15.5113 20.1752C15.5113 19.6643 15.7187 19.2018 16.0538 18.8669C16.389 18.5322 16.8522 18.3251 17.3637 18.3251Z" fill="#A0C9FF"/>
<path fill-rule="evenodd" clip-rule="evenodd" d="M7.44015 10.1364H9.76244C9.89552 10.1364 10.0044 10.2451 10.0044 10.378C10.0044 10.5109 9.89552 10.6197 9.76244 10.6197H7.44015C7.30706 10.6197 7.19818 10.5109 7.19818 10.378C7.19818 10.2451 7.30706 10.1364 7.44015 10.1364Z" fill="#FF8C63"/>
<path fill-rule="evenodd" clip-rule="evenodd" d="M7.44015 11.1599H14.5626C14.6957 11.1599 14.8046 11.2687 14.8046 11.4016C14.8046 11.5345 14.6957 11.6432 14.5626 11.6432H7.44015C7.30706 11.6432 7.19818 11.5345 7.19818 11.4016C7.19818 11.2687 7.30706 11.1599 7.44015 11.1599Z" fill="#A0C9FF"/>
<path fill-rule="evenodd" clip-rule="evenodd" d="M7.44015 12.2945H12.3459C12.479 12.2945 12.5879 12.4032 12.5879 12.5362C12.5879 12.6691 12.479 12.7778 12.3459 12.7778H7.44015C7.30706 12.7778 7.19818 12.6691 7.19818 12.5362C7.19818 12.4032 7.30706 12.2945 7.44015 12.2945Z" fill="#A0C9FF"/>
<path fill-rule="evenodd" clip-rule="evenodd" d="M7.44015 14.4736H9.76244C9.89552 14.4736 10.0044 14.5824 10.0044 14.7153C10.0044 14.8482 9.89552 14.957 9.76244 14.957H7.44015C7.30706 14.957 7.19818 14.8482 7.19818 14.7153C7.19818 14.5824 7.30706 14.4736 7.44015 14.4736Z" fill="#FF8C63"/>
<path fill-rule="evenodd" clip-rule="evenodd" d="M7.44015 18.8107H9.76244C9.89552 18.8107 10.0044 18.9195 10.0044 19.0524C10.0044 19.1853 9.89552 19.2941 9.76244 19.2941H7.44015C7.30706 19.2941 7.19818 19.1853 7.19818 19.0524C7.19818 18.9195 7.30706 18.8107 7.44015 18.8107Z" fill="#FF8C63"/>
<path fill-rule="evenodd" clip-rule="evenodd" d="M7.44015 15.497H14.5626C14.6957 15.497 14.8046 15.6057 14.8046 15.7387C14.8046 15.8716 14.6957 15.9803 14.5626 15.9803H7.44015C7.30706 15.9803 7.19818 15.8716 7.19818 15.7387C7.19818 15.6057 7.30706 15.497 7.44015 15.497Z" fill="#A0C9FF"/>
<path fill-rule="evenodd" clip-rule="evenodd" d="M7.44015 19.8342H14.5626C14.6957 19.8342 14.8046 19.943 14.8046 20.0759C14.8046 20.2088 14.6957 20.3176 14.5626 20.3176H7.44015C7.30706 20.3176 7.19818 20.2088 7.19818 20.0759C7.19818 19.943 7.30706 19.8342 7.44015 19.8342Z" fill="#A0C9FF"/>
<path fill-rule="evenodd" clip-rule="evenodd" d="M7.44015 16.6318H12.3459C12.479 16.6318 12.5879 16.7405 12.5879 16.8734C12.5879 17.0064 12.479 17.1151 12.3459 17.1151H7.44015C7.30706 17.1151 7.19818 17.0064 7.19818 16.8734C7.19818 16.7405 7.30706 16.6318 7.44015 16.6318Z" fill="#A0C9FF"/>
<path fill-rule="evenodd" clip-rule="evenodd" d="M7.44015 20.969H12.3459C12.479 20.969 12.5879 21.0777 12.5879 21.2107C12.5879 21.3436 12.479 21.4523 12.3459 21.4523H7.44015C7.30706 21.4523 7.19818 21.3436 7.19818 21.2107C7.19818 21.0777 7.30706 20.969 7.44015 20.969Z" fill="#A0C9FF"/>
<path d="M20.83 3.08032H5.62732V4.34167H20.83V3.08032Z" fill="#B1D2FC"/>
<path fill-rule="evenodd" clip-rule="evenodd" d="M18.5583 3.40137C18.7088 3.40137 18.8307 3.52312 18.8307 3.67338C18.8307 3.82365 18.7088 3.9454 18.5583 3.9454C18.4079 3.9454 18.2859 3.82365 18.2859 3.67338C18.2859 3.52312 18.4079 3.40137 18.5583 3.40137Z" fill="white"/>
<path fill-rule="evenodd" clip-rule="evenodd" d="M19.3335 3.40137C19.4839 3.40137 19.6058 3.52312 19.6058 3.67338C19.6058 3.82365 19.4839 3.9454 19.3335 3.9454C19.183 3.9454 19.0611 3.82365 19.0611 3.67338C19.0611 3.52312 19.183 3.40137 19.3335 3.40137Z" fill="white"/>
<path fill-rule="evenodd" clip-rule="evenodd" d="M20.1087 3.40137C20.2591 3.40137 20.381 3.52312 20.381 3.67338C20.381 3.82365 20.2591 3.9454 20.1087 3.9454C19.9582 3.9454 19.8363 3.82365 19.8363 3.67338C19.8363 3.52312 19.9582 3.40137 20.1087 3.40137Z" fill="white"/>
<path d="M46.5328 33.7439H3.28467V33.8136H46.5328V33.7439Z" fill="#000446"/>
<path fill-rule="evenodd" clip-rule="evenodd" d="M38.5081 26.4473L38.2209 26.4849L39.1173 33.7651C39.127 33.8441 39.1996 33.9002 39.2786 33.89L39.2949 33.8878C39.3649 33.8787 39.4152 33.814 39.4065 33.7441L38.5079 26.4475L38.5081 26.4473Z" fill="#B2D2FF"/>
<path fill-rule="evenodd" clip-rule="evenodd" d="M33.3357 26.4363H33.0461V33.7749C33.0461 33.8545 33.1113 33.9195 33.1909 33.9195H33.2075C33.2781 33.9195 33.3357 33.8618 33.3357 33.7915V26.4363Z" fill="#B2D2FF"/>
<path fill-rule="evenodd" clip-rule="evenodd" d="M29.0653 26.4363H28.7758V33.7749C28.7758 33.8545 28.8409 33.9195 28.9205 33.9195H28.9371C29.0077 33.9195 29.0653 33.8618 29.0653 33.7915V26.4363Z" fill="#B2D2FF"/>
<path fill-rule="evenodd" clip-rule="evenodd" d="M35.2515 26.4473L34.9643 26.4849L35.8608 33.7651C35.8705 33.8441 35.9432 33.9002 36.0222 33.89L36.0385 33.8878C36.1085 33.8787 36.1588 33.814 36.1501 33.7441L35.2515 26.4475V26.4473Z" fill="#B2D2FF"/>
<path fill-rule="evenodd" clip-rule="evenodd" d="M31.6357 17.2048C31.2568 18.4084 30.7055 19.5767 29.4679 20.292C28.3803 20.571 26.1522 20.7131 26.2173 20.4458C26.2775 20.199 26.219 20.1504 26.5986 20.022C26.823 20.1609 29.2411 18.3806 29.2679 18.3742C29.4541 18.33 30.0063 15.6678 31.1051 15.2043C31.2288 15.1025 31.9447 16.6017 31.6357 17.205" fill="#FBB44A"/>
<path fill-rule="evenodd" clip-rule="evenodd" d="M31.0481 18.6828C30.9857 18.7937 30.7474 19.2062 30.3324 19.5777C30.5717 19.0822 31.0745 16.926 31.0745 16.926L31.0479 18.6828H31.0481Z" fill="#F48120"/>
<path fill-rule="evenodd" clip-rule="evenodd" d="M33.3464 25.5509H28.383C28.0858 25.5509 27.8425 25.7939 27.8425 26.0908C27.8425 26.3878 28.0858 26.6306 28.383 26.6306H33.3464C33.6436 26.6306 33.8869 26.3876 33.8869 26.0908C33.8869 25.7937 33.6436 25.5509 33.3464 25.5509Z" fill="#B2D2FF"/>
<path fill-rule="evenodd" clip-rule="evenodd" d="M35.0169 17.1589H40.0721L38.8007 25.5709L33.7455 25.5756C33.7259 25.5756 33.7061 25.5741 33.6862 25.5709C33.478 25.5709 33.3389 25.3439 33.3714 25.1385L34.5839 17.4731C34.6163 17.2678 34.8087 17.1588 35.0169 17.1588V17.1589Z" fill="#B2D2FF"/>
<path fill-rule="evenodd" clip-rule="evenodd" d="M39.6986 17.4731L38.4141 25.5507H32.805C32.5076 25.5507 32.2645 25.7937 32.2645 26.0906C32.2645 26.3874 32.5078 26.6304 32.805 26.6304H38.4562C38.9956 26.6304 39.0891 26.1259 39.1377 25.8202L40.4463 17.591C40.4789 17.3857 40.3398 17.1586 40.1316 17.1586C39.9233 17.1586 39.7313 17.2676 39.6986 17.4729" fill="#9CC1F4"/>
<path fill-rule="evenodd" clip-rule="evenodd" d="M25.9462 32.863L25.9525 31.812L26.8606 31.8381L26.8416 32.914L25.9462 32.863Z" fill="#F8A98E"/>
<path fill-rule="evenodd" clip-rule="evenodd" d="M33.9116 22.669L31.8899 22.2861C31.8899 22.2861 27.2012 22.7979 26.3334 24.3258C25.4656 25.8535 25.8077 32.0166 25.8077 32.0166L27.0681 32.0331C26.9863 31.5256 28.3746 25.6368 28.3793 25.6358L33.6636 23.7574L33.9118 22.669H33.9116Z" fill="#1F3E7A"/>
<path fill-rule="evenodd" clip-rule="evenodd" d="M33.9116 22.6689L33.2013 22.9873C32.6171 22.9982 30.0874 23.3928 29.6633 23.484C28.226 23.7932 28.4029 24.5224 28.3793 25.6358L29.4233 25.4943L33.6636 23.7575L33.9118 22.6691L33.9116 22.6689Z" fill="#000446"/>
<path fill-rule="evenodd" clip-rule="evenodd" d="M30.6293 32.6879L30.5428 31.7737L31.4611 31.7958L31.4524 32.8425L30.6293 32.6879Z" fill="#F8A98E"/>
<path fill-rule="evenodd" clip-rule="evenodd" d="M30.5842 32.5331C30.3247 32.9989 29.9018 33.4442 30.2321 33.8398H31.9133C31.9161 33.8323 31.9188 33.8239 31.9215 33.8153C31.9378 33.7611 32.0162 33.7384 31.9637 33.5401C31.8662 33.1718 31.58 32.6056 31.4815 32.5766C31.2864 32.5189 31.0094 32.6817 30.5844 32.5331" fill="#031542"/>
<path fill-rule="evenodd" clip-rule="evenodd" d="M30.1066 33.5318V33.5325C30.1028 33.6562 30.1157 33.7655 30.2319 33.8398H31.9131C31.9999 33.7895 32.0227 33.7549 31.9635 33.5401L30.1066 33.5318Z" fill="#0F4884"/>
<path fill-rule="evenodd" clip-rule="evenodd" d="M31.2517 32.4876H30.8623C30.8087 32.4876 30.765 32.5313 30.765 32.5848V33.0848C30.765 33.1384 30.8087 33.1821 30.8623 33.1821H31.2517C31.3053 33.1821 31.3491 33.1384 31.3491 33.0848V32.5848C31.3491 32.5313 31.3053 32.4876 31.2517 32.4876Z" fill="#0F4884"/>
<path fill-rule="evenodd" clip-rule="evenodd" d="M36.2252 22.4475C36.2252 22.4475 36.8129 24.8159 35.7456 25.3263C34.6784 25.8366 31.3484 25.8906 31.3484 25.8906C32.0198 28.4078 31.5297 30.0016 31.5551 32.1457L30.443 32.1514C30.443 32.1514 29.322 28.1478 28.9925 25.8778C28.8264 24.7325 28.7916 23.8221 30.2439 23.5095C30.7323 23.4045 33.9116 22.6688 33.9116 22.6688L36.2252 22.4473V22.4475Z" fill="#1F3E7A"/>
<path fill-rule="evenodd" clip-rule="evenodd" d="M35.6792 15.1799C36.4754 17.0045 35.5349 18.8024 36.3249 22.5707C34.9559 23.0067 30.9105 23.02 30.7362 22.3956C30.6518 20.0124 30.7891 17.7278 30.886 15.3459C32.0966 14.5078 33.8673 14.2336 35.2543 14.8759C35.3278 14.9099 35.4449 14.9603 35.5145 15.0157C35.5856 15.0724 35.6092 15.1342 35.6793 15.1799" fill="#FBB44A"/>
<path fill-rule="evenodd" clip-rule="evenodd" d="M32.1796 19.8671L35.1316 18.8806L35.1513 17.6814L35.4788 17.2428C35.4788 17.2428 36.1466 18.2628 36.1491 18.3319C36.1517 18.4009 35.8542 19.4378 35.8809 19.4389C35.9076 19.4401 34.1188 20.0342 33.9717 20.0687C33.8246 20.1032 32.1794 19.8671 32.1794 19.8671" fill="#F48120"/>
<path fill-rule="evenodd" clip-rule="evenodd" d="M35.3894 14.942C36.5438 15.5082 37.2091 18.9595 36.9448 19.8714C36.8992 20.5269 34.2177 20.4418 32.3084 20.693C32.0464 20.5004 31.8325 20.2465 32.0773 19.8908C33.25 19.4602 35.3153 19.0757 35.3118 19.0134C35.149 17.7644 34.9015 16.0494 34.9912 15.2192C35.0019 15.1208 35.2891 14.8926 35.3894 14.9418" fill="#FBB44A"/>
<path d="M23.1825 21.4551H22.4171V33.8398H23.1825V21.4551Z" fill="#7BABEA"/>
<path fill-rule="evenodd" clip-rule="evenodd" d="M20.7741 20.5154H33.5092V21.5377H20.7741C20.4925 21.5377 20.2623 21.3077 20.2623 21.0266C20.2623 20.7454 20.4925 20.5154 20.7741 20.5154Z" fill="#9CC1F4"/>
<path fill-rule="evenodd" clip-rule="evenodd" d="M33.0011 20.5154H40.2719C40.5534 20.5154 40.7837 20.7454 40.7837 21.0266C40.7837 21.3077 40.5534 21.5377 40.2719 21.5377H37.0285V33.8398H36.2253V21.5377H33.0011C32.7195 21.5377 32.4893 21.3077 32.4893 21.0266C32.4893 20.7454 32.7195 20.5154 33.0011 20.5154Z" fill="#7BABEA"/>
<path fill-rule="evenodd" clip-rule="evenodd" d="M25.8301 32.5051C25.8301 32.5051 24.6193 33.0017 24.2157 33.1992C23.9021 33.3526 23.7246 33.6754 23.9821 33.8398H27.1183C27.1211 33.8323 27.1238 33.8241 27.1265 33.8153C27.173 33.6605 27.2949 32.5546 26.9687 32.5793C26.7661 32.5946 26.2832 32.7381 25.8301 32.5051Z" fill="#031542"/>
<path fill-rule="evenodd" clip-rule="evenodd" d="M23.857 33.5325V33.5331L23.8597 33.6579C23.8643 33.7559 23.8991 33.7866 23.9826 33.8397H27.1333C27.1361 33.8322 27.1388 33.824 27.1415 33.8151C27.1507 33.785 27.1729 33.6277 27.1839 33.5406L23.8572 33.5323L23.857 33.5325Z" fill="#0F4884"/>
<path fill-rule="evenodd" clip-rule="evenodd" d="M25.6967 32.5616C25.2605 32.7428 24.5294 33.0495 24.2292 33.1927C24.3862 33.3137 24.5359 33.2896 24.5359 33.2896C24.5359 33.2896 25.3876 33.0243 25.6297 32.8527C25.7728 32.7513 25.7441 32.6377 25.6967 32.5616Z" fill="#0F4884"/>
<path fill-rule="evenodd" clip-rule="evenodd" d="M31.3055 13.8709C31.5445 14.1558 31.7752 14.3504 32.0579 14.4121L32.1783 14.9129C32.0933 15.2675 32.1733 15.5634 32.6285 15.5365C33.8424 15.3127 33.4982 14.5133 33.4785 14.4768L33.1975 13.8067C33.2369 13.795 33.5298 13.5419 33.6098 13.495C33.6896 13.4481 33.7771 13.2523 33.7442 13.075C33.7111 12.8978 33.4535 13.0185 33.4535 13.0185C33.6757 12.4921 33.9609 12.0378 33.3832 11.7473C32.8054 11.4568 31.6418 11.4823 31.6418 11.4823L30.9206 11.4088C31.0597 11.6186 31.1275 12.4118 31.0695 12.9308C31.0176 13.3963 30.9849 13.4883 31.3057 13.8707" fill="#F7AAAC"/>
<path fill-rule="evenodd" clip-rule="evenodd" d="M32.7101 15.5202C32.9054 15.6438 33.1992 15.8105 33.3943 15.9341C33.6436 15.5067 33.7545 15.2051 33.8086 14.734C33.7369 14.6354 33.5113 14.3854 33.4223 14.3434C33.3417 14.6818 33.1846 15.1638 32.7101 15.5203" fill="#FFF1D8"/>
<path fill-rule="evenodd" clip-rule="evenodd" d="M32.7102 15.5202C32.5924 15.715 32.3643 15.9081 32.2466 16.1029C32.1015 15.8216 31.9385 15.1806 31.9193 14.8154C31.9864 14.7495 32.024 14.7297 32.1095 14.6259C32.2157 14.8669 32.5048 15.3761 32.7103 15.5202" fill="#FFF1D8"/>
<path fill-rule="evenodd" clip-rule="evenodd" d="M32.9471 13.9528C32.8955 14.3871 32.7095 14.7987 32.2491 14.9016L32.1094 14.6259L32.0579 14.4121C32.2795 14.3961 32.4844 14.3298 32.9471 13.9528Z" fill="#E16E73"/>
<path fill-rule="evenodd" clip-rule="evenodd" d="M30.7793 20.5316C30.8374 20.3302 30.9468 20.0401 31.2275 19.9512C31.4267 19.888 31.8171 19.9657 32.6091 20.0109C32.7065 20.2624 32.7082 20.3935 32.6818 20.5112L30.7793 20.5317V20.5316Z" fill="#F8B9BE"/>
<path fill-rule="evenodd" clip-rule="evenodd" d="M26.8275 20.515C26.358 20.5127 25.8331 20.5189 25.694 20.5129C25.8316 20.1036 26.294 20.0023 26.6801 20.0247C26.7728 20.0879 26.8601 20.4036 26.8274 20.515" fill="#F8B9BE"/>
<path fill-rule="evenodd" clip-rule="evenodd" d="M22.9128 14.5884H28.8542C29.0845 14.5884 29.1286 14.7828 29.1714 15.0115L29.932 19.0802C29.963 19.2745 30.0475 19.6031 29.5329 19.6046L23.4464 19.6089L22.3583 14.9466C22.28 14.5884 22.7143 14.5884 22.9127 14.5884" fill="#7BABEA"/>
<path fill-rule="evenodd" clip-rule="evenodd" d="M22.5846 14.6479H28.6694C28.8997 14.6479 28.9434 14.8426 28.9865 15.0711L29.7426 19.0801H29.742L29.7837 19.3184C29.8113 19.4757 29.6528 19.6088 29.493 19.6088H23.4574C23.2976 19.6088 23.1899 19.4763 23.1667 19.3184L23.1314 19.0801H23.1238L22.3676 15.0122C22.3311 14.8152 22.3865 14.6478 22.5849 14.6478" fill="#B2D2FF"/>
<path fill-rule="evenodd" clip-rule="evenodd" d="M29.7363 19.4924C29.6809 19.5626 29.5872 19.6089 29.4928 19.6089H23.4573C23.3831 19.6089 23.3203 19.5804 23.2717 19.5342L24.1574 18.8906L28.1082 18.9373L29.7361 19.4924H29.7363Z" fill="#7BABEA"/>
<path fill-rule="evenodd" clip-rule="evenodd" d="M23.2719 19.534C23.2159 19.4805 23.179 19.4031 23.1665 19.3184L23.1313 19.0801H23.1236L22.3675 15.0122C22.3416 14.8729 22.3618 14.7485 22.446 14.6874L23.6194 15.8289L24.1576 18.8904L23.2719 19.534Z" fill="#C3DCFF"/>
<path fill-rule="evenodd" clip-rule="evenodd" d="M28.7567 14.6592C28.912 14.7039 28.9494 14.8751 28.9865 15.071L29.7426 19.08H29.742L29.7837 19.3184C29.7949 19.3829 29.775 19.4435 29.7364 19.4923L28.1085 18.9373L27.5858 15.829L28.7571 14.6592H28.7567Z" fill="#CEE4FF"/>
<path fill-rule="evenodd" clip-rule="evenodd" d="M22.5845 14.6479H28.6694C28.7021 14.6479 28.7312 14.6519 28.7569 14.6592L27.5856 15.829H23.6193L22.4169 14.7138C22.4538 14.6724 22.5087 14.6479 22.5847 14.6479" fill="white"/>
<path fill-rule="evenodd" clip-rule="evenodd" d="M24.7277 16.7667H26.5517C26.6206 16.7667 26.6338 16.825 26.6467 16.8936L26.8733 18.0954H26.8731L26.8856 18.1668C26.8938 18.214 26.8464 18.2538 26.7985 18.2538H24.9892C24.9412 18.2538 24.909 18.2141 24.902 18.1668L24.8915 18.0954H24.8891L24.6625 16.8759C24.6515 16.8169 24.6682 16.7667 24.7277 16.7667Z" fill="#7BABEA"/>
<path fill-rule="evenodd" clip-rule="evenodd" d="M25.4472 17.0669H26.147L25.8945 20.5129H25.1947L25.4472 17.0669Z" fill="#7BABEA"/>
<path d="M30.3154 20.3719H25.7695V20.5155H30.3154V20.3719Z" fill="#7BABEA"/>
<path fill-rule="evenodd" clip-rule="evenodd" d="M33.7867 11.9216C33.8245 11.5443 33.5367 11.2515 33.1308 11.0482C32.2897 10.6269 31.7284 11.0659 31.4721 11.1861C31.2949 11.2692 31.168 11.2895 30.9925 11.3646C30.5535 11.5523 30.7061 12.5122 31.0996 12.7585C31.1386 12.783 31.1017 12.3367 31.1441 12.3572C31.1896 12.3834 31.2387 12.4058 31.2914 12.4234C31.8852 12.5909 32.2965 12.2063 32.6843 12.512C32.8763 12.6634 32.9137 12.9299 32.8217 13.3716C32.7946 13.5017 32.7439 13.6037 32.9277 13.4693C33.0121 13.4076 33.2959 13.25 33.3567 13.2817C33.4921 13.3522 33.4731 13.5615 33.393 13.6439C33.3572 13.6806 33.2873 13.7388 33.2873 13.7388C34.1103 13.4049 34.1656 12.1092 33.7869 11.9216" fill="#1F3E7A"/>
<path d="M24.6268 9.52382C24.9205 9.8904 25.2134 10.35 25.3241 10.7079V10.8535H26.4543V10.7079C26.5649 10.35 26.8579 9.89057 27.1516 9.52382C27.2027 9.46378 27.2361 9.40557 27.2824 9.3452C27.4235 9.12055 27.508 8.85704 27.5157 8.57351C27.5384 7.72161 26.8584 7.0123 25.9968 6.98928C25.9607 6.98828 25.9248 6.98861 25.8892 6.99011C25.8537 6.98861 25.8178 6.98828 25.7817 6.98928C24.92 7.0123 24.2399 7.72161 24.2628 8.57351C24.2703 8.85704 24.3549 9.12055 24.496 9.3452C24.5425 9.40541 24.5759 9.46361 24.6268 9.52382Z" fill="#FBB44A"/>
<path fill-rule="evenodd" clip-rule="evenodd" d="M25.8892 7.39319C26.5461 7.39319 27.0787 7.92505 27.0787 8.58115C27.0787 9.23726 26.5461 9.76912 25.8892 9.76912C25.2323 9.76912 24.6998 9.23726 24.6998 8.58115C24.6998 7.92505 25.2323 7.39319 25.8892 7.39319Z" fill="#F7A12E"/>
<path fill-rule="evenodd" clip-rule="evenodd" d="M25.3011 10.7711H26.4678C26.49 10.7711 26.5081 10.7886 26.5081 10.81V11.6259H26.5052L26.3858 11.8132L26.2285 11.8143V11.8148C26.2285 11.9499 26.0744 12.0593 25.8844 12.0593C25.6943 12.0593 25.5439 11.9524 25.5402 11.8197L25.3948 11.8208L25.2635 11.6259H25.2607V10.81C25.2607 10.7886 25.2787 10.7711 25.3009 10.7711" fill="#B1D2FC"/>
<path fill-rule="evenodd" clip-rule="evenodd" d="M25.2423 10.8964H26.5268C26.5953 10.8964 26.6512 10.9522 26.6512 11.0206C26.6512 11.089 26.5953 11.1449 26.5268 11.1449C26.5953 11.1449 26.6512 11.2007 26.6512 11.2691C26.6512 11.3375 26.5953 11.3934 26.5268 11.3934C26.5953 11.3934 26.6512 11.4492 26.6512 11.5176C26.6512 11.586 26.5953 11.6419 26.5268 11.6419H25.2423C25.1739 11.6419 25.1179 11.586 25.1179 11.5176C25.1179 11.4492 25.1739 11.3934 25.2423 11.3934C25.1739 11.3934 25.1179 11.3375 25.1179 11.2691C25.1179 11.2007 25.1739 11.1449 25.2423 11.1449C25.1739 11.1449 25.1179 11.089 25.1179 11.0206C25.1179 10.9522 25.1739 10.8964 25.2423 10.8964Z" fill="#B1D2FC"/>
<path fill-rule="evenodd" clip-rule="evenodd" d="M25.2418 10.9391H26.5273C26.5437 10.9391 26.557 10.9524 26.557 10.9688C26.557 10.9851 26.5437 10.9985 26.5273 10.9985H25.2418C25.2255 10.9985 25.2121 10.9851 25.2121 10.9688C25.2121 10.9524 25.2255 10.9391 25.2418 10.9391Z" fill="#DDEAF8"/>
<path fill-rule="evenodd" clip-rule="evenodd" d="M25.2418 11.1791H26.5273C26.5437 11.1791 26.557 11.1924 26.557 11.2088C26.557 11.2251 26.5437 11.2385 26.5273 11.2385H25.2418C25.2255 11.2385 25.2121 11.2251 25.2121 11.2088C25.2121 11.1924 25.2255 11.1791 25.2418 11.1791Z" fill="#DDEAF8"/>
<path fill-rule="evenodd" clip-rule="evenodd" d="M25.2418 11.4193H26.5273C26.5437 11.4193 26.557 11.4326 26.557 11.4489C26.557 11.4653 26.5437 11.4786 26.5273 11.4786H25.2418C25.2255 11.4786 25.2121 11.4653 25.2121 11.4489C25.2121 11.4326 25.2255 11.4193 25.2418 11.4193Z" fill="#DDEAF8"/>
<path d="M25.6167 8.91502C25.5845 8.883 25.5401 8.86299 25.4913 8.86299C25.4426 8.86299 25.3982 8.883 25.3659 8.91502C25.3339 8.94721 25.3138 8.99158 25.3138 9.04028V9.14751C25.3138 9.19621 25.3339 9.24058 25.3659 9.27277C25.3982 9.30495 25.4426 9.3248 25.4913 9.3248H25.6688V9.04028C25.6688 8.99158 25.6488 8.94721 25.6167 8.91502ZM25.4913 8.80078C25.5573 8.80078 25.6172 8.8278 25.6607 8.87116C25.7041 8.91469 25.7311 8.97456 25.7311 9.04028V9.38684H25.4913C25.4254 9.38684 25.3656 9.35982 25.3222 9.31646C25.2788 9.2731 25.2517 9.21323 25.2517 9.14735V9.04011C25.2517 8.97423 25.2788 8.91452 25.3222 8.87116C25.3656 8.82763 25.4255 8.80078 25.4913 8.80078Z" fill="white"/>
<path d="M26.1178 8.87116C26.1612 8.8278 26.2212 8.80078 26.287 8.80078C26.3528 8.80078 26.4129 8.8278 26.4563 8.87116C26.4997 8.91469 26.5268 8.97456 26.5268 9.04028V9.14751C26.5268 9.21339 26.4999 9.27327 26.4563 9.31663C26.4129 9.35999 26.3529 9.38701 26.287 9.38701H26.0472V9.04044C26.0472 8.97456 26.0742 8.91486 26.1176 8.8715L26.1178 8.87116ZM26.287 8.86299C26.2382 8.86299 26.1938 8.883 26.1616 8.91502C26.1295 8.94721 26.1095 8.99158 26.1095 9.04028V9.3248H26.287C26.3357 9.3248 26.3802 9.30479 26.4124 9.27277C26.4446 9.24058 26.4645 9.19638 26.4645 9.14751V9.04028C26.4645 8.99158 26.4444 8.94721 26.4124 8.91502C26.3802 8.883 26.3359 8.86299 26.287 8.86299Z" fill="white"/>
<path d="M25.6688 10.7711V9.35602V9.32483H25.7H26.0784H26.1097V9.35602V10.7711H26.0474V9.38704H25.7311V10.7711H25.6688Z" fill="white"/>
<path fill-rule="evenodd" clip-rule="evenodd" d="M27.1732 6.42022C27.2148 6.44423 27.2292 6.49777 27.2051 6.53913L27.0146 6.86868C26.9905 6.91021 26.9369 6.92455 26.8955 6.90054C26.8539 6.87652 26.8396 6.82299 26.8636 6.78163L27.0542 6.45207C27.0782 6.41054 27.1318 6.3962 27.1732 6.42022ZM24.5772 6.42022C24.6188 6.3962 24.6724 6.41054 24.6963 6.45207L24.8868 6.78163C24.9109 6.82315 24.8965 6.87669 24.8549 6.90054C24.8134 6.92455 24.7598 6.91021 24.7357 6.86868L24.5452 6.53913C24.5211 6.4976 24.5355 6.44406 24.5771 6.42022H24.5772ZM23.6271 7.36919C23.6511 7.32766 23.7047 7.31332 23.7461 7.33733L24.0761 7.52763C24.1177 7.55164 24.1321 7.60518 24.108 7.64654C24.084 7.68807 24.0304 7.70241 23.9889 7.6784L23.659 7.4881C23.6174 7.46408 23.603 7.41055 23.6271 7.36919ZM28.1234 7.36919C28.1474 7.41072 28.1331 7.46425 28.0915 7.4881L27.7615 7.6784C27.7199 7.70241 27.6663 7.68807 27.6425 7.64654C27.6184 7.60501 27.6328 7.55148 27.6744 7.52746L28.0043 7.33717C28.0459 7.31315 28.0995 7.32749 28.1234 7.36902V7.36919ZM28.4712 8.66556C28.4712 8.71343 28.432 8.75262 28.384 8.75262H28.003C27.9551 8.75262 27.9158 8.71343 27.9158 8.66556C27.9158 8.61769 27.9551 8.5785 28.003 8.5785H28.384C28.432 8.5785 28.4712 8.61769 28.4712 8.66556ZM23.8348 8.66556C23.8348 8.71343 23.7956 8.75262 23.7477 8.75262H23.3666C23.3187 8.75262 23.2794 8.71343 23.2794 8.66556C23.2794 8.61769 23.3187 8.5785 23.3666 8.5785H23.7477C23.7956 8.5785 23.8348 8.61769 23.8348 8.66556ZM25.8752 6.07281C25.9232 6.07281 25.9624 6.11201 25.9624 6.15987V6.54046C25.9624 6.58833 25.9232 6.62752 25.8752 6.62752C25.8273 6.62752 25.7881 6.58833 25.7881 6.54046V6.15987C25.7881 6.11201 25.8273 6.07281 25.8752 6.07281Z" fill="#FBB44A"/>
<path fill-rule="evenodd" clip-rule="evenodd" d="M11.3164 30.6091H15.5795C15.8752 30.6091 16.1172 30.9619 16.1172 31.3928C16.1172 31.8239 15.8752 32.1765 15.5795 32.1765H11.3164C11.0207 32.1765 10.7787 31.8238 10.7787 31.3928C10.7787 30.9617 11.0207 30.6091 11.3164 30.6091Z" fill="#F7A12E"/>
<path fill-rule="evenodd" clip-rule="evenodd" d="M12.5548 30.6091H14.0834C13.7877 30.6091 13.5456 30.9619 13.5456 31.3928C13.5456 31.8239 13.7875 32.1765 14.0834 32.1765H12.5548C12.2591 32.1765 12.017 31.8238 12.017 31.3928C12.017 30.9617 12.2589 30.6091 12.5548 30.6091Z" fill="#F48120"/>
<path fill-rule="evenodd" clip-rule="evenodd" d="M15.3806 31.9377H19.4133C19.2462 31.6572 19.1809 31.2584 19.4133 30.848H15.3806C15.2456 30.848 15.1348 31.0935 15.1348 31.3928C15.1348 31.6922 15.2455 31.9377 15.3806 31.9377Z" fill="#E5E6E7"/>
<path fill-rule="evenodd" clip-rule="evenodd" d="M19.2627 31.4138C19.2597 31.2356 19.3029 31.0431 19.4133 30.848H15.3806C15.2456 30.848 15.1348 31.0935 15.1348 31.3928C15.1348 31.3998 15.1348 31.4068 15.1349 31.4138H19.2625H19.2627Z" fill="#D7D7D8"/>
<path fill-rule="evenodd" clip-rule="evenodd" d="M19.5392 32.1765H15.367C15.1727 32.1765 14.9671 31.8193 14.9671 31.3882C14.9671 30.957 15.1727 30.6091 15.367 30.6091H19.5392L19.5374 30.844L15.3806 30.848C15.2456 30.848 15.1349 31.0935 15.1349 31.3928C15.1349 31.6922 15.2456 31.9377 15.3806 31.9377L19.5374 31.9337L19.5392 32.1765Z" fill="#F48120"/>
<path fill-rule="evenodd" clip-rule="evenodd" d="M19.3925 32.1765H14.9352C14.626 32.1765 14.373 32.5293 14.373 32.9602C14.373 33.3913 14.626 33.7439 14.9352 33.7439H19.3925C19.7017 33.7439 19.9547 33.3912 19.9547 32.9602C19.9547 32.5291 19.7017 32.1765 19.3925 32.1765Z" fill="#3D7DDA"/>
<path fill-rule="evenodd" clip-rule="evenodd" d="M18.0976 32.1765H16.4994C16.8086 32.1765 17.0616 32.5293 17.0616 32.9602C17.0616 33.3913 16.8086 33.7439 16.4994 33.7439H18.0976C18.4069 33.7439 18.6599 33.3912 18.6599 32.9602C18.6599 32.5291 18.4069 32.1765 18.0976 32.1765Z" fill="#105DC4"/>
<path fill-rule="evenodd" clip-rule="evenodd" d="M15.1431 33.5051H10.9267C11.1015 33.2246 11.1698 32.8258 10.9267 32.4153H15.1433C15.2844 32.4153 15.4003 32.6608 15.4003 32.9602C15.4003 33.2596 15.2846 33.5051 15.1433 33.5051" fill="#E5E6E7"/>
<path fill-rule="evenodd" clip-rule="evenodd" d="M11.0841 32.9812C11.0873 32.8029 11.0421 32.6105 10.9265 32.4153H15.1431C15.2842 32.4153 15.4001 32.6608 15.4001 32.9602C15.4001 32.9672 15.4001 32.9742 15.3999 32.9812H11.0841Z" fill="#D7D7D8"/>
<path fill-rule="evenodd" clip-rule="evenodd" d="M10.7948 33.7439H15.1572C15.3604 33.7439 15.5753 33.3867 15.5753 32.9555C15.5753 32.5244 15.3604 32.1765 15.1572 32.1765H10.7948L10.7966 32.4113L15.143 32.4153C15.2841 32.4153 15.4 32.6608 15.4 32.9602C15.4 33.2596 15.2843 33.5051 15.143 33.5051L10.7966 33.5011L10.7948 33.7439Z" fill="#105DC4"/>
<path fill-rule="evenodd" clip-rule="evenodd" d="M14.8417 32.6545H14.3591C14.1739 32.7516 14.2274 33.1364 14.1175 33.3884L14.4025 33.1804L14.6093 33.3752C14.7696 33.1467 14.6779 32.7569 14.8415 32.6547" fill="#71BDF8"/>
<path fill-rule="evenodd" clip-rule="evenodd" d="M15.8319 31.1033H16.3145C16.4997 31.2004 16.4463 31.5852 16.5561 31.8372L16.2711 31.6292L16.0644 31.824C15.904 31.5955 15.9957 31.2056 15.8321 31.1035" fill="#F48120"/>
<path fill-rule="evenodd" clip-rule="evenodd" d="M11.7922 27.9859H15.3592C15.6067 27.9859 15.8092 28.2809 15.8092 28.6417C15.8092 29.0024 15.6067 29.2975 15.3592 29.2975H11.7922C11.5447 29.2975 11.3422 29.0024 11.3422 28.6417C11.3422 28.2809 11.5447 27.9859 11.7922 27.9859Z" fill="#F7A12E"/>
<path fill-rule="evenodd" clip-rule="evenodd" d="M12.8285 27.9859H14.1076C13.8602 27.9859 13.6576 28.2811 13.6576 28.6417C13.6576 29.0024 13.8602 29.2975 14.1076 29.2975H12.8285C12.581 29.2975 12.3785 29.0024 12.3785 28.6417C12.3785 28.2809 12.581 27.9859 12.8285 27.9859Z" fill="#F48120"/>
<path fill-rule="evenodd" clip-rule="evenodd" d="M15.193 29.0976H18.5673C18.4274 28.8628 18.3728 28.5292 18.5673 28.1857H15.1929C15.08 28.1857 14.9873 28.3911 14.9873 28.6416C14.9873 28.8921 15.08 29.0976 15.1929 29.0976" fill="#E5E6E7"/>
<path fill-rule="evenodd" clip-rule="evenodd" d="M18.4413 28.6593C18.4388 28.5101 18.4748 28.3491 18.5673 28.1859H15.1929C15.08 28.1859 14.9873 28.3913 14.9873 28.6418C14.9873 28.6477 14.9873 28.6537 14.9875 28.6595H18.4413V28.6593Z" fill="#D7D7D8"/>
<path fill-rule="evenodd" clip-rule="evenodd" d="M18.6727 29.2974H15.1817C15.019 29.2974 14.847 28.9984 14.847 28.6378C14.847 28.2772 15.019 27.986 15.1817 27.986H18.6727L18.6712 28.1825L15.1929 28.1858C15.08 28.1858 14.9873 28.3913 14.9873 28.6418C14.9873 28.8923 15.08 29.0978 15.1929 29.0978L18.6712 29.0944L18.6727 29.2976V29.2974Z" fill="#F48120"/>
<path fill-rule="evenodd" clip-rule="evenodd" d="M11.6519 29.2974H15.3816C15.6404 29.2974 15.8521 29.5925 15.8521 29.9532C15.8521 30.3139 15.6404 30.609 15.3816 30.609H11.6519C11.3932 30.609 11.1813 30.3139 11.1813 29.9532C11.1813 29.5925 11.3931 29.2974 11.6519 29.2974Z" fill="#3D7DDA"/>
<path fill-rule="evenodd" clip-rule="evenodd" d="M12.7355 29.2974H14.0729C13.8141 29.2974 13.6024 29.5926 13.6024 29.9532C13.6024 30.3139 13.8141 30.609 14.0729 30.609H12.7355C12.4767 30.609 12.265 30.3139 12.265 29.9532C12.265 29.5925 12.4767 29.2974 12.7355 29.2974Z" fill="#105DC4"/>
<path fill-rule="evenodd" clip-rule="evenodd" d="M15.2078 30.4092H18.7359C18.5896 30.1744 18.5325 29.8408 18.7359 29.4973H15.2076C15.0895 29.4973 14.9927 29.7027 14.9927 29.9532C14.9927 30.2037 15.0895 30.4092 15.2078 30.4092Z" fill="#E5E6E7"/>
<path fill-rule="evenodd" clip-rule="evenodd" d="M18.6041 29.9709C18.6015 29.8216 18.6394 29.6607 18.736 29.4974H15.2078C15.0897 29.4974 14.9929 29.7028 14.9929 29.9534C14.9929 29.9592 14.9929 29.9652 14.993 29.971H18.6043L18.6041 29.9709Z" fill="#D7D7D8"/>
<path fill-rule="evenodd" clip-rule="evenodd" d="M18.8461 30.609H15.1959C15.0259 30.609 14.8461 30.31 14.8461 29.9494C14.8461 29.5888 15.0259 29.2976 15.1959 29.2976H18.8461L18.8444 29.4941L15.2076 29.4974C15.0895 29.4974 14.9927 29.7029 14.9927 29.9534C14.9927 30.2039 15.0895 30.4094 15.2076 30.4094L18.8444 30.406L18.8461 30.6092V30.609Z" fill="#105DC4"/>
<path fill-rule="evenodd" clip-rule="evenodd" d="M15.4599 29.6975H15.8637C16.0186 29.7787 15.9739 30.1006 16.0659 30.3116L15.8273 30.1375L15.6543 30.3004C15.5202 30.1093 15.5968 29.7831 15.4599 29.6975Z" fill="#71BDF8"/>
<path fill-rule="evenodd" clip-rule="evenodd" d="M15.5706 28.3995H15.9744C16.1294 28.4807 16.0846 28.8026 16.1766 29.0136L15.938 28.8394L15.765 29.0024C15.6309 28.8113 15.7075 28.485 15.5706 28.3995Z" fill="#F48120"/>
</g>
<defs>
<clipPath id="clip0_516_3039">
<rect width="43.2482" height="30.8394" fill="white" transform="translate(3.28467 3.08032)"/>
</clipPath>
</defs>
</svg>
