<svg width="274" height="199" viewBox="0 0 274 199" fill="none" xmlns="http://www.w3.org/2000/svg">
<path d="M0 12C0 5.37258 5.37258 0 12 0H262C268.627 0 274 5.37258 274 12V199H0V12Z" fill="#1C88BD"/>
<g clip-path="url(#clip0_484_802)">
<path d="M117.875 33H52.1403V125.493H117.875V33Z" fill="#B1D2FC"/>
<path d="M84.0476 145.683C85.3899 147.152 86.6282 148.728 87.735 150.38C86.6643 151.322 85.67 152.349 84.7617 153.443C85.8773 152.605 87.1177 151.933 88.4231 151.446C90.6001 154.917 93.5026 159.524 94.2738 163.39C91.4672 163.647 87.2036 162.732 84.2325 162.317C84.7747 161.203 85.3516 160.114 85.9711 159.046C84.7892 159.97 83.6736 160.975 82.6324 162.059C79.6338 161.529 76.6403 160.674 73.7839 159.516C74.7717 157.748 76.0042 156.105 77.2266 154.477C75.1399 155.538 73.2164 156.909 71.5269 158.529C70.2626 157.937 69.0409 157.288 67.8582 156.581C67.6611 156.462 67.4654 156.342 67.2683 156.218C65.708 155.246 64.3008 154.27 63.0004 153.237C63.2603 152.925 63.5202 152.613 63.7794 152.301C65.1304 150.678 66.4835 149.048 67.8344 147.426C65.4762 148.323 63.7441 149.994 61.6054 151.337C61.4321 151.445 61.2595 151.558 61.0884 151.669L61.0863 151.667C58.648 149.365 55.9555 146.169 53.6746 142.718C54.0306 142.408 54.4038 142.116 54.7901 141.841C55.1735 141.558 55.5764 141.29 55.9822 141.044C55.4262 141.08 54.8703 141.132 54.3121 141.195C53.8154 141.251 53.3143 141.316 52.8175 141.398C51.7569 139.733 50.6601 137.893 49.4818 135.839C52.4471 135.39 55.1995 135.034 57.801 134.862C57.9664 135.313 58.1411 135.759 58.323 136.202C58.6429 136.994 58.9909 137.775 59.3678 138.541C59.4032 137.832 59.4805 137.126 59.6003 136.422C59.7 135.866 59.8191 135.315 59.9657 134.766C62.7621 134.701 65.4004 134.906 67.9716 135.507C67.9239 136.154 67.8856 136.802 67.838 137.448C67.7246 139.114 67.6069 140.775 67.4957 142.443C67.9152 141.034 68.3961 139.646 68.9362 138.279C69.2337 137.526 69.5507 136.779 69.885 136.038C71.9622 136.692 74.0013 137.635 76.0605 138.937C77.2107 139.667 78.3414 140.471 79.4324 141.348C79.2338 141.958 79.0353 142.568 78.8345 143.181C78.3609 144.644 77.8894 146.106 77.4114 147.565C78.5299 146.286 79.6454 145 80.7638 143.722C80.9718 143.486 81.1747 143.25 81.3797 143.017C82.3075 143.86 83.1985 144.749 84.0498 145.683" fill="#D8E7FF"/>
<path d="M56.5057 139.22L56.6212 139.277L56.549 139.312C56.5346 139.281 56.5201 139.251 56.5057 139.22ZM73.737 148.771L73.7623 148.787L73.7377 148.789V148.772L73.737 148.771ZM51.7114 136.931C52.0926 137.116 55.9259 138.936 56.3064 139.123C54.9021 139.361 53.5367 139.859 52.302 140.583L52.4869 140.878C53.7901 140.117 55.2443 139.612 56.731 139.41L56.8544 139.394C57.9953 139.959 59.131 140.535 60.261 141.121C58.3043 141.861 56.5808 143.002 55.1504 144.423C55.0891 144.484 55.0277 144.546 54.967 144.608C55.0356 144.705 55.1042 144.801 55.1735 144.897C55.2472 144.821 55.3223 144.744 55.3974 144.669C56.866 143.21 58.6494 142.056 60.6798 141.339C61.0863 141.551 61.4913 141.764 61.8957 141.979C60.053 142.923 58.3671 144.187 56.8819 145.663C56.6631 145.88 56.4487 146.102 56.2385 146.329C56.3107 146.422 56.383 146.516 56.4552 146.608C56.6747 146.37 56.8992 146.137 57.1281 145.909C58.6487 144.398 60.3816 143.115 62.2726 142.179C63.1217 142.631 63.9679 143.09 64.8098 143.554C63.6163 144.485 62.4784 145.487 61.4054 146.554C60.4978 147.456 59.6357 148.405 58.8249 149.394C58.905 149.48 58.9852 149.565 59.0653 149.65C59.8769 148.657 60.7411 147.705 61.6516 146.801C62.7498 145.71 63.9159 144.685 65.1412 143.738C67.1225 144.835 69.085 145.964 71.0279 147.126C69.3658 148.239 67.8272 149.499 66.4315 150.886C65.4892 151.822 64.6127 152.816 63.8062 153.862C63.8986 153.932 63.9917 154.002 64.0856 154.071C64.882 153.038 65.7477 152.057 66.6784 151.133C68.0965 149.724 69.6633 148.447 71.3594 147.324C72.1247 147.783 72.8865 148.248 73.6453 148.717C71.4547 149.796 69.4445 151.242 67.7109 152.965C66.999 153.672 66.3333 154.427 65.7217 155.222C65.8185 155.286 65.9152 155.351 66.0127 155.415C66.6113 154.639 67.2618 153.903 67.9579 153.211C69.7138 151.465 71.7594 150.009 73.9876 148.937L73.9955 148.933C75.441 149.83 76.875 150.745 78.2974 151.677C75.9623 153.09 73.7977 154.784 71.8619 156.708C71.4178 157.149 70.9861 157.603 70.5673 158.067C70.6756 158.121 70.7832 158.174 70.8922 158.228C71.2864 157.793 71.6922 157.369 72.1088 156.954C74.0641 155.012 76.2555 153.304 78.6201 151.889C79.3089 152.343 79.9949 152.8 80.6779 153.262C80.0295 153.79 79.4071 154.351 78.8136 154.941C77.3046 156.44 75.9825 158.128 74.8923 159.949C75.0035 159.991 75.1139 160.032 75.2251 160.072C76.2937 158.297 77.5869 156.652 79.0598 155.187C79.67 154.581 80.3104 154.006 80.979 153.466C81.6801 153.941 82.379 154.421 83.0743 154.905C81.6859 155.718 80.4035 156.71 79.2634 157.843C78.3977 158.704 77.6136 159.645 76.927 160.653C77.0425 160.69 77.1587 160.726 77.275 160.762C77.9349 159.806 78.6844 158.91 79.5097 158.09C80.6678 156.939 81.974 155.938 83.3891 155.125C84.3581 155.803 85.3213 156.488 86.2787 157.182C84.6224 157.938 83.1047 158.997 81.8129 160.281C81.3783 160.713 80.9696 161.17 80.5898 161.649C80.7162 161.678 80.8425 161.706 80.9696 161.733C81.3111 161.312 81.675 160.91 82.0599 160.527C83.3696 159.225 84.917 158.16 86.6044 157.418C87.7437 158.248 88.8744 159.089 89.9965 159.941C88.9596 160.396 88.0094 161.049 87.2051 161.848C86.9452 162.107 86.7004 162.38 86.4737 162.668L86.8701 162.732C87.0535 162.511 87.2477 162.298 87.452 162.095C88.2723 161.28 89.2506 160.623 90.3156 160.184C94.1453 163.104 90.6232 161.36 94.2362 164.54L94.5843 164.382C90.9293 161.16 94.4059 162.865 90.5293 159.91C90.6485 158.813 91.029 157.741 91.6196 156.798C91.5568 156.681 91.4925 156.565 91.429 156.45C90.7893 157.416 90.3647 158.522 90.2073 159.665C89.0831 158.812 87.9495 157.969 86.808 157.138C87.3971 155.594 88.247 154.144 89.3062 152.864L89.112 152.552C88.0138 153.858 87.1314 155.342 86.5155 156.926C85.5372 156.216 84.5531 155.516 83.5624 154.824C83.9372 152.532 84.93 150.331 86.3935 148.505C86.3213 148.409 86.2484 148.314 86.1755 148.22C84.6794 150.062 83.6556 152.282 83.2455 154.603C82.5682 154.132 81.8888 153.665 81.2057 153.202C82.0361 150.818 83.2642 148.566 84.8267 146.567C84.7495 146.477 84.6715 146.388 84.5935 146.299C83.0072 148.317 81.7566 150.59 80.9068 153C80.2144 152.532 79.519 152.069 78.8216 151.609C79.5783 148.944 80.9263 146.435 82.7328 144.313C82.6505 144.23 82.5675 144.148 82.4844 144.067C80.6613 146.203 79.2952 148.725 78.5161 151.408C77.0483 150.446 75.5681 149.501 74.0756 148.577C73.9334 145.256 74.5479 141.895 75.8388 138.805C75.7385 138.742 75.6381 138.681 75.5378 138.62C74.2432 141.698 73.6114 145.042 73.7175 148.356C72.9854 147.904 72.2496 147.456 71.5117 147.014C71.4886 143.732 72.0395 140.439 73.1247 137.319C73.0186 137.269 72.9124 137.219 72.8063 137.17C71.724 140.27 71.163 143.541 71.1615 146.804C69.2467 145.661 67.3138 144.548 65.3622 143.467C65.1867 140.685 65.5398 137.864 66.391 135.192C66.2755 135.172 66.1593 135.153 66.043 135.134C65.212 137.761 64.856 140.53 65.0011 143.266C64.1441 142.794 63.2834 142.327 62.4191 141.867C62.0292 139.53 62.2155 137.089 62.9383 134.811C62.8184 134.804 62.6986 134.798 62.578 134.793C61.887 137.012 61.6942 139.379 62.0329 141.661C61.6639 141.465 61.2942 141.27 60.9238 141.077C60.6567 138.983 60.7563 136.835 61.2126 134.759C61.0935 134.758 60.9751 134.758 60.8552 134.758C60.4206 136.771 60.3151 138.848 60.5476 140.881C59.2949 140.23 58.0357 139.592 56.7692 138.967C56.1967 137.726 55.7959 136.404 55.5793 135.052L55.2313 135.087C55.4299 136.338 55.7829 137.563 56.2804 138.726C55.9591 138.568 52.1851 136.778 51.863 136.622C51.7764 136.579 51.6717 136.615 51.6298 136.702C51.5879 136.789 51.6233 136.893 51.7107 136.935L51.7114 136.931Z" fill="#B4D2FF"/>
<path d="M118.864 38.4397H53.1294V123.733H118.864V38.4397Z" fill="white"/>
<path d="M93.9214 144.621C94.2933 146.432 94.5301 148.28 94.6254 150.127C93.3193 150.372 92.0326 150.722 90.7828 151.167C92.0752 151.026 93.3893 151.076 94.6658 151.306C94.7489 155.115 94.8673 160.177 93.6369 163.634C91.2687 162.509 88.2968 159.755 86.1177 158.013C87.0845 157.38 88.0665 156.781 89.0715 156.222C87.6845 156.4 86.3119 156.675 84.9603 157.048C82.8151 155.202 80.8295 153.098 79.0981 150.816C80.7335 149.87 82.5046 149.141 84.2599 148.419C82.0837 148.277 79.8902 148.461 77.7645 148.956C77.0367 147.883 76.3688 146.784 75.7616 145.657C75.6605 145.469 75.5616 145.279 75.4627 145.087C74.6793 143.57 74.02 142.122 73.4735 140.679C73.8301 140.552 74.1875 140.426 74.545 140.299C76.4013 139.642 78.2627 138.98 80.119 138.323C77.8035 137.922 75.6193 138.436 73.2662 138.497C73.0763 138.501 72.8836 138.51 72.6944 138.517V138.514C71.8438 135.517 71.2178 131.682 71.0424 127.84C71.4756 127.761 71.9139 127.705 72.3536 127.668C72.7955 127.623 73.246 127.601 73.6872 127.596C73.2251 127.362 72.7565 127.139 72.2792 126.925C71.8554 126.734 71.4222 126.548 70.9868 126.377C70.9348 124.542 70.9362 122.551 70.9752 120.348C73.5615 121.396 75.9334 122.416 78.0966 123.513C78.0129 123.952 77.94 124.391 77.8742 124.832C77.7515 125.618 77.6562 126.407 77.5919 127.199C77.9587 126.648 78.3587 126.12 78.7905 125.614C79.1356 125.216 79.4945 124.832 79.8743 124.463C82.1429 125.736 84.1552 127.152 85.9242 128.852C85.5769 129.347 85.2368 129.847 84.8895 130.342C84.0029 131.621 83.114 132.893 82.2281 134.175C83.2375 133.247 84.2852 132.365 85.3711 131.527C85.969 131.066 86.5798 130.619 87.2015 130.185C88.5495 131.694 89.7308 133.415 90.7553 135.433C91.3264 136.563 91.847 137.742 92.2997 138.961C91.8492 139.356 91.3994 139.749 90.9459 140.144C89.8672 141.09 88.7921 142.036 87.7119 142.975C89.2174 142.483 90.7243 141.984 92.2304 141.491C92.5091 141.401 92.7849 141.308 93.0608 141.219C93.4001 142.333 93.6875 143.468 93.9222 144.618" fill="#D8E7FF"/>
<path d="M74.9803 126.387L75.0453 126.487L74.9709 126.481C74.9738 126.45 74.9767 126.418 74.9796 126.387M84.1971 142.2L84.2101 142.225L84.1898 142.214L84.1971 142.2ZM72.2388 122.281C72.4554 122.61 74.6518 125.884 74.867 126.213C73.6294 125.738 72.2994 125.488 70.9658 125.481L70.9723 125.805C72.3788 125.813 73.7832 126.1 75.0691 126.643L75.176 126.689C75.8186 127.682 76.4511 128.682 77.0749 129.687C75.1565 129.35 73.2323 129.445 71.4091 129.903C71.3304 129.923 71.2517 129.943 71.1738 129.964C71.1824 130.074 71.1918 130.184 71.2005 130.293C71.2965 130.267 71.3918 130.241 71.4886 130.217C73.3608 129.747 75.3392 129.669 77.306 130.059C77.5298 130.422 77.7515 130.784 77.9724 131.148C76.0475 131.029 74.0944 131.241 72.2005 131.717C71.9218 131.788 71.6438 131.863 71.368 131.944C71.381 132.054 71.394 132.162 71.4077 132.27C71.6972 132.184 71.9875 132.104 72.2799 132.031C74.2193 131.543 76.2179 131.339 78.1782 131.487C78.641 132.252 79.0988 133.02 79.5508 133.791C78.1515 133.969 76.7623 134.232 75.3933 134.575C74.2359 134.867 73.0929 135.216 71.9716 135.623C71.9947 135.729 72.0178 135.836 72.0416 135.942C73.1659 135.533 74.3117 135.182 75.4727 134.89C76.8728 134.538 78.2952 134.272 79.7277 134.095C80.7884 135.912 81.818 137.747 82.8173 139.597C80.9559 139.699 79.1226 139.977 77.3435 140.424C76.1428 140.727 74.9659 141.106 73.8207 141.56C73.8612 141.66 73.903 141.759 73.9449 141.859C75.0756 141.411 76.2374 141.037 77.423 140.739C79.2309 140.284 81.0945 140.007 82.9877 139.913C83.3805 140.643 83.7675 141.376 84.1509 142.111C81.883 141.936 79.5833 142.138 77.3731 142.694C76.4655 142.922 75.5724 143.211 74.7031 143.556C74.7493 143.654 74.7962 143.751 74.8431 143.849C75.693 143.512 76.5652 143.232 77.4526 143.008C79.6916 142.445 82.0238 142.25 84.3191 142.45H84.3278C85.0548 143.854 85.7646 145.266 86.457 146.686C83.914 146.709 81.3725 147.037 78.9046 147.658C78.3385 147.801 77.7768 147.958 77.2193 148.131C77.28 148.225 77.3406 148.319 77.4027 148.413C77.9262 148.253 78.4533 148.105 78.984 147.972C81.4765 147.346 84.0462 147.019 86.6137 147.01C86.948 147.699 87.278 148.39 87.6036 149.084C86.8318 149.199 86.0664 149.352 85.3097 149.543C83.3855 150.027 81.5219 150.749 79.779 151.689C79.8475 151.774 79.9169 151.86 79.9869 151.945C81.6902 151.031 83.5111 150.329 85.3899 149.856C86.1675 149.661 86.9545 149.505 87.748 149.389C88.0816 150.102 88.4109 150.818 88.7358 151.534C87.2368 151.526 85.7372 151.711 84.283 152.077C83.1797 152.354 82.1017 152.735 81.0714 153.215C81.1465 153.299 81.2216 153.383 81.2974 153.468C82.2822 153.016 83.3104 152.655 84.3624 152.39C85.8383 152.019 87.3625 151.838 88.8831 151.859C89.3343 152.861 89.7769 153.866 90.2109 154.875C88.5249 154.693 86.8051 154.821 85.1574 155.235C84.6036 155.374 84.0577 155.546 83.5249 155.749C83.6122 155.832 83.7003 155.914 83.7884 155.996C84.2628 155.822 84.7465 155.672 85.2375 155.549C86.9076 155.129 88.6542 155.011 90.3589 155.218C90.8737 156.422 91.3762 157.631 91.8665 158.845C90.8196 158.717 89.7473 158.789 88.7221 159.046C88.3906 159.13 88.0643 159.232 87.7451 159.354L88.0311 159.594C88.2838 159.504 88.5408 159.425 88.8008 159.36C89.8463 159.097 90.943 159.035 92.0051 159.189C93.6723 163.342 91.6889 160.276 93.0593 164.533L93.4131 164.572C92.029 160.262 93.9951 163.275 92.3077 159.072C92.9272 158.251 93.7445 157.574 94.668 157.1C94.673 156.977 94.6774 156.854 94.6817 156.731C93.7077 157.201 92.8391 157.885 92.1676 158.724C91.6766 157.508 91.1726 156.296 90.6571 155.09C91.8665 154.134 93.2398 153.377 94.6983 152.855L94.6925 152.514C93.19 153.038 91.7748 153.806 90.525 154.781C90.0816 153.75 89.6296 152.722 89.1675 151.699C90.5625 150.044 92.4095 148.754 94.4528 147.987C94.4406 147.876 94.4276 147.766 94.4146 147.655C92.3373 148.42 90.4571 149.709 89.0195 151.372C88.7033 150.674 88.3827 149.978 88.0578 149.284C89.8614 147.77 91.9207 146.551 94.1257 145.694C94.107 145.585 94.0875 145.477 94.0673 145.369C91.8333 146.23 89.7466 147.456 87.9148 148.98C87.5848 148.277 87.2505 147.577 86.9119 146.878C88.7914 145.105 91.0694 143.738 93.5279 142.897C93.5012 142.792 93.4745 142.687 93.4463 142.582C90.9669 143.426 88.6686 144.795 86.7632 146.572C86.0491 145.106 85.3162 143.648 84.5646 142.201C86.0383 139.478 88.1365 137.081 90.6463 135.221C90.5957 135.123 90.5445 135.026 90.4932 134.93C87.9863 136.778 85.883 139.153 84.3834 141.854C84.0137 141.144 83.6397 140.438 83.2606 139.733C84.8108 137.098 86.826 134.725 89.1849 132.744C89.1242 132.654 89.0629 132.564 89.0015 132.474C86.6541 134.441 84.6418 136.791 83.0808 139.4C82.096 137.578 81.0815 135.77 80.0374 133.98C81.2266 131.672 82.8577 129.582 84.8159 127.849C84.7328 127.778 84.6491 127.708 84.5646 127.638C82.644 129.346 81.036 131.391 79.8439 133.648C79.384 132.864 78.919 132.082 78.4475 131.304C79.2526 129.249 80.5681 127.386 82.236 125.906C82.1436 125.844 82.0497 125.782 81.9566 125.721C80.3429 127.169 79.0576 128.97 78.2374 130.957C78.036 130.625 77.8331 130.294 77.6295 129.964C78.4165 128.162 79.5226 126.491 80.8808 125.047C80.7862 124.99 80.6909 124.933 80.5956 124.877C79.2858 126.281 78.2085 127.892 77.423 129.628C76.732 128.514 76.0294 127.405 75.3153 126.305C75.4504 125.04 75.7616 123.793 76.2352 122.608L75.9399 122.471C75.5009 123.566 75.1969 124.714 75.0395 125.879C74.8576 125.601 72.6951 122.378 72.5117 122.101C72.4626 122.026 72.3615 122.005 72.2864 122.055C72.2113 122.104 72.1904 122.204 72.2402 122.279L72.2388 122.281Z" fill="#B4D2FF"/>
<path d="M108.436 64.7718C107.27 63.6095 105.657 62.8903 103.876 62.8903C102.095 62.8903 100.483 63.6095 99.3157 64.7718C98.1489 65.9342 97.4269 67.5403 97.4269 69.3147C97.4269 71.0891 98.1489 72.6945 99.3157 73.8576C100.483 75.0199 102.095 75.7391 103.876 75.7391C105.657 75.7391 107.269 75.0199 108.436 73.8576C109.603 72.6952 110.325 71.0891 110.325 69.3147C110.325 67.5403 109.603 65.9349 108.436 64.7718ZM103.876 61.3359C106.088 61.3359 108.09 62.2293 109.54 63.6728C110.989 65.1171 111.886 67.1116 111.886 69.3147C111.886 71.5178 110.989 73.5123 109.54 74.9566C108.091 76.4009 106.088 77.2935 103.876 77.2935C101.665 77.2935 99.6623 76.4001 98.2125 74.9566C96.7633 73.5123 95.8666 71.5178 95.8666 69.3147C95.8666 67.1116 96.7633 65.1171 98.2125 63.6728C99.6616 62.2293 101.665 61.3359 103.876 61.3359Z" fill="#A0C9FF"/>
<path d="M108.084 50.0938H106.474V48.9229H111.17V50.0938H109.567V54.1447H108.084V50.0938ZM104.197 54.249C103.772 54.249 103.361 54.1965 102.961 54.0922C102.562 53.9879 102.237 53.8484 101.988 53.6743L102.475 52.5854C102.709 52.7393 102.982 52.8637 103.291 52.9587C103.601 53.0529 103.906 53.1004 104.205 53.1004C104.774 53.1004 105.058 52.9587 105.058 52.6753C105.058 52.5264 104.977 52.4156 104.815 52.343C104.652 52.271 104.392 52.1948 104.032 52.1157C103.638 52.0308 103.308 51.9402 103.044 51.8431C102.779 51.746 102.552 51.5906 102.362 51.377C102.172 51.1634 102.078 50.875 102.078 50.5117C102.078 50.1931 102.165 49.9061 102.34 49.6501C102.514 49.394 102.775 49.1912 103.122 49.0423C103.47 48.8934 103.895 48.8186 104.4 48.8186C104.744 48.8186 105.083 48.8574 105.418 48.9344C105.753 49.0114 106.047 49.125 106.302 49.2739L105.845 50.3708C105.345 50.1025 104.862 49.968 104.392 49.968C104.098 49.968 103.883 50.0118 103.748 50.0989C103.613 50.1859 103.546 50.2988 103.546 50.4384C103.546 50.5779 103.626 50.6822 103.786 50.752C103.945 50.8217 104.202 50.8937 104.557 50.9685C104.956 51.0533 105.287 51.144 105.549 51.2411C105.811 51.3382 106.039 51.4921 106.231 51.7035C106.423 51.915 106.519 52.202 106.519 52.5652C106.519 52.8788 106.431 53.1622 106.257 53.4154C106.082 53.6693 105.82 53.8714 105.47 54.0232C105.121 54.1749 104.696 54.2505 104.197 54.2505L104.197 54.249ZM101.688 53.0033V54.1447H97.4789V48.9222H101.59V50.0636H98.9468V50.944H101.276V52.0481H98.9468V53.0033H101.688ZM93.9958 50.0938H92.3857V48.9229H97.0818V50.0938H95.4789V54.1447H93.9958V50.0938ZM90.0333 53.0033V54.1447H85.8246V48.9222H89.9358V50.0636H87.2925V50.944H89.6217V52.0481H87.2925V53.0033H90.0333ZM84.9329 48.9222V54.1447H83.7119L81.3978 51.3619V54.1447H79.9451V48.9222H81.166L83.4801 51.705V48.9222H84.9329ZM77.5631 48.9222H79.0461V54.1447H77.5631V48.9222ZM73.1514 48.9222H74.6345V52.973H77.1356V54.144H73.1514V48.9214V48.9222ZM72.2597 48.9222V54.1447H71.0388L68.7247 51.3619V54.1447H67.2719V48.9222H68.4929L70.807 51.705V48.9222H72.2597ZM63.7369 53.0255C64.0011 53.0255 64.2408 52.9637 64.456 52.8393C64.6704 52.7148 64.8401 52.5393 64.965 52.3135C65.0899 52.0869 65.152 51.8273 65.152 51.5338C65.152 51.2403 65.0899 50.9807 64.965 50.7541C64.8401 50.5276 64.6704 50.3528 64.456 50.2283C64.2416 50.1039 64.0018 50.0421 63.7369 50.0421C63.4719 50.0421 63.2329 50.1039 63.0177 50.2283C62.8033 50.3528 62.6336 50.5283 62.5087 50.7541C62.3838 50.9807 62.3217 51.2403 62.3217 51.5338C62.3217 51.8273 62.3838 52.0869 62.5087 52.3135C62.6336 52.54 62.8033 52.7148 63.0177 52.8393C63.2322 52.9637 63.4719 53.0255 63.7369 53.0255ZM63.7369 54.249C63.1823 54.249 62.6849 54.1325 62.243 53.8987C61.8011 53.665 61.4538 53.3413 61.2018 52.9292C60.9498 52.5163 60.8235 52.0517 60.8235 51.5338C60.8235 51.0159 60.9498 50.5513 61.2018 50.1384C61.4538 49.7256 61.8011 49.4026 62.243 49.1689C62.6849 48.9351 63.1831 48.8179 63.7369 48.8179C64.2907 48.8179 64.7889 48.9351 65.2307 49.1689C65.6726 49.4026 66.0199 49.7256 66.2719 50.1384C66.5239 50.5513 66.6503 51.0167 66.6503 51.5338C66.6503 52.0509 66.5239 52.5163 66.2719 52.9292C66.0199 53.342 65.6726 53.665 65.2307 53.8987C64.7889 54.1325 64.2907 54.249 63.7369 54.249Z" fill="#7BA9E3"/>
<path fill-rule="evenodd" clip-rule="evenodd" d="M103.517 70.4447L109.632 64.7647C110.109 64.323 110.859 64.3496 111.302 64.8251C111.746 65.3005 111.72 66.0478 111.242 66.4894L104.226 73.0024L104.208 73.0167C103.719 73.4425 102.97 73.3922 102.542 72.9067L99.1619 69.0529C98.7338 68.5667 98.7836 67.8179 99.2724 67.3921C99.7612 66.9663 100.511 67.0167 100.939 67.5022L103.517 70.4447H103.517Z" fill="#F85C24"/>
<path d="M108.436 83.4762C107.27 82.3139 105.657 81.5946 103.876 81.5946C102.095 81.5946 100.483 82.3139 99.3157 83.4762C98.1489 84.6385 97.4269 86.2446 97.4269 88.019C97.4269 89.7935 98.1489 91.3989 99.3157 92.5619C100.483 93.7242 102.095 94.4435 103.876 94.4435C105.657 94.4435 107.269 93.7242 108.436 92.5619C109.603 91.3996 110.325 89.7935 110.325 88.019C110.325 86.2446 109.603 84.6392 108.436 83.4762ZM103.876 80.0403C106.088 80.0403 108.09 80.9336 109.54 82.3772C110.989 83.8214 111.886 85.8159 111.886 88.019C111.886 90.2221 110.989 92.2167 109.54 93.6609C108.091 95.1045 106.088 95.9978 103.876 95.9978C101.665 95.9978 99.6623 95.1045 98.2125 93.6609C96.7626 92.2167 95.8666 90.2221 95.8666 88.019C95.8666 85.8159 96.7633 83.8214 98.2125 82.3772C99.6616 80.9336 101.665 80.0403 103.876 80.0403Z" fill="#A0C9FF"/>
<path d="M108.436 102.182C107.27 101.019 105.657 100.3 103.876 100.3C102.095 100.3 100.483 101.019 99.3157 102.182C98.1489 103.344 97.4269 104.95 97.4269 106.724C97.4269 108.499 98.1489 110.104 99.3157 111.267C100.483 112.43 102.095 113.149 103.876 113.149C105.657 113.149 107.269 112.43 108.436 111.267C109.603 110.105 110.325 108.499 110.325 106.724C110.325 104.95 109.603 103.345 108.436 102.182ZM103.876 98.7456C106.088 98.7456 108.09 99.6389 109.54 101.082C110.989 102.526 111.886 104.521 111.886 106.724C111.886 108.927 110.989 110.922 109.54 112.366C108.091 113.81 106.088 114.703 103.876 114.703C101.665 114.703 99.6623 113.81 98.2125 112.366C96.7633 110.923 95.8666 108.927 95.8666 106.724C95.8666 104.521 96.7633 102.527 98.2125 101.082C99.6616 99.6389 101.665 98.7456 103.876 98.7456Z" fill="#A0C9FF"/>
<path fill-rule="evenodd" clip-rule="evenodd" d="M60.9678 63.4304H71.0091C71.5846 63.4304 72.0554 63.8994 72.0554 64.4726C72.0554 65.0459 71.5846 65.5148 71.0091 65.5148H60.9678C60.3924 65.5148 59.9216 65.0459 59.9216 64.4726C59.9216 63.8994 60.3924 63.4304 60.9678 63.4304Z" fill="#FF8C63"/>
<path fill-rule="evenodd" clip-rule="evenodd" d="M60.9678 67.8447H91.7647C92.3402 67.8447 92.8109 68.3137 92.8109 68.8869C92.8109 69.4602 92.3402 69.9291 91.7647 69.9291H60.9678C60.3924 69.9291 59.9216 69.4602 59.9216 68.8869C59.9216 68.3137 60.3924 67.8447 60.9678 67.8447Z" fill="#A0C9FF"/>
<path fill-rule="evenodd" clip-rule="evenodd" d="M60.9678 72.7378H82.1797C82.7552 72.7378 83.2259 73.2068 83.2259 73.78C83.2259 74.3533 82.7552 74.8222 82.1797 74.8222H60.9678C60.3924 74.8222 59.9216 74.3533 59.9216 73.78C59.9216 73.2068 60.3924 72.7378 60.9678 72.7378Z" fill="#A0C9FF"/>
<path fill-rule="evenodd" clip-rule="evenodd" d="M60.9678 82.1355H71.0091C71.5846 82.1355 72.0554 82.6045 72.0554 83.1777C72.0554 83.751 71.5846 84.2199 71.0091 84.2199H60.9678C60.3924 84.2199 59.9216 83.751 59.9216 83.1777C59.9216 82.6045 60.3924 82.1355 60.9678 82.1355Z" fill="#FF8C63"/>
<path fill-rule="evenodd" clip-rule="evenodd" d="M60.9678 100.84H71.0091C71.5846 100.84 72.0554 101.309 72.0554 101.882C72.0554 102.456 71.5846 102.925 71.0091 102.925H60.9678C60.3924 102.925 59.9216 102.456 59.9216 101.882C59.9216 101.309 60.3924 100.84 60.9678 100.84Z" fill="#FF8C63"/>
<path fill-rule="evenodd" clip-rule="evenodd" d="M60.9678 86.5491H91.7647C92.3402 86.5491 92.8109 87.018 92.8109 87.5913C92.8109 88.1645 92.3402 88.6335 91.7647 88.6335H60.9678C60.3924 88.6335 59.9216 88.1645 59.9216 87.5913C59.9216 87.018 60.3924 86.5491 60.9678 86.5491Z" fill="#A0C9FF"/>
<path fill-rule="evenodd" clip-rule="evenodd" d="M60.9678 105.254H91.7647C92.3402 105.254 92.8109 105.723 92.8109 106.296C92.8109 106.87 92.3402 107.339 91.7647 107.339H60.9678C60.3924 107.339 59.9216 106.87 59.9216 106.296C59.9216 105.723 60.3924 105.254 60.9678 105.254Z" fill="#A0C9FF"/>
<path fill-rule="evenodd" clip-rule="evenodd" d="M60.9678 91.4429H82.1797C82.7552 91.4429 83.2259 91.9118 83.2259 92.4851C83.2259 93.0583 82.7552 93.5273 82.1797 93.5273H60.9678C60.3924 93.5273 59.9216 93.0583 59.9216 92.4851C59.9216 91.9118 60.3924 91.4429 60.9678 91.4429Z" fill="#A0C9FF"/>
<path fill-rule="evenodd" clip-rule="evenodd" d="M60.9678 110.148H82.1797C82.7552 110.148 83.2259 110.617 83.2259 111.19C83.2259 111.763 82.7552 112.232 82.1797 112.232H60.9678C60.3924 112.232 59.9216 111.763 59.9216 111.19C59.9216 110.617 60.3924 110.148 60.9678 110.148Z" fill="#A0C9FF"/>
<path d="M118.864 33H53.1294V38.4398H118.864V33Z" fill="#B1D2FC"/>
<path fill-rule="evenodd" clip-rule="evenodd" d="M109.042 34.3845C109.692 34.3845 110.219 34.9096 110.219 35.5576C110.219 36.2057 109.692 36.7308 109.042 36.7308C108.391 36.7308 107.864 36.2057 107.864 35.5576C107.864 34.9096 108.391 34.3845 109.042 34.3845Z" fill="white"/>
<path fill-rule="evenodd" clip-rule="evenodd" d="M112.393 34.3845C113.044 34.3845 113.571 34.9096 113.571 35.5576C113.571 36.2057 113.044 36.7308 112.393 36.7308C111.743 36.7308 111.216 36.2057 111.216 35.5576C111.216 34.9096 111.743 34.3845 112.393 34.3845Z" fill="white"/>
<path fill-rule="evenodd" clip-rule="evenodd" d="M115.745 34.3845C116.395 34.3845 116.923 34.9096 116.923 35.5576C116.923 36.2057 116.395 36.7308 115.745 36.7308C115.094 36.7308 114.567 36.2057 114.567 35.5576C114.567 34.9096 115.094 34.3845 115.745 34.3845Z" fill="white"/>
<path d="M230 165.242H43V165.543H230V165.242Z" fill="#000446"/>
<path fill-rule="evenodd" clip-rule="evenodd" d="M195.302 133.774L194.06 133.936L197.936 165.333C197.978 165.674 198.292 165.916 198.634 165.872L198.704 165.863C199.007 165.823 199.224 165.544 199.187 165.243L195.301 133.775L195.302 133.774Z" fill="#B2D2FF"/>
<path fill-rule="evenodd" clip-rule="evenodd" d="M172.937 133.727H171.685V165.376C171.685 165.719 171.967 165.999 172.311 165.999H172.383C172.688 165.999 172.937 165.75 172.937 165.447V133.727Z" fill="#B2D2FF"/>
<path fill-rule="evenodd" clip-rule="evenodd" d="M154.473 133.727H153.221V165.376C153.221 165.719 153.502 165.999 153.847 165.999H153.918C154.223 165.999 154.473 165.75 154.473 165.447V133.727Z" fill="#B2D2FF"/>
<path fill-rule="evenodd" clip-rule="evenodd" d="M181.221 133.774L179.979 133.936L183.856 165.333C183.898 165.674 184.212 165.916 184.553 165.872L184.624 165.863C184.926 165.823 185.144 165.544 185.106 165.243L181.221 133.775V133.774Z" fill="#B2D2FF"/>
<path fill-rule="evenodd" clip-rule="evenodd" d="M165.587 93.9142C163.949 99.1051 161.564 104.144 156.213 107.228C151.511 108.432 141.877 109.045 142.158 107.892C142.418 106.827 142.165 106.618 143.807 106.064C144.777 106.663 155.233 98.985 155.348 98.9576C156.153 98.767 158.541 87.2855 163.292 85.2867C163.827 84.8479 166.923 91.3133 165.587 93.9149" fill="#FBB44A"/>
<path fill-rule="evenodd" clip-rule="evenodd" d="M163.046 100.288C162.776 100.767 161.746 102.545 159.951 104.148C160.986 102.011 163.16 92.7117 163.16 92.7117L163.045 100.288H163.046Z" fill="#F48120"/>
<path fill-rule="evenodd" clip-rule="evenodd" d="M172.983 129.908H151.522C150.237 129.908 149.185 130.956 149.185 132.236C149.185 133.517 150.237 134.565 151.522 134.565H172.983C174.269 134.565 175.321 133.517 175.321 132.236C175.321 130.955 174.269 129.908 172.983 129.908Z" fill="#B2D2FF"/>
<path fill-rule="evenodd" clip-rule="evenodd" d="M180.206 93.7165H202.065L196.567 129.995L174.709 130.015C174.624 130.015 174.539 130.008 174.453 129.995C173.552 129.995 172.951 129.016 173.092 128.13L178.334 95.0716C178.474 94.1862 179.306 93.7158 180.206 93.7158V93.7165Z" fill="#B2D2FF"/>
<path fill-rule="evenodd" clip-rule="evenodd" d="M200.449 95.0716L194.896 129.908H170.642C169.357 129.908 168.305 130.956 168.305 132.236C168.305 133.516 169.357 134.564 170.642 134.564H195.077C197.41 134.564 197.814 132.388 198.024 131.07L203.683 95.5801C203.823 94.6947 203.222 93.7151 202.322 93.7151C201.421 93.7151 200.591 94.1855 200.449 95.0709" fill="#9CC1F4"/>
<path fill-rule="evenodd" clip-rule="evenodd" d="M140.986 161.443L141.013 156.91L144.94 157.023L144.857 161.663L140.986 161.443Z" fill="#F8A98E"/>
<path fill-rule="evenodd" clip-rule="evenodd" d="M175.427 117.479L166.686 115.828C166.686 115.828 146.412 118.035 142.66 124.624C138.908 131.213 140.387 157.792 140.387 157.792L145.837 157.864C145.483 155.675 151.486 130.279 151.506 130.274L174.355 122.173L175.428 117.479H175.427Z" fill="#1F3E7A"/>
<path fill-rule="evenodd" clip-rule="evenodd" d="M175.427 117.479L172.356 118.852C169.83 118.899 158.892 120.601 157.058 120.994C150.844 122.328 151.608 125.472 151.506 130.274L156.021 129.664L174.355 122.174L175.428 117.48L175.427 117.479Z" fill="#000446"/>
<path fill-rule="evenodd" clip-rule="evenodd" d="M161.235 160.688L160.861 156.745L164.832 156.84L164.794 161.354L161.235 160.688Z" fill="#F8A98E"/>
<path fill-rule="evenodd" clip-rule="evenodd" d="M161.04 160.02C159.918 162.029 158.089 163.949 159.517 165.655H166.787C166.799 165.623 166.811 165.587 166.822 165.55C166.893 165.316 167.232 165.218 167.005 164.363C166.583 162.775 165.346 160.333 164.92 160.208C164.076 159.959 162.878 160.661 161.041 160.02" fill="#031542"/>
<path fill-rule="evenodd" clip-rule="evenodd" d="M158.975 164.327V164.33C158.959 164.863 159.014 165.335 159.517 165.655H166.786C167.162 165.438 167.26 165.289 167.004 164.363L158.975 164.327Z" fill="#0F4884"/>
<path fill-rule="evenodd" clip-rule="evenodd" d="M163.926 159.824H162.242C162.011 159.824 161.821 160.012 161.821 160.243V162.399C161.821 162.63 162.011 162.819 162.242 162.819H163.926C164.158 162.819 164.347 162.63 164.347 162.399V160.243C164.347 160.012 164.158 159.824 163.926 159.824Z" fill="#0F4884"/>
<path fill-rule="evenodd" clip-rule="evenodd" d="M185.431 116.524C185.431 116.524 187.972 126.738 183.357 128.939C178.743 131.14 164.344 131.373 164.344 131.373C167.247 142.229 165.128 149.102 165.238 158.349L160.429 158.374C160.429 158.374 155.582 141.108 154.158 131.318C153.439 126.379 153.289 122.452 159.569 121.104C161.681 120.651 175.427 117.479 175.427 117.479L185.431 116.523V116.524Z" fill="#1F3E7A"/>
<path fill-rule="evenodd" clip-rule="evenodd" d="M183.07 85.1817C186.513 93.0505 182.446 100.804 185.862 117.056C179.943 118.936 162.451 118.993 161.697 116.301C161.333 106.022 161.926 96.1699 162.345 85.8974C167.58 82.2831 175.236 81.1007 181.233 83.8705C181.551 84.0173 182.057 84.2345 182.358 84.4733C182.666 84.7178 182.768 84.9847 183.071 85.1817" fill="#FBB44A"/>
<path fill-rule="evenodd" clip-rule="evenodd" d="M167.938 105.396L180.703 101.141L180.788 95.9698L182.204 94.0781C182.204 94.0781 185.091 98.4771 185.102 98.7749C185.113 99.0727 183.827 103.544 183.942 103.549C184.058 103.554 176.323 106.116 175.687 106.265C175.051 106.414 167.938 105.396 167.938 105.396" fill="#F48120"/>
<path fill-rule="evenodd" clip-rule="evenodd" d="M181.817 84.1553C186.809 86.5972 189.685 101.482 188.542 105.415C188.345 108.241 176.751 107.874 168.495 108.958C167.362 108.127 166.437 107.032 167.496 105.498C172.567 103.641 181.497 101.983 181.482 101.714C180.778 96.3274 179.708 88.9312 180.095 85.3507C180.142 84.9264 181.383 83.9424 181.817 84.1546" fill="#FBB44A"/>
<path d="M129.036 112.245H125.726V165.656H129.036V112.245Z" fill="#7BABEA"/>
<path fill-rule="evenodd" clip-rule="evenodd" d="M118.622 108.192H173.687V112.601H118.622C117.405 112.601 116.409 111.609 116.409 110.396C116.409 109.184 117.405 108.192 118.622 108.192Z" fill="#9CC1F4"/>
<path fill-rule="evenodd" clip-rule="evenodd" d="M171.49 108.192H202.928C204.146 108.192 205.141 109.184 205.141 110.396C205.141 111.609 204.146 112.601 202.928 112.601H188.904V165.656H185.431V112.601H171.49C170.273 112.601 169.277 111.609 169.277 110.396C169.277 109.184 170.273 108.192 171.49 108.192Z" fill="#7BABEA"/>
<path fill-rule="evenodd" clip-rule="evenodd" d="M140.484 159.899C140.484 159.899 135.248 162.041 133.503 162.893C132.147 163.554 131.38 164.946 132.493 165.655H146.054C146.066 165.623 146.077 165.588 146.089 165.55C146.29 164.882 146.818 160.113 145.407 160.219C144.531 160.285 142.443 160.904 140.484 159.899Z" fill="#031542"/>
<path fill-rule="evenodd" clip-rule="evenodd" d="M131.952 164.33V164.333L131.964 164.871C131.984 165.294 132.134 165.426 132.495 165.655H146.119C146.131 165.622 146.142 165.587 146.154 165.549C146.194 165.419 146.29 164.741 146.337 164.365L131.953 164.329L131.952 164.33Z" fill="#0F4884"/>
<path fill-rule="evenodd" clip-rule="evenodd" d="M139.907 160.143C138.021 160.924 134.86 162.247 133.562 162.865C134.24 163.386 134.888 163.283 134.888 163.283C134.888 163.283 138.57 162.138 139.617 161.398C140.236 160.961 140.112 160.471 139.907 160.143Z" fill="#0F4884"/>
<path fill-rule="evenodd" clip-rule="evenodd" d="M164.159 79.5362C165.192 80.7647 166.19 81.6041 167.412 81.8702L167.933 84.0301C167.565 85.5593 167.911 86.8352 169.879 86.7194C175.128 85.7542 173.64 82.3068 173.554 82.1493L172.339 79.2593C172.51 79.2089 173.776 78.1171 174.122 77.915C174.467 77.7129 174.845 76.8684 174.703 76.1039C174.56 75.3393 173.446 75.86 173.446 75.86C174.407 73.59 175.64 71.6308 173.142 70.3778C170.644 69.1249 165.613 69.2349 165.613 69.2349L162.494 68.9177C163.096 69.8226 163.389 73.2434 163.138 75.4817C162.914 77.4892 162.772 77.8862 164.159 79.5355" fill="#F7AAAC"/>
<path fill-rule="evenodd" clip-rule="evenodd" d="M170.232 86.6488C171.076 87.1818 172.347 87.9011 173.191 88.434C174.269 86.5906 174.748 85.2902 174.982 83.2582C174.672 82.8332 173.697 81.755 173.312 81.5737C172.963 83.0331 172.284 85.1118 170.232 86.6496" fill="#FFF1D8"/>
<path fill-rule="evenodd" clip-rule="evenodd" d="M170.232 86.6489C169.723 87.489 168.737 88.3219 168.228 89.162C167.601 87.9486 166.896 85.1845 166.813 83.6093C167.103 83.3252 167.266 83.2396 167.635 82.7922C168.094 83.8316 169.344 86.0275 170.233 86.6489" fill="#FFF1D8"/>
<path fill-rule="evenodd" clip-rule="evenodd" d="M171.257 79.8894C171.034 81.7624 170.229 83.5375 168.239 83.9813L167.634 82.7923L167.412 81.8703C168.37 81.8012 169.256 81.5157 171.257 79.8894Z" fill="#E16E73"/>
<path fill-rule="evenodd" clip-rule="evenodd" d="M161.883 108.261C162.135 107.393 162.608 106.142 163.821 105.758C164.683 105.486 166.371 105.821 169.795 106.016C170.216 107.101 170.224 107.666 170.11 108.174L161.883 108.262V108.261Z" fill="#F8B9BE"/>
<path fill-rule="evenodd" clip-rule="evenodd" d="M144.797 108.19C142.766 108.18 140.497 108.207 139.895 108.181C140.49 106.416 142.49 105.979 144.159 106.076C144.56 106.348 144.937 107.71 144.796 108.19" fill="#F8B9BE"/>
<path fill-rule="evenodd" clip-rule="evenodd" d="M127.87 82.6304H153.56C154.556 82.6304 154.746 83.469 154.931 84.4551L158.22 102.002C158.354 102.84 158.72 104.257 156.494 104.264L130.177 104.282L125.472 84.1753C125.133 82.6304 127.011 82.6304 127.869 82.6304" fill="#7BABEA"/>
<path fill-rule="evenodd" clip-rule="evenodd" d="M126.45 82.8872H152.761C153.756 82.8872 153.945 83.7266 154.132 84.712L157.401 102.002H157.398L157.579 103.029C157.698 103.708 157.013 104.282 156.322 104.282H130.225C129.534 104.282 129.068 103.711 128.967 103.029L128.815 102.002H128.782L125.513 84.4581C125.354 83.6086 125.594 82.8865 126.452 82.8865" fill="#B2D2FF"/>
<path fill-rule="evenodd" clip-rule="evenodd" d="M157.374 103.78C157.134 104.082 156.729 104.282 156.321 104.282H130.224C129.903 104.282 129.632 104.159 129.422 103.96L133.251 101.185L150.334 101.386L157.373 103.78H157.374Z" fill="#7BABEA"/>
<path fill-rule="evenodd" clip-rule="evenodd" d="M129.422 103.959C129.18 103.728 129.021 103.395 128.967 103.029L128.814 102.002H128.781L125.512 84.458C125.4 83.8574 125.487 83.3209 125.851 83.0576L130.925 87.9802L133.252 101.184L129.422 103.959Z" fill="#C3DCFF"/>
<path fill-rule="evenodd" clip-rule="evenodd" d="M153.138 82.936C153.81 83.1288 153.971 83.8668 154.132 84.7119L157.401 102.001H157.398L157.579 103.029C157.627 103.308 157.541 103.569 157.374 103.779L150.335 101.386L148.075 87.9809L153.14 82.936H153.138Z" fill="#CEE4FF"/>
<path fill-rule="evenodd" clip-rule="evenodd" d="M126.45 82.8872H152.761C152.902 82.8872 153.028 82.9045 153.139 82.9361L148.075 87.981H130.925L125.725 83.1713C125.885 82.9929 126.123 82.8872 126.451 82.8872" fill="white"/>
<path fill-rule="evenodd" clip-rule="evenodd" d="M135.717 92.0247H143.604C143.902 92.0247 143.959 92.2764 144.015 92.572L144.994 97.755H144.994L145.048 98.0629C145.083 98.2664 144.878 98.4383 144.671 98.4383H136.848C136.641 98.4383 136.501 98.2671 136.471 98.0629L136.425 97.755H136.415L135.435 92.4958C135.388 92.2412 135.46 92.0247 135.717 92.0247Z" fill="#7BABEA"/>
<path fill-rule="evenodd" clip-rule="evenodd" d="M138.828 93.3193H141.854L140.763 108.181H137.737L138.828 93.3193Z" fill="#7BABEA"/>
<path d="M159.878 107.573H140.222V108.192H159.878V107.573Z" fill="#7BABEA"/>
<path fill-rule="evenodd" clip-rule="evenodd" d="M174.887 71.1294C175.05 69.5024 173.806 68.2394 172.051 67.3626C168.414 65.5458 165.988 67.4389 164.879 67.9575C164.113 68.3157 163.564 68.4034 162.806 68.7271C160.907 69.537 161.567 73.6763 163.268 74.7387C163.437 74.8444 163.278 72.9197 163.461 73.0081C163.658 73.121 163.87 73.2174 164.098 73.2937C166.666 74.0158 168.444 72.3572 170.12 73.6756C170.951 74.3287 171.113 75.4781 170.715 77.3827C170.598 77.9437 170.378 78.3839 171.173 77.8042C171.538 77.538 172.765 76.8583 173.028 76.995C173.614 77.2992 173.531 78.2019 173.185 78.5572C173.03 78.7155 172.728 78.9665 172.728 78.9665C176.287 77.5265 176.526 71.9386 174.888 71.1294" fill="#1F3E7A"/>
<path d="M135.281 60.7885C136.551 62.3695 137.817 64.3518 138.296 65.8953V66.5232H143.183V65.8953C143.661 64.3518 144.928 62.3702 146.198 60.7885C146.419 60.5296 146.563 60.2786 146.763 60.0182C147.373 59.0494 147.739 57.9129 147.772 56.6902C147.87 53.0162 144.93 49.9572 141.204 49.8579C141.048 49.8536 140.893 49.8551 140.739 49.8615C140.586 49.8551 140.43 49.8536 140.274 49.8579C136.549 49.9572 133.608 53.0162 133.707 56.6902C133.739 57.9129 134.105 59.0494 134.716 60.0182C134.916 60.2779 135.061 60.5289 135.281 60.7885Z" fill="#FBB44A"/>
<path fill-rule="evenodd" clip-rule="evenodd" d="M140.739 51.6001C143.58 51.6001 145.882 53.8938 145.882 56.7234C145.882 59.553 143.58 61.8467 140.739 61.8467C137.899 61.8467 135.596 59.553 135.596 56.7234C135.596 53.8938 137.899 51.6001 140.739 51.6001Z" fill="#F7A12E"/>
<path fill-rule="evenodd" clip-rule="evenodd" d="M138.196 66.168H143.241C143.337 66.168 143.415 66.2435 143.415 66.3356V69.8542H143.403L142.887 70.6619L142.207 70.6669V70.6691C142.207 71.2517 141.54 71.7235 140.719 71.7235C139.897 71.7235 139.246 71.2625 139.23 70.69L138.602 70.695L138.034 69.8542H138.022V66.3356C138.022 66.2435 138.1 66.168 138.196 66.168" fill="#B1D2FC"/>
<path fill-rule="evenodd" clip-rule="evenodd" d="M137.942 66.7083H143.496C143.792 66.7083 144.034 66.9492 144.034 67.2441C144.034 67.539 143.792 67.78 143.496 67.78C143.792 67.78 144.034 68.0209 144.034 68.3158C144.034 68.6107 143.792 68.8517 143.496 68.8517C143.792 68.8517 144.034 69.0926 144.034 69.3875C144.034 69.6824 143.792 69.9233 143.496 69.9233H137.942C137.646 69.9233 137.404 69.6824 137.404 69.3875C137.404 69.0926 137.646 68.8517 137.942 68.8517C137.646 68.8517 137.404 68.6107 137.404 68.3158C137.404 68.0209 137.646 67.78 137.942 67.78C137.646 67.78 137.404 67.539 137.404 67.2441C137.404 66.9492 137.646 66.7083 137.942 66.7083Z" fill="#B1D2FC"/>
<path fill-rule="evenodd" clip-rule="evenodd" d="M137.94 66.8923H143.498C143.569 66.8923 143.627 66.9499 143.627 67.0204C143.627 67.0908 143.569 67.1484 143.498 67.1484H137.94C137.869 67.1484 137.812 67.0908 137.812 67.0204C137.812 66.9499 137.869 66.8923 137.94 66.8923Z" fill="#DDEAF8"/>
<path fill-rule="evenodd" clip-rule="evenodd" d="M137.94 67.9272H143.498C143.569 67.9272 143.627 67.9848 143.627 68.0553C143.627 68.1258 143.569 68.1833 143.498 68.1833H137.94C137.869 68.1833 137.812 68.1258 137.812 68.0553C137.812 67.9848 137.869 67.9272 137.94 67.9272Z" fill="#DDEAF8"/>
<path fill-rule="evenodd" clip-rule="evenodd" d="M137.94 68.9631H143.498C143.569 68.9631 143.627 69.0207 143.627 69.0912C143.627 69.1617 143.569 69.2192 143.498 69.2192H137.94C137.869 69.2192 137.812 69.1617 137.812 69.0912C137.812 69.0207 137.869 68.9631 137.94 68.9631Z" fill="#DDEAF8"/>
<path d="M139.561 58.1633C139.422 58.0253 139.23 57.9389 139.019 57.9389C138.808 57.9389 138.616 58.0253 138.477 58.1633C138.338 58.3022 138.251 58.4935 138.251 58.7035V59.166C138.251 59.376 138.338 59.5673 138.477 59.7062C138.616 59.845 138.808 59.9306 139.019 59.9306H139.786V58.7035C139.786 58.4935 139.7 58.3022 139.561 58.1633ZM139.019 57.6707C139.304 57.6707 139.563 57.7872 139.751 57.9742C139.939 58.1619 140.056 58.4201 140.056 58.7035V60.1981H139.019C138.734 60.1981 138.475 60.0816 138.287 59.8946C138.1 59.7076 137.983 59.4494 137.983 59.1653V58.7028C137.983 58.4187 138.1 58.1612 138.287 57.9742C138.475 57.7865 138.734 57.6707 139.019 57.6707Z" fill="white"/>
<path d="M141.728 57.9742C141.916 57.7872 142.175 57.6707 142.459 57.6707C142.744 57.6707 143.004 57.7872 143.191 57.9742C143.379 58.1619 143.496 58.4201 143.496 58.7035V59.166C143.496 59.4501 143.38 59.7083 143.191 59.8953C143.004 60.0823 142.745 60.1989 142.459 60.1989H141.422V58.7042C141.422 58.4201 141.539 58.1626 141.727 57.9756L141.728 57.9742ZM142.459 57.9389C142.248 57.9389 142.056 58.0253 141.917 58.1633C141.778 58.3022 141.692 58.4935 141.692 58.7035V59.9306H142.459C142.67 59.9306 142.862 59.8443 143.002 59.7062C143.141 59.5673 143.227 59.3767 143.227 59.166V58.7035C143.227 58.4935 143.14 58.3022 143.002 58.1633C142.862 58.0253 142.671 57.9389 142.459 57.9389Z" fill="white"/>
<path d="M139.786 66.1681V60.0652V59.9307H139.921H141.558H141.693V60.0652V66.1681H141.423V60.1989H140.056V66.1681H139.786Z" fill="white"/>
<path fill-rule="evenodd" clip-rule="evenodd" d="M146.291 47.404C146.471 47.5076 146.533 47.7384 146.429 47.9168L145.605 49.3381C145.501 49.5172 145.269 49.579 145.09 49.4755C144.911 49.3719 144.849 49.141 144.952 48.9626L145.776 47.5414C145.88 47.3623 146.112 47.3004 146.291 47.404ZM135.066 47.404C135.246 47.3004 135.478 47.3623 135.581 47.5414L136.405 48.9626C136.509 49.1417 136.447 49.3726 136.267 49.4755C136.087 49.579 135.856 49.5172 135.752 49.3381L134.928 47.9168C134.824 47.7377 134.886 47.5068 135.066 47.404H135.066ZM130.958 51.4966C131.062 51.3175 131.294 51.2556 131.473 51.3592L132.9 52.1799C133.079 52.2834 133.141 52.5143 133.037 52.6927C132.934 52.8718 132.702 52.9337 132.523 52.8301L131.096 52.0094C130.916 51.9058 130.854 51.675 130.958 51.4966ZM150.399 51.4966C150.503 51.6757 150.441 51.9066 150.262 52.0094L148.835 52.8301C148.655 52.9337 148.423 52.8718 148.32 52.6927C148.216 52.5136 148.278 52.2827 148.458 52.1792L149.885 51.3585C150.064 51.2549 150.296 51.3168 150.399 51.4959V51.4966ZM151.903 57.0874C151.903 57.2938 151.734 57.4628 151.527 57.4628H149.879C149.672 57.4628 149.502 57.2938 149.502 57.0874C149.502 56.881 149.672 56.7119 149.879 56.7119H151.527C151.734 56.7119 151.903 56.881 151.903 57.0874ZM131.856 57.0874C131.856 57.2938 131.687 57.4628 131.479 57.4628H129.832C129.624 57.4628 129.455 57.2938 129.455 57.0874C129.455 56.881 129.624 56.7119 129.832 56.7119H131.479C131.687 56.7119 131.856 56.881 131.856 57.0874ZM140.679 45.9058C140.886 45.9058 141.056 46.0748 141.056 46.2812V47.9226C141.056 48.129 140.886 48.298 140.679 48.298C140.472 48.298 140.302 48.129 140.302 47.9226V46.2812C140.302 46.0748 140.472 45.9058 140.679 45.9058Z" fill="#FBB44A"/>
<path fill-rule="evenodd" clip-rule="evenodd" d="M77.7284 151.723H96.1612C97.4399 151.723 98.4861 153.244 98.4861 155.102C98.4861 156.962 97.4399 158.482 96.1612 158.482H77.7284C76.4497 158.482 75.4034 156.961 75.4034 155.102C75.4034 153.243 76.4497 151.723 77.7284 151.723Z" fill="#F7A12E"/>
<path fill-rule="evenodd" clip-rule="evenodd" d="M83.083 151.723H89.6924C88.4137 151.723 87.3668 153.244 87.3668 155.102C87.3668 156.962 88.413 158.482 89.6924 158.482H83.083C81.8042 158.482 80.7573 156.961 80.7573 155.102C80.7573 153.243 81.8035 151.723 83.083 151.723Z" fill="#F48120"/>
<path fill-rule="evenodd" clip-rule="evenodd" d="M95.3012 157.452H112.738C112.016 156.243 111.733 154.523 112.738 152.753H95.3012C94.7178 152.753 94.2384 153.811 94.2384 155.103C94.2384 156.394 94.7171 157.452 95.3012 157.452Z" fill="#E5E6E7"/>
<path fill-rule="evenodd" clip-rule="evenodd" d="M112.087 155.193C112.074 154.424 112.261 153.594 112.738 152.753H95.3012C94.7178 152.753 94.2384 153.811 94.2384 155.103C94.2384 155.133 94.2384 155.163 94.2391 155.193H112.086H112.087Z" fill="#D7D7D8"/>
<path fill-rule="evenodd" clip-rule="evenodd" d="M113.283 158.482H95.2427C94.4023 158.482 93.5135 156.942 93.5135 155.082C93.5135 153.223 94.4023 151.723 95.2427 151.723H113.283L113.275 152.735L95.3012 152.753C94.7178 152.753 94.2391 153.811 94.2391 155.102C94.2391 156.394 94.7178 157.452 95.3012 157.452L113.275 157.435L113.283 158.482Z" fill="#F48120"/>
<path fill-rule="evenodd" clip-rule="evenodd" d="M112.648 158.482H93.3756C92.0384 158.482 90.9445 160.003 90.9445 161.862C90.9445 163.721 92.0384 165.242 93.3756 165.242H112.648C113.985 165.242 115.079 163.721 115.079 161.862C115.079 160.003 113.985 158.482 112.648 158.482Z" fill="#3D7DDA"/>
<path fill-rule="evenodd" clip-rule="evenodd" d="M107.049 158.482H100.139C101.476 158.482 102.57 160.003 102.57 161.862C102.57 163.721 101.476 165.242 100.139 165.242H107.049C108.387 165.242 109.48 163.721 109.48 161.862C109.48 160.003 108.387 158.482 107.049 158.482Z" fill="#105DC4"/>
<path fill-rule="evenodd" clip-rule="evenodd" d="M94.2745 164.212H76.0432C76.7991 163.002 77.0944 161.282 76.0432 159.512H94.2752C94.8853 159.512 95.3864 160.571 95.3864 161.862C95.3864 163.153 94.886 164.212 94.2752 164.212" fill="#E5E6E7"/>
<path fill-rule="evenodd" clip-rule="evenodd" d="M76.724 161.953C76.7377 161.184 76.5421 160.354 76.0424 159.512H94.2745C94.8846 159.512 95.3857 160.571 95.3857 161.862C95.3857 161.892 95.3857 161.922 95.385 161.953H76.724Z" fill="#D7D7D8"/>
<path fill-rule="evenodd" clip-rule="evenodd" d="M75.4728 165.242H94.3352C95.2139 165.242 96.1431 163.701 96.1431 161.842C96.1431 159.983 95.2139 158.482 94.3352 158.482H75.4728L75.4807 159.495L94.2738 159.512C94.8839 159.512 95.385 160.571 95.385 161.862C95.385 163.153 94.8846 164.212 94.2738 164.212L75.4807 164.195L75.4728 165.242Z" fill="#105DC4"/>
<path fill-rule="evenodd" clip-rule="evenodd" d="M92.9712 160.544H90.8846C90.0838 160.962 90.3149 162.622 89.8398 163.708L91.0723 162.812L91.9662 163.652C92.6593 162.666 92.2629 160.985 92.9705 160.544" fill="#71BDF8"/>
<path fill-rule="evenodd" clip-rule="evenodd" d="M97.2529 153.854H99.3395C100.14 154.272 99.9092 155.932 100.384 157.019L99.1518 156.122L98.2579 156.962C97.5648 155.976 97.9612 154.295 97.2536 153.854" fill="#F48120"/>
<path fill-rule="evenodd" clip-rule="evenodd" d="M79.7854 140.409H95.2088C96.2788 140.409 97.1546 141.682 97.1546 143.238C97.1546 144.793 96.2788 146.066 95.2088 146.066H79.7854C78.7154 146.066 77.8395 144.793 77.8395 143.238C77.8395 141.682 78.7154 140.409 79.7854 140.409Z" fill="#F7A12E"/>
<path fill-rule="evenodd" clip-rule="evenodd" d="M84.2664 140.409H89.7971C88.7271 140.409 87.8513 141.683 87.8513 143.238C87.8513 144.793 88.7271 146.066 89.7971 146.066H84.2664C83.1963 146.066 82.3205 144.793 82.3205 143.238C82.3205 141.682 83.1963 140.409 84.2664 140.409Z" fill="#F48120"/>
<path fill-rule="evenodd" clip-rule="evenodd" d="M94.4904 145.204H109.081C108.475 144.191 108.239 142.753 109.081 141.271H94.4897C94.0016 141.271 93.6009 142.157 93.6009 143.237C93.6009 144.318 94.0016 145.204 94.4897 145.204" fill="#E5E6E7"/>
<path fill-rule="evenodd" clip-rule="evenodd" d="M108.535 143.314C108.525 142.67 108.681 141.976 109.081 141.272H94.4897C94.0016 141.272 93.6009 142.158 93.6009 143.238C93.6009 143.263 93.6009 143.289 93.6016 143.314H108.535V143.314Z" fill="#D7D7D8"/>
<path fill-rule="evenodd" clip-rule="evenodd" d="M109.536 146.066H94.4413C93.738 146.066 92.9943 144.776 92.9943 143.221C92.9943 141.666 93.738 140.41 94.4413 140.41H109.536L109.53 141.257L94.4897 141.272C94.0016 141.272 93.6008 142.158 93.6008 143.238C93.6008 144.319 94.0016 145.205 94.4897 145.205L109.53 145.19L109.536 146.066V146.066Z" fill="#F48120"/>
<path fill-rule="evenodd" clip-rule="evenodd" d="M79.179 146.066H95.3056C96.4247 146.066 97.3403 147.338 97.3403 148.894C97.3403 150.45 96.4247 151.722 95.3056 151.722H79.179C78.0605 151.722 77.1443 150.45 77.1443 148.894C77.1443 147.338 78.0598 146.066 79.179 146.066Z" fill="#3D7DDA"/>
<path fill-rule="evenodd" clip-rule="evenodd" d="M83.8642 146.066H89.647C88.5279 146.066 87.6123 147.339 87.6123 148.894C87.6123 150.45 88.5279 151.722 89.647 151.722H83.8642C82.7451 151.722 81.8296 150.45 81.8296 148.894C81.8296 147.338 82.7451 146.066 83.8642 146.066Z" fill="#105DC4"/>
<path fill-rule="evenodd" clip-rule="evenodd" d="M94.5539 150.86H109.809C109.177 149.847 108.93 148.409 109.809 146.927H94.5532C94.0427 146.927 93.6239 147.813 93.6239 148.894C93.6239 149.974 94.0427 150.86 94.5539 150.86Z" fill="#E5E6E7"/>
<path fill-rule="evenodd" clip-rule="evenodd" d="M109.239 148.97C109.228 148.326 109.392 147.632 109.81 146.928H94.554C94.0435 146.928 93.6247 147.814 93.6247 148.894C93.6247 148.92 93.6247 148.946 93.6254 148.971H109.24L109.239 148.97Z" fill="#D7D7D8"/>
<path fill-rule="evenodd" clip-rule="evenodd" d="M110.286 151.722H94.5026C93.7676 151.722 92.99 150.432 92.99 148.877C92.99 147.322 93.7676 146.066 94.5026 146.066H110.286L110.278 146.914L94.5532 146.928C94.0427 146.928 93.6239 147.814 93.6239 148.895C93.6239 149.975 94.0427 150.861 94.5532 150.861L110.278 150.847L110.286 151.723V151.722Z" fill="#105DC4"/>
<path fill-rule="evenodd" clip-rule="evenodd" d="M95.6442 147.791H97.39C98.0601 148.142 97.8666 149.53 98.2644 150.44L97.2326 149.689L96.4846 150.391C95.9048 149.567 96.2362 148.16 95.6442 147.791Z" fill="#71BDF8"/>
<path fill-rule="evenodd" clip-rule="evenodd" d="M96.1229 142.193H97.8687C98.5388 142.543 98.3453 143.932 98.7431 144.841L97.7113 144.091L96.9633 144.793C96.3835 143.969 96.7149 142.562 96.1229 142.193Z" fill="#F48120"/>
</g>
<defs>
<clipPath id="clip0_484_802">
<rect width="187" height="133" fill="white" transform="translate(43 33)"/>
</clipPath>
</defs>
</svg>
