<svg width="56" height="56" viewBox="0 0 56 56" fill="none" xmlns="http://www.w3.org/2000/svg">
<circle cx="28" cy="28" r="28" fill="#B1AA00"/>
<g clip-path="url(#clip0_536_66)">
<path d="M38.4513 32.3007C37.7143 31.5333 36.8253 31.123 35.8832 31.123C34.9486 31.123 34.052 31.5257 33.2846 32.2931L30.8836 34.6865C30.6861 34.5801 30.4885 34.4813 30.2986 34.3825C30.0251 34.2458 29.7667 34.1166 29.5464 33.9798C27.2974 32.5514 25.2535 30.6899 23.2932 28.2813C22.3434 27.0808 21.7052 26.0703 21.2417 25.0445C21.8648 24.4747 22.4422 23.882 23.0045 23.3122C23.2172 23.0994 23.43 22.8791 23.6427 22.6664C25.2383 21.0708 25.2383 19.0041 23.6427 17.4085L21.5684 15.3342C21.3329 15.0987 21.0898 14.8556 20.8618 14.6124C20.4059 14.1413 19.9273 13.6551 19.4334 13.1992C18.6964 12.4698 17.815 12.0823 16.888 12.0823C15.9611 12.0823 15.0645 12.4698 14.3047 13.1992C14.2971 13.2068 14.2971 13.2068 14.2895 13.2144L11.7062 15.8205C10.7336 16.7931 10.179 17.9784 10.0574 19.3536C9.87503 21.5722 10.5285 23.6389 11.0299 24.9914C12.2608 28.3117 14.0995 31.3889 16.8424 34.6865C20.1704 38.6602 24.1746 41.7982 28.7486 44.0093C30.4961 44.8375 32.8287 45.8176 35.4349 45.9848C35.5944 45.9924 35.7616 46 35.9135 46C37.6687 46 39.1427 45.3693 40.2976 44.1156C40.3052 44.1004 40.3204 44.0928 40.328 44.0776C40.7231 43.599 41.179 43.1659 41.6577 42.7024C41.9844 42.3909 42.3187 42.0642 42.6454 41.7223C43.3976 40.9397 43.7927 40.0279 43.7927 39.0933C43.7927 38.1512 43.39 37.247 42.6226 36.4872L38.4513 32.3007ZM41.1714 40.3014C41.1638 40.309 41.1638 40.3014 41.1714 40.3014C40.8751 40.6205 40.5711 40.9093 40.2444 41.2284C39.7506 41.6995 39.2491 42.1933 38.778 42.748C38.0106 43.5686 37.1064 43.9561 35.9211 43.9561C35.8072 43.9561 35.6856 43.9561 35.5716 43.9485C33.315 43.8041 31.2179 42.9227 29.6452 42.1705C25.3447 40.0887 21.5684 37.133 18.4304 33.3872C15.8395 30.2644 14.1071 27.3771 12.9598 24.2771C12.2532 22.3852 11.9949 20.9112 12.1089 19.5208C12.1848 18.6318 12.5268 17.8948 13.1574 17.2641L15.7483 14.6732C16.1206 14.3237 16.5157 14.1337 16.9032 14.1337C17.3819 14.1337 17.7694 14.4225 18.0125 14.6656C18.0201 14.6732 18.0277 14.6808 18.0353 14.6884C18.4988 15.1215 18.9395 15.5698 19.403 16.0485C19.6385 16.2916 19.8817 16.5347 20.1248 16.7855L22.1991 18.8597C23.0045 19.6651 23.0045 20.4097 22.1991 21.2151C21.9787 21.4355 21.766 21.6558 21.5456 21.8686C20.9074 22.522 20.2996 23.1298 19.6385 23.7225C19.6233 23.7377 19.6081 23.7453 19.6005 23.7605C18.9471 24.4139 19.0687 25.0521 19.2054 25.4852C19.213 25.508 19.2206 25.5308 19.2282 25.5536C19.7677 26.8605 20.5275 28.0914 21.6824 29.5578L21.69 29.5654C23.7871 32.1487 25.9981 34.1622 28.4371 35.7046C28.7486 35.9021 29.0677 36.0617 29.3716 36.2137C29.6452 36.3504 29.9035 36.4796 30.1238 36.6164C30.1542 36.6316 30.1846 36.6544 30.215 36.6696C30.4733 36.7987 30.7165 36.8595 30.9672 36.8595C31.5979 36.8595 31.993 36.4644 32.1221 36.3352L34.7206 33.7367C34.979 33.4784 35.3893 33.1669 35.868 33.1669C36.339 33.1669 36.7265 33.4632 36.9621 33.7215C36.9697 33.7291 36.9697 33.7291 36.9773 33.7367L41.1638 37.9232C41.9464 38.6982 41.9464 39.496 41.1714 40.3014Z" fill="white"/>
<path d="M29.4552 18.5634C31.4458 18.8977 33.2542 19.8398 34.6978 21.2835C36.1414 22.7271 37.076 24.5354 37.4179 26.5261C37.5015 27.0276 37.9346 27.3771 38.4284 27.3771C38.4892 27.3771 38.5424 27.3695 38.6032 27.3619C39.1655 27.2707 39.5378 26.7389 39.4466 26.1766C39.0363 23.768 37.8966 21.5722 36.1566 19.8323C34.4167 18.0923 32.2208 16.9526 29.8123 16.5423C29.25 16.4511 28.7257 16.8234 28.627 17.3781C28.5282 17.9327 28.8929 18.4722 29.4552 18.5634Z" fill="white"/>
<path d="M45.9581 25.8804C45.2819 21.9142 43.4128 18.3051 40.5407 15.433C37.6687 12.561 34.0596 10.6919 30.0934 10.0156C29.5387 9.91686 29.0145 10.2968 28.9157 10.8514C28.8245 11.4137 29.1968 11.9379 29.7591 12.0367C33.2998 12.637 36.5289 14.3161 39.0971 16.8767C41.6652 19.4448 43.3368 22.674 43.937 26.2147C44.0206 26.7161 44.4537 27.0657 44.9476 27.0657C45.0084 27.0657 45.0616 27.0581 45.1223 27.0505C45.677 26.9669 46.0569 26.435 45.9581 25.8804Z" fill="white"/>
</g>
<defs>
<clipPath id="clip0_536_66">
<rect width="36" height="36" fill="white" transform="translate(10 10)"/>
</clipPath>
</defs>
</svg>
