<svg width="29" height="30" viewBox="0 0 29 30" fill="none" xmlns="http://www.w3.org/2000/svg">
<path d="M13.3839 26.587C13.307 26.5869 13.2309 26.5705 13.1604 26.5386C13.09 26.5067 13.0266 26.46 12.9744 26.4016L1.93283 14.0459C1.85923 13.9635 1.81043 13.8608 1.79242 13.7501C1.7744 13.6395 1.78795 13.5259 1.83141 13.4231C1.87486 13.3203 1.94634 13.2329 2.03708 13.1715C2.12783 13.1101 2.23391 13.0774 2.34235 13.0774H7.65716C7.73695 13.0774 7.81582 13.0951 7.88844 13.1293C7.96105 13.1636 8.02573 13.2135 8.0781 13.2758L11.7682 17.6676C12.167 16.7857 12.9391 15.3173 14.2938 13.528C16.2966 10.8828 20.0219 6.99257 26.3954 3.48073C26.5186 3.41286 26.6619 3.39525 26.797 3.43137C26.9322 3.46748 27.0493 3.5547 27.1253 3.67579C27.2013 3.79689 27.2306 3.94306 27.2075 4.08545C27.1844 4.22784 27.1105 4.35609 27.0005 4.44488C26.9762 4.46455 24.5188 6.46648 21.6906 10.1333C19.0877 13.5078 15.6277 19.0255 13.9251 26.1487C13.8952 26.2739 13.8256 26.385 13.7275 26.4645C13.6294 26.544 13.5084 26.5872 13.3838 26.5872L13.3839 26.587Z" fill="#B1AA00"/>
</svg>
