<svg width="56" height="56" viewBox="0 0 56 56" fill="none" xmlns="http://www.w3.org/2000/svg">
<circle cx="28" cy="28" r="28" fill="#B1AA00"/>
<g clip-path="url(#clip0_536_67)">
<path d="M34.6797 32.6758C34.2699 32.6758 33.9375 33.0081 33.9375 33.418V38.5391C33.9375 40.5853 32.2728 42.25 30.2266 42.25H22.2133C21.8036 42.25 21.4714 42.582 21.4711 42.9917L21.4701 44.4673L19.6986 42.6959C19.584 42.4327 19.3215 42.25 19.018 42.25H14.1953C12.1491 42.25 10.4844 40.5853 10.4844 38.5391V27.1094C10.4844 25.0632 12.1491 23.3984 14.1953 23.3984H21.6914C22.1012 23.3984 22.4336 23.0662 22.4336 22.6562C22.4336 22.2463 22.1012 21.9141 21.6914 21.9141H14.1953C11.3306 21.9141 9 24.2447 9 27.1094V38.5391C9 41.4038 11.3306 43.7344 14.1953 43.7344H18.6379L21.6861 46.7826C21.8281 46.9246 22.0179 47 22.2111 47C22.3066 47 22.403 46.9815 22.4947 46.9436C22.772 46.8289 22.9529 46.5584 22.9531 46.2583L22.9549 43.7344H30.2266C33.0913 43.7344 35.4219 41.4038 35.4219 38.5391V33.418C35.4219 33.0081 35.0895 32.6758 34.6797 32.6758Z" fill="white"/>
<path d="M36.2127 9H34.3343C28.3861 9 23.5469 13.8392 23.5469 19.7874C23.5469 25.7356 28.3861 30.5747 34.3342 30.5747H36.2126C37.141 30.5747 38.0599 30.4568 38.9505 30.2237L41.7253 32.997C41.8673 33.1388 42.057 33.2142 42.2501 33.2142C42.3458 33.2142 42.4423 33.1958 42.5341 33.1577C42.8114 33.0428 42.9922 32.7722 42.9922 32.4721V28.178C44.167 27.2266 45.1429 26.0248 45.8278 24.6822C46.6057 23.1573 47 21.5105 47 19.7874C47 13.8392 42.1608 9 36.2127 9ZM41.8034 27.2233C41.6174 27.3635 41.5078 27.583 41.5078 27.8162V30.681L39.6916 28.8658C39.5503 28.7246 39.3607 28.6485 39.1669 28.6485C39.0941 28.6485 39.0207 28.6593 38.949 28.6813C38.0655 28.9528 37.1449 29.0904 36.2127 29.0904H34.3343C29.2045 29.0904 25.0312 24.9171 25.0312 19.7874C25.0312 14.6577 29.2046 10.4844 34.3343 10.4844H36.2127C41.3424 10.4844 45.5156 14.6577 45.5156 19.7874C45.5156 22.7362 44.1626 25.4465 41.8034 27.2233Z" fill="white"/>
<path d="M38.6157 17.121C38.5086 15.5673 37.2561 14.3148 35.7023 14.2077C34.8215 14.1472 33.9809 14.4443 33.3375 15.0449C32.7029 15.6373 32.339 16.4746 32.339 17.3423C32.339 17.7522 32.6713 18.0845 33.0812 18.0845C33.491 18.0845 33.8234 17.7522 33.8234 17.3423C33.8234 16.8778 34.0105 16.4472 34.3503 16.1301C34.6898 15.8132 35.1335 15.6564 35.6003 15.6886C36.4188 15.745 37.0785 16.4048 37.1349 17.2232C37.1919 18.0497 36.6496 18.7802 35.8455 18.9601C35.194 19.1059 34.7391 19.672 34.7391 20.3368V22.1199C34.7391 22.5298 35.0714 22.8621 35.4813 22.8621C35.8912 22.8621 36.2235 22.5298 36.2234 22.1199V20.3961C37.7189 20.0348 38.7222 18.6663 38.6157 17.121Z" fill="white"/>
<path d="M36.0059 24.5309C35.8679 24.3929 35.6764 24.3135 35.4812 24.3135C35.286 24.3135 35.0945 24.3929 34.9565 24.5309C34.8184 24.669 34.739 24.8605 34.739 25.0557C34.739 25.2516 34.8185 25.4431 34.9565 25.5811C35.0945 25.7192 35.286 25.7979 35.4812 25.7979C35.6764 25.7979 35.8679 25.7192 36.0059 25.5811C36.144 25.4423 36.2234 25.2516 36.2234 25.0557C36.2234 24.8605 36.1439 24.669 36.0059 24.5309Z" fill="white"/>
<path d="M29.4102 32.0078H13.75C13.3402 32.0078 13.0078 32.3401 13.0078 32.75C13.0078 33.1599 13.3402 33.4922 13.75 33.4922H29.4102C29.8201 33.4922 30.1523 33.1599 30.1523 32.75C30.1523 32.3401 29.82 32.0078 29.4102 32.0078Z" fill="white"/>
<path d="M29.9348 36.3815C29.7968 36.2435 29.6054 36.1641 29.4102 36.1641C29.215 36.1641 29.0235 36.2435 28.8854 36.3815C28.7473 36.5196 28.668 36.7111 28.668 36.9062C28.668 37.1014 28.7474 37.2929 28.8854 37.431C29.0235 37.569 29.215 37.6484 29.4102 37.6484C29.6054 37.6484 29.7968 37.569 29.9348 37.431C30.0729 37.2929 30.1523 37.1022 30.1523 36.9062C30.1523 36.7111 30.0729 36.5196 29.9348 36.3815Z" fill="white"/>
<path d="M26.4909 36.1641H13.75C13.3402 36.1641 13.0078 36.4963 13.0078 36.9062C13.0078 37.3162 13.3402 37.6484 13.75 37.6484H26.4909C26.9008 37.6484 27.2331 37.3162 27.2331 36.9062C27.2331 36.4963 26.9007 36.1641 26.4909 36.1641Z" fill="white"/>
<path d="M24.5859 27.8516H13.75C13.3402 27.8516 13.0078 28.1838 13.0078 28.5938C13.0078 29.0037 13.3402 29.3359 13.75 29.3359H24.5859C24.9958 29.3359 25.3281 29.0037 25.3281 28.5938C25.3281 28.1838 24.9958 27.8516 24.5859 27.8516Z" fill="white"/>
</g>
<defs>
<clipPath id="clip0_536_67">
<rect width="38" height="38" fill="white" transform="translate(9 9)"/>
</clipPath>
</defs>
</svg>
