<svg width="256" height="167" viewBox="0 0 256 167" fill="none" xmlns="http://www.w3.org/2000/svg">
<path fill-rule="evenodd" clip-rule="evenodd" d="M127.907 0L137.185 69.5845L195.523 24.9734L157.949 74.1082L218.243 66.2717L144.751 96.8556L140.7 81.7376L137.866 78.9041H117.387L117.416 78.6867L114.365 81.7376L110.314 96.8556L36.8213 66.2717L97.1154 74.1082L59.5417 24.9734L118.56 70.105L127.907 0Z" fill="white"/>
<path d="M110.643 76.5044H128.001V104.099L119.233 102.575L110.643 104.099V76.5044Z" fill="#42A227"/>
<path d="M128 76.5044H145.359V104.099L136.767 101.699L128 104.099V76.5044Z" fill="#42A227"/>
<mask id="path-4-outside-1_442_4904" maskUnits="userSpaceOnUse" x="106.286" y="71.644" width="43" height="38" fill="black">
<rect fill="white" x="106.286" y="71.644" width="43" height="38"/>
<path fill-rule="evenodd" clip-rule="evenodd" d="M112.124 75.3426L109.455 76.7533C108.999 76.995 108.711 77.4774 108.711 78.004V105.551C108.711 106.043 108.962 106.499 109.372 106.754C109.592 106.891 109.84 106.959 110.089 106.959C110.306 106.959 110.523 106.907 110.722 106.802L113.385 105.394C116.927 103.543 121.162 103.543 124.708 105.397L127.363 106.8C127.562 106.906 127.78 106.959 127.999 106.959C128.216 106.959 128.433 106.907 128.632 106.802L131.295 105.394C134.836 103.542 139.071 103.543 142.617 105.397L145.276 106.802C145.702 107.027 146.214 107.009 146.625 106.754C147.035 106.499 147.286 106.043 147.286 105.551V78.0042C147.286 77.4777 146.999 76.9957 146.541 76.7535L143.878 75.3457C139.539 73.0776 134.366 73.0781 130.035 75.3429L127.999 76.419L125.968 75.3455C121.631 73.0774 116.457 73.0774 112.124 75.3426ZM112.125 102.89L111.466 103.238V78.8604L113.385 77.8463C116.927 75.9955 121.162 75.995 124.708 77.8491L126.621 78.8604V103.238L125.968 102.893C123.798 101.758 121.42 101.191 119.042 101.191C116.665 101.191 114.29 101.757 112.125 102.89ZM130.035 102.89L129.377 103.238V78.8607L131.295 77.8465C134.836 75.9948 139.071 75.9952 142.618 77.8494L144.531 78.8607V103.238L143.878 102.893C141.708 101.759 139.33 101.192 136.952 101.192C134.576 101.192 132.201 101.758 130.035 102.89Z"/>
</mask>
<path fill-rule="evenodd" clip-rule="evenodd" d="M112.124 75.3426L109.455 76.7533C108.999 76.995 108.711 77.4774 108.711 78.004V105.551C108.711 106.043 108.962 106.499 109.372 106.754C109.592 106.891 109.84 106.959 110.089 106.959C110.306 106.959 110.523 106.907 110.722 106.802L113.385 105.394C116.927 103.543 121.162 103.543 124.708 105.397L127.363 106.8C127.562 106.906 127.78 106.959 127.999 106.959C128.216 106.959 128.433 106.907 128.632 106.802L131.295 105.394C134.836 103.542 139.071 103.543 142.617 105.397L145.276 106.802C145.702 107.027 146.214 107.009 146.625 106.754C147.035 106.499 147.286 106.043 147.286 105.551V78.0042C147.286 77.4777 146.999 76.9957 146.541 76.7535L143.878 75.3457C139.539 73.0776 134.366 73.0781 130.035 75.3429L127.999 76.419L125.968 75.3455C121.631 73.0774 116.457 73.0774 112.124 75.3426ZM112.125 102.89L111.466 103.238V78.8604L113.385 77.8463C116.927 75.9955 121.162 75.995 124.708 77.8491L126.621 78.8604V103.238L125.968 102.893C123.798 101.758 121.42 101.191 119.042 101.191C116.665 101.191 114.29 101.757 112.125 102.89ZM130.035 102.89L129.377 103.238V78.8607L131.295 77.8465C134.836 75.9948 139.071 75.9952 142.618 77.8494L144.531 78.8607V103.238L143.878 102.893C141.708 101.759 139.33 101.192 136.952 101.192C134.576 101.192 132.201 101.758 130.035 102.89Z" fill="white"/>
<path d="M109.455 76.7533L108.636 75.2034L108.636 75.2031L109.455 76.7533ZM112.124 75.3426L111.305 73.7924L111.312 73.7888L112.124 75.3426ZM109.372 106.754L110.298 105.265L110.299 105.265L109.372 106.754ZM110.722 106.802L111.541 108.352L111.541 108.352L110.722 106.802ZM113.385 105.394L112.566 103.844L112.573 103.84L113.385 105.394ZM124.708 105.397L125.52 103.843L125.527 103.847L124.708 105.397ZM127.363 106.8L128.182 105.25L128.186 105.252L127.363 106.8ZM128.632 106.802L129.451 108.352L129.451 108.352L128.632 106.802ZM131.295 105.394L130.476 103.844L130.482 103.84L131.295 105.394ZM142.617 105.397L143.43 103.843L143.437 103.847L142.617 105.397ZM145.276 106.802L144.457 108.353L144.456 108.352L145.276 106.802ZM146.625 106.754L145.698 105.265L145.7 105.264L146.625 106.754ZM146.541 76.7535L147.361 75.2033L147.361 75.2036L146.541 76.7535ZM143.878 75.3457L144.69 73.7918L144.697 73.7955L143.878 75.3457ZM130.035 75.3429L129.215 73.7927L129.222 73.789L130.035 75.3429ZM127.999 76.419L128.818 77.9692L127.999 78.4023L127.179 77.9692L127.999 76.419ZM125.968 75.3455L126.78 73.7917L126.787 73.7953L125.968 75.3455ZM111.466 103.238L112.285 104.788L109.713 106.146V103.238H111.466ZM112.125 102.89L111.306 101.339L111.312 101.336L112.125 102.89ZM111.466 78.8604H109.713V77.804L110.647 77.3102L111.466 78.8604ZM113.385 77.8463L112.566 76.2961L112.573 76.2922L113.385 77.8463ZM124.708 77.8491L125.52 76.2953L125.527 76.299L124.708 77.8491ZM126.621 78.8604L127.44 77.3103L128.374 77.804V78.8604H126.621ZM126.621 103.238H128.374V106.147L125.802 104.788L126.621 103.238ZM125.968 102.893L126.78 101.339L126.787 101.342L125.968 102.893ZM129.377 103.238L130.195 104.788L127.623 106.147V103.238H129.377ZM130.035 102.89L129.216 101.34L129.223 101.336L130.035 102.89ZM129.377 78.8607H127.623V77.8042L128.557 77.3105L129.377 78.8607ZM131.295 77.8465L130.476 76.2963L130.483 76.2927L131.295 77.8465ZM142.618 77.8494L143.43 76.2955L143.437 76.2992L142.618 77.8494ZM144.531 78.8607L145.35 77.3105L146.284 77.8042V78.8607H144.531ZM144.531 103.238H146.284V106.148L143.711 104.788L144.531 103.238ZM143.878 102.893L144.691 101.339L144.698 101.343L143.878 102.893ZM108.636 75.2031L111.305 73.7924L112.944 76.8929L110.275 78.3035L108.636 75.2031ZM106.958 78.004C106.958 76.8417 107.592 75.7553 108.636 75.2034L110.275 78.3032C110.405 78.2346 110.465 78.1132 110.465 78.004H106.958ZM106.958 105.551V78.004H110.465V105.551H106.958ZM108.446 108.243C107.511 107.661 106.958 106.636 106.958 105.551H110.465C110.465 105.449 110.413 105.336 110.298 105.265L108.446 108.243ZM110.089 108.713C109.518 108.713 108.948 108.555 108.446 108.243L110.299 105.265C110.236 105.226 110.163 105.206 110.089 105.206V108.713ZM111.541 108.352C111.086 108.592 110.588 108.713 110.089 108.713V105.206C110.024 105.206 109.959 105.222 109.902 105.252L111.541 108.352ZM114.204 106.944L111.541 108.352L109.902 105.252L112.566 103.844L114.204 106.944ZM123.895 106.951C120.858 105.362 117.23 105.363 114.197 106.948L112.573 103.84C116.624 101.723 121.465 101.723 125.52 103.843L123.895 106.951ZM126.543 108.351L123.888 106.947L125.527 103.847L128.182 105.25L126.543 108.351ZM127.999 108.713C127.496 108.713 126.995 108.591 126.539 108.348L128.186 105.252C128.129 105.222 128.064 105.206 127.999 105.206V108.713ZM129.451 108.352C128.996 108.593 128.497 108.713 127.999 108.713V105.206C127.934 105.206 127.869 105.222 127.812 105.252L129.451 108.352ZM132.115 106.944L129.451 108.352L127.812 105.252L130.476 103.844L132.115 106.944ZM141.805 106.951C138.767 105.362 135.139 105.362 132.108 106.948L130.482 103.84C134.533 101.722 139.375 101.723 143.43 103.843L141.805 106.951ZM144.456 108.352L141.798 106.947L143.437 103.847L146.095 105.252L144.456 108.352ZM147.551 108.242C146.611 108.827 145.435 108.869 144.457 108.353L146.094 105.252C145.969 105.186 145.816 105.192 145.698 105.265L147.551 108.242ZM149.04 105.551C149.04 106.636 148.486 107.662 147.55 108.243L145.7 105.264C145.584 105.336 145.533 105.449 145.533 105.551H149.04ZM149.04 78.0042V105.551H145.533V78.0042H149.04ZM147.361 75.2036C148.405 75.7559 149.04 76.8416 149.04 78.0042H145.533C145.533 78.1137 145.593 78.2355 145.721 78.3035L147.361 75.2036ZM144.697 73.7955L147.361 75.2033L145.722 78.3038L143.058 76.8959L144.697 73.7955ZM129.222 73.789C134.063 71.258 139.843 71.2578 144.69 73.7919L143.065 76.8996C139.236 74.8974 134.67 74.8982 130.847 76.8967L129.222 73.789ZM127.179 74.8688L129.215 73.7927L130.854 76.8931L128.818 77.9692L127.179 74.8688ZM126.787 73.7953L128.818 74.8688L127.179 77.9692L125.148 76.8957L126.787 73.7953ZM111.312 73.7888C116.154 71.2573 121.935 71.2575 126.78 73.7917L125.155 76.8993C121.327 74.8972 116.76 74.8975 112.937 76.8965L111.312 73.7888ZM110.648 101.687L111.306 101.339L112.944 104.44L112.285 104.788L110.648 101.687ZM113.22 78.8604V103.238H109.713V78.8604H113.22ZM114.204 79.3965L112.286 80.4106L110.647 77.3102L112.566 76.2961L114.204 79.3965ZM123.895 79.403C120.858 77.8148 117.23 77.8155 114.197 79.4003L112.573 76.2922C116.624 74.1755 121.465 74.1752 125.52 76.2953L123.895 79.403ZM125.801 80.4106L123.888 79.3993L125.527 76.299L127.44 77.3103L125.801 80.4106ZM124.867 103.238V78.8604H128.374V103.238H124.867ZM126.787 101.342L127.44 101.687L125.802 104.788L125.149 104.443L126.787 101.342ZM119.042 99.438C121.698 99.438 124.356 100.071 126.78 101.339L125.155 104.446C123.24 103.445 121.141 102.945 119.042 102.945V99.438ZM111.312 101.336C113.732 100.07 116.387 99.438 119.042 99.438V102.945C116.944 102.945 114.848 103.444 112.938 104.444L111.312 101.336ZM128.558 101.687L129.216 101.34L130.854 104.441L130.195 104.788L128.558 101.687ZM131.13 78.8607V103.238H127.623V78.8607H131.13ZM132.115 79.3967L130.196 80.4109L128.557 77.3105L130.476 76.2963L132.115 79.3967ZM141.805 79.4033C138.767 77.8149 135.139 77.815 132.108 79.4003L130.483 76.2927C134.533 74.1745 139.375 74.1756 143.43 76.2955L141.805 79.4033ZM143.711 80.4108L141.798 79.3995L143.437 76.2992L145.35 77.3105L143.711 80.4108ZM142.777 103.238V78.8607H146.284V103.238H142.777ZM144.698 101.343L145.35 101.688L143.711 104.788L143.059 104.443L144.698 101.343ZM136.952 99.4383C139.608 99.4383 142.266 100.072 144.691 101.339L143.066 104.447C141.151 103.446 139.051 102.945 136.952 102.945V99.4383ZM129.223 101.336C131.643 100.071 134.297 99.4383 136.952 99.4383V102.945C134.854 102.945 132.758 103.445 130.848 104.444L129.223 101.336Z" fill="#42A227" mask="url(#path-4-outside-1_442_4904)"/>
<g clip-path="url(#clip0_442_4904)">
<path d="M132.476 85.2428C132.934 84.5266 133.917 84.2291 135.242 84.3998C135.289 84.4053 135.338 84.4136 135.385 84.4191C135.404 84.3751 135.424 84.331 135.446 84.287C136.016 83.0777 136.795 82.4111 137.644 82.4111C138.492 82.4111 139.275 83.0777 139.842 84.287C139.861 84.331 139.883 84.3751 139.903 84.4191C139.952 84.4109 139.999 84.4053 140.046 84.3998C141.373 84.2263 142.354 84.5266 142.811 85.2428C143.269 85.9589 143.128 86.9753 142.417 88.1046C142.324 88.2534 142.222 88.4021 142.112 88.5481C142.222 88.6968 142.324 88.8428 142.417 88.9915C143.128 90.1209 143.269 91.14 142.811 91.8535C142.439 92.4374 141.718 92.7432 140.745 92.7432C140.512 92.7419 140.28 92.7263 140.049 92.6963C140.002 92.6908 139.952 92.6826 139.905 92.6771C139.886 92.7212 139.867 92.7652 139.845 92.8093C139.275 94.0185 138.495 94.6851 137.647 94.6851C136.798 94.6851 136.016 94.0185 135.449 92.8093C135.429 92.7652 135.407 92.7212 135.388 92.6771C135.338 92.6854 135.292 92.6908 135.245 92.6963C135.014 92.7276 134.781 92.7432 134.548 92.7432C133.576 92.7432 132.854 92.4374 132.482 91.8535C132.025 91.1374 132.165 90.1209 132.876 88.9915C132.97 88.8428 133.071 88.6941 133.182 88.5481C133.071 88.3993 132.97 88.2534 132.876 88.1046C132.157 86.9726 132.016 85.9561 132.476 85.2428ZM139.343 84.5211C138.878 83.5295 138.258 82.962 137.644 82.962C137.03 82.962 136.41 83.5295 135.944 84.5211C135.944 84.5232 135.943 84.5251 135.942 84.5266C136.527 84.6673 137.097 84.8619 137.647 85.1077C138.195 84.8607 138.766 84.666 139.352 84.5266C139.346 84.5266 139.346 84.5238 139.343 84.5211ZM135.162 88.5481C135.162 88.9889 135.186 89.4294 135.234 89.8675C135.577 90.1446 135.936 90.402 136.308 90.6387C136.738 90.9146 137.185 91.1622 137.647 91.3798C138.108 91.1605 138.555 90.913 138.985 90.6387C139.357 90.4014 139.716 90.1439 140.06 89.8675C140.155 88.9905 140.155 88.1057 140.06 87.2287C139.317 86.6321 138.507 86.1245 137.647 85.7165C137.186 85.9357 136.739 86.1832 136.308 86.4574C135.936 86.6948 135.577 86.9523 135.234 87.2287C135.186 87.6669 135.162 88.1073 135.162 88.5481ZM134.636 87.7465C134.366 87.9978 134.112 88.2655 133.876 88.5481C134.112 88.8307 134.366 89.0984 134.636 89.3496C134.619 89.0853 134.611 88.8181 134.611 88.5481C134.611 88.2782 134.619 88.011 134.636 87.7465ZM135.347 90.6498C135.434 91.1267 135.56 91.5956 135.724 92.0518C136.152 91.9552 136.572 91.8263 136.98 91.6662C136.655 91.4954 136.33 91.3081 136.008 91.1043C135.782 90.9583 135.561 90.8068 135.347 90.6498ZM138.308 91.6662C138.715 91.8283 139.135 91.9573 139.564 92.0518C139.728 91.5956 139.854 91.1267 139.941 90.6498C139.729 90.8068 139.509 90.9583 139.28 91.1015C138.958 91.3081 138.633 91.4954 138.308 91.6662ZM140.652 89.3496C140.921 89.0984 141.175 88.8307 141.412 88.5481C141.175 88.2655 140.921 87.9978 140.652 87.7465C140.668 88.011 140.677 88.2782 140.677 88.5481C140.677 88.8181 140.668 89.0853 140.652 89.3496ZM139.941 86.4464C139.854 85.9695 139.728 85.5006 139.564 85.0445C139.136 85.141 138.716 85.2699 138.308 85.4301C138.633 85.6008 138.958 85.7882 139.28 85.992C139.506 86.138 139.726 86.2895 139.941 86.4464ZM136.01 85.992C136.33 85.7882 136.655 85.598 136.983 85.4301C136.575 85.2679 136.155 85.1389 135.727 85.0445C135.563 85.5006 135.436 85.9695 135.349 86.4464C135.561 86.2895 135.782 86.138 136.01 85.992ZM141.952 87.8099C142.536 86.8844 142.679 86.0553 142.349 85.5375C142.084 85.1243 141.511 84.9011 140.737 84.9011C140.53 84.902 140.323 84.9159 140.117 84.9425H140.112C140.335 85.5904 140.49 86.2597 140.575 86.9395C140.999 87.2936 141.394 87.6814 141.756 88.0991C141.825 88.0055 141.891 87.9091 141.952 87.8099ZM140.12 92.151C140.326 92.1777 140.533 92.1915 140.74 92.1923C141.514 92.1923 142.087 91.972 142.351 91.556C142.682 91.0381 142.539 90.2091 141.955 89.2836C141.894 89.1872 141.828 89.088 141.759 88.9915C141.397 89.4093 141.002 89.7971 140.577 90.1512C140.493 90.8311 140.337 91.5004 140.115 92.1482C140.115 92.151 140.117 92.151 140.12 92.151ZM135.944 92.5752C136.41 93.5668 137.03 94.1343 137.644 94.1343C138.258 94.1343 138.878 93.5668 139.343 92.5752C139.344 92.5731 139.345 92.5712 139.346 92.5697C138.761 92.4289 138.19 92.2344 137.641 91.9884C137.092 92.2356 136.522 92.4302 135.936 92.5697C135.942 92.5697 135.942 92.5724 135.944 92.5752ZM133.336 89.2864C132.752 90.2118 132.609 91.0409 132.939 91.5588C133.27 92.0766 134.082 92.2942 135.168 92.151H135.173C134.95 91.5031 134.795 90.8338 134.71 90.154C134.286 89.7999 133.891 89.412 133.529 88.9943C133.463 89.0908 133.396 89.1872 133.336 89.2864ZM134.713 86.9423C134.798 86.2624 134.953 85.5931 135.176 84.9453H135.17C134.085 84.8047 133.273 85.0196 132.942 85.5375C132.611 86.0553 132.755 86.8844 133.339 87.8099C133.399 87.9063 133.465 88.0055 133.534 88.1019C133.895 87.6835 134.289 87.2956 134.713 86.9423Z" fill="white"/>
<path d="M137.644 87.4575C138.246 87.4575 138.734 87.9459 138.734 88.5483C138.734 89.1508 138.246 89.639 137.644 89.639C137.041 89.639 136.553 89.1508 136.553 88.5483C136.553 87.946 137.041 87.4579 137.644 87.4575ZM137.644 89.0882C137.942 89.0882 138.183 88.8465 138.183 88.5483C138.183 88.2502 137.942 88.0084 137.644 88.0084C137.345 88.0084 137.104 88.2502 137.104 88.5483C137.104 88.8463 137.346 89.0877 137.644 89.0882Z" fill="white"/>
</g>
<g clip-path="url(#clip1_442_4904)">
<path d="M124.486 90.5377C124.486 90.5247 124.486 90.5138 124.486 90.5051H123.665C123.665 90.5161 123.665 90.5299 123.665 90.5462H123.665V90.6777C123.654 91.2257 123.521 91.6317 123.27 91.8857C123.056 92.1028 122.753 92.2084 122.344 92.2084C122.042 92.2084 121.816 92.1202 121.655 91.9386C121.299 91.5377 121.304 90.7527 121.336 90.4841L121.327 90.4831L121.644 86.6266H124.486V84.1641H116.598C116.147 84.1641 115.711 84.2982 115.338 84.5519C114.965 84.8057 114.68 85.1616 114.515 85.5813L114.51 85.5941L114.001 87.1889C113.996 87.2002 113.991 87.2116 113.987 87.223L113.989 87.224L113.978 87.2611L114.75 87.5245C114.752 87.5195 114.754 87.5146 114.756 87.5096L114.76 87.5107L114.771 87.4747C114.998 86.9577 115.502 86.6266 116.07 86.6266H117.307L117.155 88.2481C116.792 90.2214 116.076 91.2314 115.553 91.9694C115.178 92.4984 114.882 92.9162 114.882 93.4533C114.882 94.1323 115.434 94.6846 116.113 94.6846C116.857 94.6846 117.401 94.171 117.499 93.3761L117.499 93.3702L118.132 86.6266H120.82L120.376 92.0363C120.37 92.0957 120.341 92.3956 120.376 92.7651C120.43 93.3371 120.605 93.7938 120.895 94.1225C121.212 94.4813 121.664 94.6709 122.201 94.6709C122.719 94.6709 123.166 94.5181 123.529 94.2167C123.816 93.9786 124.044 93.6511 124.207 93.2435C124.465 92.5949 124.486 91.926 124.486 91.7364V90.683C124.486 90.6353 124.486 90.5868 124.486 90.5377ZM116.683 93.2813C116.622 93.7626 116.339 93.8638 116.113 93.8638C115.887 93.8638 115.702 93.6797 115.702 93.4534C115.702 93.1777 115.921 92.87 116.222 92.4441C116.409 92.1815 116.628 91.8722 116.851 91.4901L116.683 93.2813ZM116.07 85.8058C115.789 85.8058 115.513 85.8581 115.255 85.9591L115.283 85.8708C115.501 85.3322 116.016 84.9849 116.598 84.9849H123.665V85.8058H116.07ZM123.444 92.9393C123.2 93.5522 122.793 93.8501 122.201 93.8501C121.898 93.8501 121.673 93.7619 121.511 93.5803C121.296 93.3372 121.212 92.9528 121.187 92.6282C121.491 92.8913 121.887 93.0292 122.344 93.0292C122.802 93.0292 123.194 92.9291 123.517 92.7309C123.496 92.8003 123.472 92.8702 123.444 92.9393Z" fill="white"/>
</g>
<path d="M59.6253 42.4485C61.4312 42.5124 62.8496 42.5444 63.8804 42.5444C64.8553 42.5444 66.2457 42.5124 68.0516 42.4485C68.0836 42.5764 68.0996 42.6642 68.0996 42.7122C68.0996 42.8001 68.0836 42.9 68.0516 43.0119C67.6841 43.0438 67.3844 43.0798 67.1527 43.1197C66.9209 43.1517 66.6373 43.2076 66.3016 43.2875C65.966 43.3674 65.7103 43.4833 65.5345 43.6351C65.3587 43.779 65.2708 43.9548 65.2708 44.1625C65.2628 44.6819 65.2508 45.9006 65.2349 47.8184C65.2269 49.7362 65.2149 51.5301 65.1989 53.2002C65.1829 54.5347 65.1589 55.6294 65.127 56.4845C65.103 57.3315 65.0471 58.2744 64.9592 59.3132C64.8793 60.344 64.7634 61.1711 64.6116 61.7944C64.4677 62.4257 64.268 63.0689 64.0123 63.7242C63.7565 64.3874 63.4449 64.8948 63.0773 65.2464C62.7177 65.598 62.2742 65.8857 61.7468 66.1095C61.2194 66.3332 60.6121 66.4451 59.9249 66.4451C58.7662 66.4451 57.8673 66.1614 57.228 65.594C56.5887 65.0267 56.2691 64.3555 56.2691 63.5803C56.2691 62.9171 56.4449 62.4017 56.7965 62.0341C57.1481 61.6745 57.6116 61.4947 58.1869 61.4947C58.6584 61.4947 59.0619 61.6226 59.3975 61.8783C59.7331 62.134 59.901 62.5136 59.901 63.017C59.901 63.2887 59.833 63.5284 59.6972 63.7362C59.5613 63.9519 59.4095 64.1077 59.2417 64.2036C59.0819 64.3075 58.9341 64.3994 58.7982 64.4793C58.6624 64.5672 58.5944 64.6271 58.5944 64.6591C58.5944 64.9628 58.7103 65.2105 58.942 65.4023C59.1818 65.594 59.5094 65.6899 59.9249 65.6899C60.3724 65.6899 60.748 65.606 61.0516 65.4382C61.3633 65.2704 61.615 65.0347 61.8068 64.731C62.0065 64.4274 62.1584 64.0039 62.2623 63.4605C62.3661 62.9171 62.4341 62.3378 62.466 61.7225C62.506 61.1072 62.526 60.3361 62.526 59.4091C62.526 51.5141 62.486 46.4319 62.4061 44.1625C62.3981 43.9548 62.3062 43.779 62.1304 43.6351C61.9546 43.4833 61.6989 43.3674 61.3633 43.2875C61.0277 43.2076 60.744 43.1517 60.5123 43.1197C60.2885 43.0798 59.9928 43.0438 59.6253 43.0119C59.5933 42.868 59.5773 42.7681 59.5773 42.7122C59.5773 42.6323 59.5933 42.5444 59.6253 42.4485Z" fill="white"/>
<path d="M142.962 17.9006C144.752 17.9646 146.143 17.9965 147.134 17.9965C148.124 17.9965 149.515 17.9646 151.305 17.9006C151.337 18.0285 151.353 18.1164 151.353 18.1643C151.353 18.2203 151.337 18.3202 151.305 18.464C150.937 18.496 150.638 18.5319 150.406 18.5719C150.182 18.6038 149.902 18.6598 149.567 18.7397C149.239 18.8196 148.987 18.9355 148.812 19.0873C148.636 19.2311 148.544 19.4069 148.536 19.6147C148.432 22.3316 148.38 24.8607 148.38 27.202C148.38 28.4086 148.424 30.9377 148.512 34.7893H152.216C153.39 34.7094 154.441 34.5376 155.368 34.2739C156.295 34.0102 157.066 33.6746 157.681 33.2671C158.305 32.8516 158.816 32.424 159.216 31.9845C159.623 31.5371 159.975 31.0376 160.27 30.4863C160.478 30.5662 160.614 30.674 160.678 30.8099C160.35 31.4172 160.095 31.9086 159.911 32.2842C159.735 32.6598 159.539 33.1552 159.324 33.7705C159.116 34.3778 158.98 34.9611 158.916 35.5205H148.512C146.346 35.5205 144.489 35.5445 142.938 35.5924C142.906 35.4965 142.89 35.4166 142.89 35.3527C142.89 35.2968 142.906 35.1889 142.938 35.0291C143.306 34.9971 143.602 34.9651 143.825 34.9332C144.057 34.8932 144.337 34.8333 144.664 34.7534C145 34.6735 145.256 34.5616 145.431 34.4178C145.607 34.2659 145.699 34.0861 145.707 33.8784C145.803 31.3772 145.851 28.8561 145.851 26.315C145.851 23.726 145.811 21.4925 145.731 19.6147C145.723 19.4069 145.631 19.2311 145.455 19.0873C145.28 18.9355 145.024 18.8196 144.688 18.7397C144.361 18.6598 144.081 18.6038 143.849 18.5719C143.626 18.5319 143.33 18.496 142.962 18.464C142.93 18.3202 142.914 18.2203 142.914 18.1643C142.914 18.0844 142.93 17.9965 142.962 17.9006Z" fill="white"/>
<path d="M189.378 42.4485C191.184 42.5124 192.603 42.5444 193.633 42.5444C194.608 42.5444 195.999 42.5124 197.805 42.4485C197.837 42.5764 197.853 42.6642 197.853 42.7122C197.853 42.8001 197.837 42.9 197.805 43.0119C197.437 43.0438 197.137 43.0798 196.906 43.1197C196.674 43.1517 196.39 43.2076 196.055 43.2875C195.719 43.3674 195.463 43.4833 195.287 43.6351C195.112 43.779 195.024 43.9548 195.024 44.1625C195.016 44.6819 195.004 45.9006 194.988 47.8184C194.98 49.7362 194.968 51.5301 194.952 53.2002C194.936 54.5347 194.912 55.6294 194.88 56.4845C194.856 57.3315 194.8 58.2744 194.712 59.3132C194.632 60.344 194.516 61.1711 194.364 61.7944C194.221 62.4257 194.021 63.0689 193.765 63.7242C193.509 64.3874 193.198 64.8948 192.83 65.2464C192.471 65.598 192.027 65.8857 191.5 66.1095C190.972 66.3332 190.365 66.4451 189.678 66.4451C188.519 66.4451 187.62 66.1614 186.981 65.594C186.342 65.0267 186.022 64.3555 186.022 63.5803C186.022 62.9171 186.198 62.4017 186.549 62.0341C186.901 61.6745 187.364 61.4947 187.94 61.4947C188.411 61.4947 188.815 61.6226 189.15 61.8783C189.486 62.134 189.654 62.5136 189.654 63.017C189.654 63.2887 189.586 63.5284 189.45 63.7362C189.314 63.9519 189.162 64.1077 188.995 64.2036C188.835 64.3075 188.687 64.3994 188.551 64.4793C188.415 64.5672 188.347 64.6271 188.347 64.6591C188.347 64.9628 188.463 65.2105 188.695 65.4023C188.935 65.594 189.262 65.6899 189.678 65.6899C190.125 65.6899 190.501 65.606 190.805 65.4382C191.116 65.2704 191.368 65.0347 191.56 64.731C191.759 64.4274 191.911 64.0039 192.015 63.4605C192.119 62.9171 192.187 62.3378 192.219 61.7225C192.259 61.1072 192.279 60.3361 192.279 59.4091C192.279 51.5141 192.239 46.4319 192.159 44.1625C192.151 43.9548 192.059 43.779 191.883 43.6351C191.708 43.4833 191.452 43.3674 191.116 43.2875C190.781 43.2076 190.497 43.1517 190.265 43.1197C190.041 43.0798 189.746 43.0438 189.378 43.0119C189.346 42.868 189.33 42.7681 189.33 42.7122C189.33 42.6323 189.346 42.5444 189.378 42.4485Z" fill="white"/>
<path d="M93.8666 17.9246C95.209 17.9726 96.6074 17.9965 98.0618 17.9965C98.749 17.9965 99.4042 17.9806 100.028 17.9486C100.651 17.9166 100.97 17.9006 100.986 17.9006C101.418 17.9006 101.813 17.9126 102.173 17.9366C102.541 17.9526 102.952 17.9925 103.408 18.0565C103.871 18.1204 104.283 18.2083 104.642 18.3202C105.002 18.432 105.361 18.5879 105.721 18.7876C106.089 18.9874 106.392 19.2231 106.632 19.4948C106.88 19.7665 107.079 20.1021 107.231 20.5017C107.383 20.9012 107.459 21.3487 107.459 21.8441C107.459 23.3065 106.584 24.4052 104.834 25.1404V25.2363C106.145 25.476 107.239 26.0194 108.118 26.8664C109.005 27.7134 109.449 28.7962 109.449 30.1147C109.449 30.8179 109.321 31.4532 109.065 32.0205C108.817 32.5799 108.498 33.0433 108.106 33.4109C107.715 33.7785 107.223 34.0981 106.632 34.3698C106.041 34.6415 105.465 34.8493 104.906 34.9931C104.347 35.1369 103.703 35.2528 102.976 35.3407C102.257 35.4206 101.642 35.4726 101.13 35.4965C100.619 35.5125 100.048 35.5205 99.4162 35.5205C97.2507 35.5205 95.3928 35.5445 93.8426 35.5924C93.8106 35.4965 93.7947 35.4166 93.7947 35.3527C93.7947 35.2968 93.8106 35.1889 93.8426 35.0291C94.0823 35.0051 94.2741 34.9851 94.4179 34.9691C94.5618 34.9532 94.7576 34.9252 95.0053 34.8852C95.261 34.8453 95.4647 34.8013 95.6166 34.7534C95.7764 34.6974 95.9402 34.6295 96.108 34.5496C96.2758 34.4697 96.3997 34.3738 96.4796 34.2619C96.5675 34.1501 96.6114 34.0222 96.6114 33.8784C96.7073 31.3772 96.7553 28.8561 96.7553 26.315C96.7553 23.726 96.7153 21.4925 96.6354 19.6147C96.6274 19.4069 96.5355 19.2311 96.3597 19.0873C96.1919 18.9435 95.9362 18.8316 95.5926 18.7517C95.249 18.6718 94.9733 18.6198 94.7655 18.5959C94.5578 18.5639 94.2581 18.5279 93.8666 18.488C93.8346 18.3441 93.8186 18.2443 93.8186 18.1883C93.8186 18.1404 93.8346 18.0525 93.8666 17.9246ZM99.2844 26.315V27.202L99.4162 34.7054C99.9516 34.7054 100.427 34.6974 100.843 34.6815C101.258 34.6575 101.714 34.6095 102.209 34.5376C102.704 34.4577 103.136 34.3538 103.504 34.226C103.871 34.0981 104.239 33.9223 104.606 33.6986C104.974 33.4669 105.274 33.1952 105.505 32.8835C105.737 32.5719 105.925 32.1883 106.069 31.7328C106.212 31.2694 106.284 30.75 106.284 30.1746C106.284 29.6153 106.192 29.1158 106.009 28.6763C105.825 28.2288 105.565 27.8573 105.23 27.5616C104.902 27.258 104.498 27.0062 104.019 26.8065C103.548 26.6067 103.032 26.4629 102.473 26.375C101.921 26.2871 101.318 26.2431 100.663 26.2431C100.207 26.2431 99.7479 26.2671 99.2844 26.315ZM99.4402 18.7517L99.2844 25.5839C102.545 25.5839 104.175 24.3373 104.175 21.8441C104.175 20.7574 103.835 19.9583 103.156 19.4469C102.485 18.9355 101.59 18.6798 100.471 18.6798C100.223 18.6798 99.8797 18.7037 99.4402 18.7517Z" fill="white"/>
<path d="M51.3004 118.277V115.984H61.5685V118.277H57.6759V130.712H55.172V118.277H51.3004ZM68.9519 115.984H71.4348V125.768C71.4348 126.68 71.6732 127.416 72.1502 127.977C72.6411 128.524 73.3635 128.798 74.3174 128.798C75.2572 128.798 75.9726 128.524 76.4636 127.977C76.9545 127.416 77.2 126.68 77.2 125.768V115.984H79.6829V125.873C79.6829 126.687 79.5496 127.416 79.2831 128.061C79.0306 128.692 78.6659 129.233 78.189 129.681C77.712 130.13 77.1439 130.474 76.4846 130.712C75.8253 130.951 75.1029 131.07 74.3174 131.07C73.5319 131.07 72.8094 130.951 72.1502 130.712C71.4909 130.474 70.9157 130.13 70.4248 129.681C69.9479 129.233 69.5831 128.692 69.3306 128.061C69.0782 127.416 68.9519 126.687 68.9519 125.873V115.984ZM87.0736 118.277V115.984H97.3416V118.277H93.449V130.712H90.9451V118.277H87.0736ZM105.571 123.348C105.571 124.358 105.781 125.263 106.202 126.062C106.637 126.848 107.233 127.465 107.991 127.914C108.748 128.363 109.611 128.587 110.579 128.587C111.561 128.587 112.423 128.363 113.167 127.914C113.924 127.465 114.513 126.848 114.934 126.062C115.369 125.263 115.586 124.358 115.586 123.348C115.586 122.338 115.376 121.44 114.955 120.655C114.534 119.855 113.945 119.231 113.188 118.782C112.444 118.333 111.575 118.109 110.579 118.109C109.611 118.109 108.748 118.333 107.991 118.782C107.233 119.231 106.637 119.855 106.202 120.655C105.781 121.44 105.571 122.338 105.571 123.348ZM102.941 123.348C102.941 122.24 103.13 121.223 103.509 120.297C103.888 119.371 104.421 118.572 105.108 117.898C105.809 117.211 106.623 116.678 107.549 116.299C108.489 115.921 109.498 115.731 110.579 115.731C111.687 115.731 112.704 115.921 113.63 116.299C114.555 116.678 115.362 117.211 116.049 117.898C116.751 118.572 117.291 119.371 117.669 120.297C118.048 121.223 118.238 122.24 118.238 123.348C118.238 124.442 118.048 125.459 117.669 126.399C117.291 127.339 116.758 128.152 116.07 128.84C115.383 129.527 114.569 130.067 113.63 130.46C112.704 130.839 111.687 131.028 110.579 131.028C109.484 131.028 108.467 130.839 107.528 130.46C106.588 130.067 105.774 129.527 105.087 128.84C104.414 128.152 103.888 127.339 103.509 126.399C103.13 125.459 102.941 124.442 102.941 123.348ZM129.363 123.685H132.056L137.043 130.712H134.055L129.363 123.685ZM126.333 115.984H128.816V130.712H126.333V115.984ZM127.806 118.13V115.984H130.878C131.944 115.984 132.87 116.173 133.656 116.552C134.455 116.93 135.072 117.464 135.507 118.151C135.942 118.824 136.159 119.624 136.159 120.55C136.159 121.475 135.942 122.282 135.507 122.969C135.072 123.657 134.455 124.19 133.656 124.568C132.87 124.947 131.944 125.137 130.878 125.137H127.806V123.096H130.773C131.334 123.096 131.825 122.997 132.246 122.801C132.681 122.605 133.017 122.324 133.256 121.959C133.494 121.581 133.613 121.132 133.613 120.613C133.613 120.08 133.494 119.631 133.256 119.266C133.017 118.901 132.681 118.621 132.246 118.424C131.825 118.228 131.334 118.13 130.773 118.13H127.806ZM144.528 115.984H147.032V130.712H144.528V115.984ZM157.771 126.925L158.234 124.821H165.072L165.556 126.925H157.771ZM161.622 120.15L159.307 125.557L159.265 126.104L157.224 130.712H154.426L161.622 115.163L168.818 130.712H166.019L164.02 126.231L163.957 125.62L161.622 120.15ZM176.212 115.984H178.695V128.482H184.544V130.712H176.212V115.984ZM192.991 125.978C193.314 126.539 193.658 127.037 194.022 127.472C194.401 127.893 194.815 128.223 195.264 128.461C195.713 128.685 196.218 128.798 196.779 128.798C197.452 128.798 197.999 128.615 198.42 128.251C198.841 127.886 199.051 127.416 199.051 126.841C199.051 126.294 198.918 125.859 198.651 125.536C198.385 125.2 198.013 124.919 197.536 124.695C197.073 124.456 196.533 124.225 195.916 124C195.551 123.874 195.145 123.706 194.696 123.495C194.247 123.271 193.819 122.997 193.412 122.675C193.005 122.338 192.669 121.931 192.402 121.454C192.136 120.963 192.002 120.374 192.002 119.687C192.002 118.901 192.206 118.214 192.613 117.625C193.019 117.022 193.566 116.559 194.254 116.236C194.955 115.899 195.748 115.731 196.631 115.731C197.501 115.731 198.259 115.885 198.904 116.194C199.549 116.503 200.089 116.895 200.524 117.372C200.973 117.849 201.324 118.347 201.576 118.866L199.556 120.002C199.374 119.638 199.142 119.301 198.862 118.993C198.581 118.67 198.252 118.417 197.873 118.235C197.508 118.039 197.08 117.94 196.589 117.94C195.902 117.94 195.397 118.102 195.074 118.424C194.752 118.733 194.59 119.098 194.59 119.519C194.59 119.897 194.703 120.241 194.927 120.55C195.166 120.844 195.53 121.125 196.021 121.391C196.512 121.658 197.15 121.931 197.936 122.212C198.371 122.366 198.806 122.562 199.241 122.801C199.689 123.039 200.096 123.341 200.461 123.706C200.826 124.056 201.113 124.47 201.324 124.947C201.548 125.424 201.66 125.985 201.66 126.63C201.66 127.318 201.527 127.935 201.26 128.482C200.994 129.029 200.629 129.492 200.166 129.871C199.703 130.235 199.177 130.516 198.588 130.712C198.013 130.923 197.41 131.028 196.779 131.028C195.909 131.028 195.102 130.86 194.359 130.523C193.63 130.172 192.991 129.709 192.444 129.134C191.897 128.559 191.462 127.935 191.14 127.262L192.991 125.978Z" fill="white"/>
<path d="M4.01885 151.403C4.01885 152.371 4.23627 153.219 4.67112 153.949C5.12 154.664 5.70214 155.218 6.41753 155.611C7.13293 155.99 7.91145 156.179 8.7531 156.179C9.45447 156.179 10.0787 156.088 10.6258 155.906C11.1728 155.723 11.6638 155.478 12.0986 155.169C12.5475 154.86 12.9333 154.524 13.2559 154.159V157.547C12.6527 158.024 11.9934 158.395 11.278 158.662C10.5767 158.928 9.68592 159.062 8.60581 159.062C7.48362 159.062 6.43858 158.879 5.47069 158.515C4.51682 158.15 3.68219 157.624 2.96679 156.937C2.26542 156.249 1.71836 155.443 1.32559 154.517C0.946849 153.577 0.757479 152.539 0.757479 151.403C0.757479 150.266 0.946849 149.235 1.32559 148.31C1.71836 147.37 2.26542 146.556 2.96679 145.869C3.68219 145.182 4.51682 144.656 5.47069 144.291C6.43858 143.926 7.48362 143.744 8.60581 143.744C9.68592 143.744 10.5767 143.877 11.278 144.144C11.9934 144.41 12.6527 144.782 13.2559 145.259V148.646C12.9333 148.282 12.5475 147.945 12.0986 147.636C11.6638 147.328 11.1728 147.082 10.6258 146.9C10.0787 146.718 9.45447 146.626 8.7531 146.626C7.91145 146.626 7.13293 146.823 6.41753 147.216C5.70214 147.594 5.12 148.141 4.67112 148.857C4.23627 149.572 4.01885 150.421 4.01885 151.403ZM18.6695 149.088V158.767H15.9973V149.088H18.6695ZM21.5101 151.929C21.3277 151.76 21.1384 151.634 20.942 151.55C20.7596 151.452 20.5282 151.403 20.2476 151.403C19.911 151.403 19.6234 151.494 19.3849 151.676C19.1465 151.859 18.9641 152.118 18.8379 152.455C18.7256 152.777 18.6695 153.17 18.6695 153.633L17.9121 152.876C17.9121 152.104 18.0593 151.424 18.3539 150.835C18.6485 150.231 19.0342 149.754 19.5112 149.404C19.9881 149.039 20.4791 148.857 20.9841 148.857C21.3347 148.857 21.6644 148.92 21.973 149.046C22.2956 149.172 22.5551 149.362 22.7515 149.614L21.5101 151.929ZM28.4536 158.978C27.4016 158.978 26.4828 158.767 25.6973 158.346C24.9117 157.925 24.3015 157.343 23.8667 156.6C23.4459 155.842 23.2355 154.952 23.2355 153.928C23.2355 152.89 23.4459 151.999 23.8667 151.255C24.3015 150.498 24.9117 149.916 25.6973 149.509C26.4828 149.088 27.4086 148.878 28.4747 148.878C29.5408 148.878 30.4455 149.074 31.189 149.467C31.9465 149.846 32.5216 150.407 32.9144 151.15C33.3071 151.88 33.5035 152.763 33.5035 153.801C33.5035 153.928 33.4965 154.061 33.4825 154.201C33.4825 154.341 33.4755 154.454 33.4614 154.538H24.7925V152.855H31.0838L30.3473 153.822C30.4035 153.738 30.4525 153.626 30.4946 153.486C30.5507 153.331 30.5788 153.205 30.5788 153.107C30.5788 152.63 30.4876 152.223 30.3053 151.887C30.1369 151.55 29.8915 151.283 29.5688 151.087C29.2462 150.891 28.8675 150.793 28.4326 150.793C27.8996 150.793 27.4507 150.912 27.086 151.15C26.7353 151.375 26.4618 151.718 26.2654 152.181C26.083 152.63 25.9848 153.191 25.9708 153.865C25.9708 154.51 26.062 155.057 26.2443 155.506C26.4407 155.955 26.7283 156.298 27.107 156.537C27.4858 156.775 27.9416 156.894 28.4747 156.894C29.0779 156.894 29.5899 156.782 30.0107 156.558C30.4455 156.319 30.8032 155.969 31.0838 155.506L33.4614 156.242C32.9564 157.154 32.2831 157.841 31.4415 158.304C30.6139 158.753 29.6179 158.978 28.4536 158.978ZM37.4947 155.758C37.4947 156.039 37.5649 156.284 37.7052 156.495C37.8454 156.691 38.0348 156.845 38.2733 156.958C38.5258 157.056 38.7993 157.105 39.0939 157.105C39.5147 157.105 39.8934 157.021 40.2301 156.852C40.5667 156.67 40.8403 156.418 41.0507 156.095C41.2611 155.758 41.3663 155.358 41.3663 154.896L41.703 156.158C41.703 156.775 41.5276 157.294 41.1769 157.715C40.8403 158.136 40.3984 158.451 39.8513 158.662C39.3183 158.872 38.7572 158.978 38.1681 158.978C37.5649 158.978 37.0038 158.858 36.4848 158.62C35.9658 158.381 35.5449 158.038 35.2223 157.589C34.9137 157.126 34.7594 156.565 34.7594 155.906C34.7594 154.966 35.089 154.222 35.7483 153.675C36.4076 153.128 37.3404 152.855 38.5468 152.855C39.164 152.855 39.7041 152.918 40.167 153.044C40.6439 153.17 41.0437 153.324 41.3663 153.507C41.6889 153.689 41.9204 153.865 42.0607 154.033V155.295C41.6819 155.015 41.2541 154.804 40.7772 154.664C40.3142 154.524 39.8233 154.454 39.3043 154.454C38.8835 154.454 38.5398 154.51 38.2733 154.622C38.0067 154.72 37.8104 154.867 37.6841 155.064C37.5579 155.246 37.4947 155.478 37.4947 155.758ZM36.4427 151.824L35.4327 149.972C35.9377 149.705 36.5549 149.453 37.2843 149.214C38.0138 148.962 38.8273 148.836 39.7251 148.836C40.5527 148.836 41.2892 148.955 41.9344 149.193C42.5797 149.432 43.0847 149.783 43.4494 150.245C43.8141 150.694 43.9964 151.248 43.9964 151.908V158.767H41.3663V152.476C41.3663 152.209 41.3242 151.985 41.2401 151.802C41.1559 151.606 41.0226 151.445 40.8403 151.319C40.6719 151.192 40.4685 151.101 40.2301 151.045C39.9916 150.989 39.7251 150.961 39.4305 150.961C38.9816 150.961 38.5538 151.01 38.147 151.108C37.7402 151.206 37.3895 151.326 37.095 151.466C36.8004 151.606 36.583 151.725 36.4427 151.824ZM45.2901 149.088H51.2658V151.382H45.2901V149.088ZM46.9524 145.722H49.5825V158.767H46.9524V145.722ZM57.2824 158.978C56.2304 158.978 55.3116 158.767 54.526 158.346C53.7405 157.925 53.1303 157.343 52.6955 156.6C52.2746 155.842 52.0642 154.952 52.0642 153.928C52.0642 152.89 52.2746 151.999 52.6955 151.255C53.1303 150.498 53.7405 149.916 54.526 149.509C55.3116 149.088 56.2374 148.878 57.3035 148.878C58.3695 148.878 59.2743 149.074 60.0178 149.467C60.7752 149.846 61.3504 150.407 61.7431 151.15C62.1359 151.88 62.3323 152.763 62.3323 153.801C62.3323 153.928 62.3253 154.061 62.3112 154.201C62.3112 154.341 62.3042 154.454 62.2902 154.538H53.6213V152.855H59.9125L59.1761 153.822C59.2322 153.738 59.2813 153.626 59.3234 153.486C59.3795 153.331 59.4076 153.205 59.4076 153.107C59.4076 152.63 59.3164 152.223 59.134 151.887C58.9657 151.55 58.7202 151.283 58.3976 151.087C58.075 150.891 57.6962 150.793 57.2614 150.793C56.7283 150.793 56.2795 150.912 55.9147 151.15C55.5641 151.375 55.2905 151.718 55.0941 152.181C54.9118 152.63 54.8136 153.191 54.7996 153.865C54.7996 154.51 54.8907 155.057 55.0731 155.506C55.2695 155.955 55.557 156.298 55.9358 156.537C56.3145 156.775 56.7704 156.894 57.3035 156.894C57.9066 156.894 58.4186 156.782 58.8395 156.558C59.2743 156.319 59.632 155.969 59.9125 155.506L62.2902 156.242C61.7852 157.154 61.1119 157.841 60.2702 158.304C59.4426 158.753 58.4467 158.978 57.2824 158.978ZM79.1334 144.038H82.5631L77.4922 152.665V158.767H74.4413V152.686L69.3704 144.038H72.8001L75.9562 149.972L79.1334 144.038ZM81.1807 153.928C81.1807 152.918 81.4121 152.034 81.875 151.276C82.3519 150.519 82.9902 149.93 83.7897 149.509C84.6033 149.088 85.5221 148.878 86.5461 148.878C87.5701 148.878 88.4819 149.088 89.2815 149.509C90.0951 149.93 90.7333 150.519 91.1962 151.276C91.6731 152.034 91.9116 152.918 91.9116 153.928C91.9116 154.924 91.6731 155.807 91.1962 156.579C90.7333 157.336 90.0951 157.925 89.2815 158.346C88.4819 158.767 87.5701 158.978 86.5461 158.978C85.5221 158.978 84.6033 158.767 83.7897 158.346C82.9902 157.925 82.3519 157.336 81.875 156.579C81.4121 155.807 81.1807 154.924 81.1807 153.928ZM83.9581 153.928C83.9581 154.475 84.0703 154.959 84.2947 155.379C84.5332 155.786 84.8488 156.109 85.2416 156.347C85.6344 156.572 86.0692 156.684 86.5461 156.684C87.0231 156.684 87.4579 156.572 87.8507 156.347C88.2434 156.109 88.5521 155.786 88.7765 155.379C89.015 154.959 89.1342 154.475 89.1342 153.928C89.1342 153.381 89.015 152.897 88.7765 152.476C88.5521 152.055 88.2434 151.732 87.8507 151.508C87.4579 151.283 87.0231 151.171 86.5461 151.171C86.0692 151.171 85.6344 151.283 85.2416 151.508C84.8488 151.732 84.5332 152.055 84.2947 152.476C84.0703 152.897 83.9581 153.381 83.9581 153.928ZM96.7757 154.98C96.7757 155.611 96.902 156.102 97.1545 156.453C97.407 156.789 97.8138 156.958 98.3748 156.958C98.7676 156.958 99.1043 156.88 99.3848 156.726C99.6794 156.558 99.9038 156.326 100.058 156.032C100.226 155.737 100.311 155.386 100.311 154.98V149.088H103.025V158.767H100.311V157.294C100.002 157.841 99.6093 158.262 99.1323 158.557C98.6554 158.837 98.0733 158.978 97.3859 158.978C96.2357 158.978 95.373 158.648 94.7979 157.989C94.2368 157.329 93.9562 156.425 93.9562 155.274V149.088H96.7757V154.98ZM108.382 149.088V158.767H105.71V149.088H108.382ZM111.222 151.929C111.04 151.76 110.851 151.634 110.654 151.55C110.472 151.452 110.24 151.403 109.96 151.403C109.623 151.403 109.336 151.494 109.097 151.676C108.859 151.859 108.676 152.118 108.55 152.455C108.438 152.777 108.382 153.17 108.382 153.633L107.624 152.876C107.624 152.104 107.772 151.424 108.066 150.835C108.361 150.231 108.747 149.754 109.224 149.404C109.7 149.039 110.191 148.857 110.696 148.857C111.047 148.857 111.377 148.92 111.685 149.046C112.008 149.172 112.267 149.362 112.464 149.614L111.222 151.929ZM122.805 151.403C122.805 152.343 123.001 153.177 123.394 153.907C123.786 154.636 124.327 155.211 125.014 155.632C125.701 156.053 126.501 156.263 127.413 156.263C128.324 156.263 129.124 156.053 129.811 155.632C130.499 155.211 131.032 154.636 131.41 153.907C131.803 153.177 132 152.343 132 151.403C132 150.463 131.81 149.628 131.431 148.899C131.053 148.169 130.52 147.594 129.832 147.173C129.145 146.753 128.338 146.542 127.413 146.542C126.501 146.542 125.701 146.753 125.014 147.173C124.327 147.594 123.786 148.169 123.394 148.899C123.001 149.628 122.805 150.463 122.805 151.403ZM119.627 151.403C119.627 150.281 119.824 149.257 120.216 148.331C120.609 147.391 121.156 146.577 121.858 145.89C122.559 145.203 123.38 144.677 124.32 144.312C125.273 143.933 126.304 143.744 127.413 143.744C128.535 143.744 129.566 143.933 130.506 144.312C131.445 144.677 132.266 145.203 132.967 145.89C133.683 146.577 134.23 147.391 134.609 148.331C135.001 149.257 135.198 150.281 135.198 151.403C135.198 152.511 135.001 153.542 134.609 154.496C134.23 155.436 133.69 156.256 132.988 156.958C132.301 157.659 131.48 158.206 130.527 158.599C129.587 158.978 128.549 159.167 127.413 159.167C126.276 159.167 125.231 158.978 124.277 158.599C123.338 158.206 122.517 157.659 121.816 156.958C121.114 156.256 120.574 155.436 120.195 154.496C119.817 153.542 119.627 152.511 119.627 151.403ZM136.149 149.088H139.052L141.178 154.454L143.913 148.352L146.753 154.475L148.9 149.088H151.782L147.048 159.419L143.934 153.254L140.904 159.419L136.149 149.088ZM159.322 152.876C159.322 152.23 159.196 151.739 158.943 151.403C158.691 151.066 158.284 150.898 157.723 150.898C157.344 150.898 157.007 150.982 156.713 151.15C156.418 151.305 156.194 151.529 156.039 151.824C155.885 152.118 155.808 152.469 155.808 152.876V158.767H153.073V149.088H155.808V150.561C156.103 150.014 156.488 149.6 156.965 149.32C157.456 149.025 158.045 148.878 158.733 148.878C159.883 148.878 160.739 149.207 161.3 149.867C161.861 150.512 162.141 151.417 162.141 152.581V158.767H159.322V152.876ZM172.67 153.822C172.979 154.37 173.316 154.846 173.68 155.253C174.059 155.66 174.473 155.976 174.922 156.2C175.371 156.425 175.855 156.537 176.374 156.537C176.977 156.537 177.468 156.382 177.846 156.074C178.225 155.765 178.415 155.344 178.415 154.811C178.415 154.348 178.295 153.977 178.057 153.696C177.832 153.416 177.489 153.17 177.026 152.96C176.577 152.735 176.023 152.497 175.364 152.244C175.013 152.118 174.606 151.95 174.143 151.739C173.694 151.515 173.266 151.234 172.86 150.898C172.453 150.547 172.116 150.126 171.85 149.635C171.583 149.13 171.45 148.527 171.45 147.826C171.45 146.984 171.66 146.262 172.081 145.658C172.516 145.041 173.098 144.571 173.828 144.249C174.571 143.912 175.399 143.744 176.31 143.744C177.25 143.744 178.057 143.905 178.73 144.228C179.417 144.536 179.986 144.936 180.434 145.427C180.897 145.904 181.255 146.402 181.508 146.921L179.151 148.225C178.955 147.875 178.716 147.559 178.436 147.279C178.169 146.984 177.86 146.753 177.51 146.584C177.159 146.402 176.759 146.311 176.31 146.311C175.721 146.311 175.279 146.451 174.985 146.732C174.69 146.998 174.543 147.314 174.543 147.678C174.543 148.043 174.662 148.366 174.901 148.646C175.139 148.913 175.504 149.172 175.995 149.425C176.486 149.663 177.103 149.909 177.846 150.161C178.323 150.33 178.779 150.54 179.214 150.793C179.663 151.045 180.063 151.354 180.413 151.718C180.778 152.069 181.059 152.49 181.255 152.981C181.465 153.458 181.571 154.012 181.571 154.643C181.571 155.358 181.43 155.997 181.15 156.558C180.869 157.119 180.484 157.596 179.993 157.989C179.502 158.367 178.948 158.655 178.33 158.851C177.727 159.062 177.089 159.167 176.416 159.167C175.518 159.167 174.676 158.999 173.891 158.662C173.119 158.311 172.446 157.841 171.871 157.252C171.296 156.663 170.847 156.025 170.524 155.337L172.67 153.822ZM186.591 154.98C186.591 155.611 186.717 156.102 186.97 156.453C187.222 156.789 187.629 156.958 188.19 156.958C188.583 156.958 188.919 156.88 189.2 156.726C189.494 156.558 189.719 156.326 189.873 156.032C190.042 155.737 190.126 155.386 190.126 154.98V149.088H192.84V158.767H190.126V157.294C189.817 157.841 189.424 158.262 188.947 158.557C188.47 158.837 187.888 158.978 187.201 158.978C186.051 158.978 185.188 158.648 184.613 157.989C184.052 157.329 183.771 156.425 183.771 155.274V149.088H186.591V154.98ZM201.774 152.876C201.774 152.23 201.648 151.739 201.395 151.403C201.143 151.066 200.736 150.898 200.175 150.898C199.796 150.898 199.459 150.982 199.165 151.15C198.87 151.305 198.646 151.529 198.492 151.824C198.337 152.118 198.26 152.469 198.26 152.876V158.767H195.525V149.088H198.26V150.561C198.555 150.014 198.94 149.6 199.417 149.32C199.908 149.025 200.497 148.878 201.185 148.878C202.335 148.878 203.191 149.207 203.752 149.867C204.313 150.512 204.593 151.417 204.593 152.581V158.767H201.774V152.876ZM207.762 155.422C208.169 155.8 208.548 156.109 208.898 156.347C209.249 156.572 209.579 156.74 209.887 156.852C210.21 156.965 210.511 157.021 210.792 157.021C211.157 157.021 211.437 156.944 211.634 156.789C211.83 156.621 211.928 156.396 211.928 156.116C211.928 155.863 211.844 155.653 211.676 155.485C211.521 155.302 211.29 155.141 210.981 155.001C210.673 154.86 210.28 154.713 209.803 154.559C209.354 154.391 208.919 154.194 208.499 153.97C208.078 153.731 207.727 153.423 207.446 153.044C207.18 152.651 207.047 152.153 207.047 151.55C207.047 150.975 207.201 150.491 207.51 150.098C207.818 149.691 208.232 149.39 208.751 149.193C209.284 148.983 209.873 148.878 210.518 148.878C211.066 148.878 211.578 148.948 212.054 149.088C212.531 149.228 212.973 149.418 213.38 149.656C213.787 149.881 214.145 150.147 214.453 150.456L213.254 152.139C212.903 151.76 212.482 151.452 211.991 151.213C211.514 150.975 211.044 150.856 210.582 150.856C210.273 150.856 210.028 150.919 209.845 151.045C209.677 151.157 209.593 151.333 209.593 151.571C209.593 151.781 209.677 151.971 209.845 152.139C210.028 152.293 210.28 152.434 210.603 152.56C210.939 152.686 211.318 152.841 211.739 153.023C212.258 153.219 212.735 153.444 213.17 153.696C213.619 153.935 213.976 154.236 214.243 154.601C214.509 154.966 214.643 155.443 214.643 156.032C214.643 157 214.327 157.757 213.696 158.304C213.064 158.837 212.195 159.104 211.087 159.104C210.399 159.104 209.768 159.013 209.193 158.83C208.632 158.648 208.12 158.409 207.657 158.115C207.208 157.806 206.801 157.477 206.436 157.126L207.762 155.422ZM219.26 142.355V158.767H216.525V142.355H219.26ZM222.774 152.876C222.774 152.23 222.648 151.739 222.395 151.403C222.157 151.066 221.75 150.898 221.175 150.898C220.796 150.898 220.459 150.982 220.165 151.15C219.87 151.305 219.646 151.529 219.492 151.824C219.337 152.118 219.26 152.469 219.26 152.876H218.713C218.713 152.104 218.839 151.41 219.092 150.793C219.358 150.175 219.751 149.684 220.27 149.32C220.789 148.955 221.427 148.773 222.185 148.773C222.942 148.773 223.566 148.913 224.057 149.193C224.548 149.474 224.913 149.895 225.152 150.456C225.39 151.003 225.509 151.676 225.509 152.476V158.767H222.774V152.876ZM228.07 145.343C228.07 144.894 228.231 144.529 228.554 144.249C228.876 143.954 229.262 143.807 229.711 143.807C230.16 143.807 230.539 143.954 230.847 144.249C231.17 144.529 231.331 144.894 231.331 145.343C231.331 145.778 231.17 146.142 230.847 146.437C230.539 146.732 230.16 146.879 229.711 146.879C229.262 146.879 228.876 146.732 228.554 146.437C228.231 146.142 228.07 145.778 228.07 145.343ZM228.364 149.088H231.015V158.767H228.364V149.088ZM240.157 152.876C240.157 152.23 240.031 151.739 239.779 151.403C239.526 151.066 239.119 150.898 238.558 150.898C238.18 150.898 237.843 150.982 237.548 151.15C237.254 151.305 237.029 151.529 236.875 151.824C236.721 152.118 236.644 152.469 236.644 152.876V158.767H233.908V149.088H236.644V150.561C236.938 150.014 237.324 149.6 237.801 149.32C238.292 149.025 238.881 148.878 239.568 148.878C240.719 148.878 241.574 149.207 242.135 149.867C242.696 150.512 242.977 151.417 242.977 152.581V158.767H240.157V152.876ZM250.228 158.978C249.176 158.978 248.257 158.767 247.471 158.346C246.686 157.925 246.076 157.343 245.641 156.6C245.22 155.842 245.009 154.952 245.009 153.928C245.009 152.89 245.22 151.999 245.641 151.255C246.076 150.498 246.686 149.916 247.471 149.509C248.257 149.088 249.183 148.878 250.249 148.878C251.315 148.878 252.22 149.074 252.963 149.467C253.72 149.846 254.296 150.407 254.688 151.15C255.081 151.88 255.277 152.763 255.277 153.801C255.277 153.928 255.27 154.061 255.256 154.201C255.256 154.341 255.249 154.454 255.235 154.538H246.566V152.855H252.858L252.121 153.822C252.177 153.738 252.227 153.626 252.269 153.486C252.325 153.331 252.353 153.205 252.353 153.107C252.353 152.63 252.262 152.223 252.079 151.887C251.911 151.55 251.665 151.283 251.343 151.087C251.02 150.891 250.641 150.793 250.207 150.793C249.674 150.793 249.225 150.912 248.86 151.15C248.509 151.375 248.236 151.718 248.039 152.181C247.857 152.63 247.759 153.191 247.745 153.865C247.745 154.51 247.836 155.057 248.018 155.506C248.215 155.955 248.502 156.298 248.881 156.537C249.26 156.775 249.716 156.894 250.249 156.894C250.852 156.894 251.364 156.782 251.785 156.558C252.22 156.319 252.577 155.969 252.858 155.506L255.235 156.242C254.73 157.154 254.057 157.841 253.215 158.304C252.388 158.753 251.392 158.978 250.228 158.978Z" fill="white"/>
<line x1="45.5889" y1="123.616" x2="-0.000175553" y2="123.616" stroke="white" stroke-width="1.75342"/>
<line x1="256" y1="123.616" x2="210.411" y2="123.616" stroke="white" stroke-width="1.75342"/>
<defs>
<clipPath id="clip0_442_4904">
<rect width="12.274" height="12.274" fill="white" transform="matrix(-1 0 0 1 143.781 82.4111)"/>
</clipPath>
<clipPath id="clip1_442_4904">
<rect width="10.5205" height="10.5205" fill="white" transform="translate(113.973 84.1641)"/>
</clipPath>
</defs>
</svg>
