<svg width="29" height="30" viewBox="0 0 29 30" fill="none" xmlns="http://www.w3.org/2000/svg">
<path d="M13.3839 26.587C13.307 26.5869 13.2309 26.5705 13.1604 26.5386C13.0899 26.5067 13.0266 26.46 12.9744 26.4016L1.9328 14.0459C1.85919 13.9635 1.81039 13.8608 1.79238 13.7501C1.77437 13.6395 1.78791 13.5259 1.83137 13.4231C1.87482 13.3203 1.9463 13.2329 2.03704 13.1715C2.12779 13.1101 2.23387 13.0774 2.34231 13.0774H7.65712C7.73692 13.0774 7.81578 13.0951 7.8884 13.1293C7.96102 13.1636 8.02569 13.2135 8.07806 13.2758L11.7682 17.6676C12.167 16.7857 12.939 15.3173 14.2938 13.528C16.2966 10.8828 20.0218 6.99257 26.3954 3.48073C26.5185 3.41286 26.6619 3.39525 26.797 3.43137C26.9321 3.46748 27.0492 3.5547 27.1252 3.67579C27.2012 3.79689 27.2306 3.94306 27.2075 4.08545C27.1844 4.22784 27.1105 4.35609 27.0005 4.44488C26.9761 4.46455 24.5187 6.46648 21.6906 10.1333C19.0877 13.5078 15.6277 19.0255 13.9251 26.1487C13.8952 26.2739 13.8256 26.385 13.7275 26.4645C13.6294 26.544 13.5083 26.5872 13.3837 26.5872L13.3839 26.587Z" fill="#B1AA00"/>
</svg>
