<svg width="146" height="95" viewBox="0 0 146 95" fill="none" xmlns="http://www.w3.org/2000/svg">
<path fill-rule="evenodd" clip-rule="evenodd" d="M72.9473 0L78.2383 39.6852L111.509 14.2426L90.0801 42.2649L124.467 37.7955L82.5537 55.238L80.2432 46.6163L78.627 45H66.9473L66.9639 44.8759L65.2236 46.6161L62.9131 55.238L21 37.7955L55.3867 42.2649L33.958 14.2426L67.6162 39.9821L72.9473 0Z" fill="#55AE3A"/>
<path d="M63.1006 43.6313H73.0004V59.3686L68 58.5L63.1006 59.3686V43.6313Z" fill="white"/>
<path d="M73 43.6313H82.8998V59.3686L78 58L73 59.3686V43.6313Z" fill="white"/>
<mask id="path-4-outside-1_444_5648" maskUnits="userSpaceOnUse" x="60" y="41" width="25" height="21" fill="black">
<rect fill="white" x="60" y="41" width="25" height="21"/>
<path fill-rule="evenodd" clip-rule="evenodd" d="M63.9464 42.9687L62.4242 43.7732C62.1637 43.9111 61.9997 44.1862 61.9997 44.4865V60.1971C61.9997 60.4773 62.1427 60.7374 62.3768 60.883C62.502 60.9609 62.6437 61 62.7854 61C62.9093 61 63.0329 60.9703 63.1463 60.9103L64.6653 60.1074C66.6853 59.0516 69.1003 59.0516 71.1227 60.109L72.6386 60.9103C72.7513 60.97 72.8746 60.9997 72.9978 60.9999C72.9986 60.9999 72.9994 60.9999 73.0003 60.9999C73.1239 60.9999 73.2478 60.9702 73.3611 60.9103L74.8801 60.1073C76.8996 59.051 79.3149 59.0515 81.3373 60.1089L82.8534 60.9103C83.0967 61.0387 83.3885 61.0286 83.6229 60.8827C83.857 60.7373 84 60.4772 84 60.197V44.4865C84 44.1862 83.8363 43.9113 83.5752 43.7732L82.0562 42.9703C79.582 41.6768 76.6317 41.677 74.1612 42.9687L72.9997 43.5826L71.8414 42.9704C69.368 41.6768 66.4174 41.6768 63.9464 42.9687ZM63.9467 58.6792L63.5711 58.8776V44.975L64.6653 44.3966C66.6853 43.341 69.1003 43.3408 71.1227 44.3982L72.2138 44.975V58.8775L71.8414 58.6808C70.6042 58.0339 69.2475 57.7106 67.8917 57.7106C66.5361 57.7106 65.1815 58.0334 63.9467 58.6792ZM74.1615 58.6792L73.7859 58.8775V44.9749L74.8801 44.3966C76.8996 43.3405 79.3149 43.3407 81.3375 44.3982L82.4286 44.9749V58.8775L82.0565 58.6808C80.819 58.0339 79.4624 57.7106 78.1065 57.7106C76.7512 57.7106 75.3966 58.0334 74.1615 58.6792Z"/>
</mask>
<path fill-rule="evenodd" clip-rule="evenodd" d="M63.9464 42.9687L62.4242 43.7732C62.1637 43.9111 61.9997 44.1862 61.9997 44.4865V60.1971C61.9997 60.4773 62.1427 60.7374 62.3768 60.883C62.502 60.9609 62.6437 61 62.7854 61C62.9093 61 63.0329 60.9703 63.1463 60.9103L64.6653 60.1074C66.6853 59.0516 69.1003 59.0516 71.1227 60.109L72.6386 60.9103C72.7513 60.97 72.8746 60.9997 72.9978 60.9999C72.9986 60.9999 72.9994 60.9999 73.0003 60.9999C73.1239 60.9999 73.2478 60.9702 73.3611 60.9103L74.8801 60.1073C76.8996 59.051 79.3149 59.0515 81.3373 60.1089L82.8534 60.9103C83.0967 61.0387 83.3885 61.0286 83.6229 60.8827C83.857 60.7373 84 60.4772 84 60.197V44.4865C84 44.1862 83.8363 43.9113 83.5752 43.7732L82.0562 42.9703C79.582 41.6768 76.6317 41.677 74.1612 42.9687L72.9997 43.5826L71.8414 42.9704C69.368 41.6768 66.4174 41.6768 63.9464 42.9687ZM63.9467 58.6792L63.5711 58.8776V44.975L64.6653 44.3966C66.6853 43.341 69.1003 43.3408 71.1227 44.3982L72.2138 44.975V58.8775L71.8414 58.6808C70.6042 58.0339 69.2475 57.7106 67.8917 57.7106C66.5361 57.7106 65.1815 58.0334 63.9467 58.6792ZM74.1615 58.6792L73.7859 58.8775V44.9749L74.8801 44.3966C76.8996 43.3405 79.3149 43.3407 81.3375 44.3982L82.4286 44.9749V58.8775L82.0565 58.6808C80.819 58.0339 79.4624 57.7106 78.1065 57.7106C76.7512 57.7106 75.3966 58.0334 74.1615 58.6792Z" fill="#55AE3A"/>
<path d="M62.4242 43.7732L61.9566 42.8893L61.9569 42.8891L62.4242 43.7732ZM63.9464 42.9687L63.4791 42.0846L63.4831 42.0825L63.9464 42.9687ZM62.3768 60.883L62.9049 60.0338L62.9051 60.0339L62.3768 60.883ZM63.1463 60.9103L62.679 60.0262L63.1463 60.9103ZM64.6653 60.1074L64.198 59.2233L64.2021 59.2212L64.6653 60.1074ZM71.1227 60.109L71.5861 59.2228L71.59 59.2249L71.1227 60.109ZM72.6386 60.9103L72.1712 61.7944L72.1712 61.7944L72.6386 60.9103ZM72.9978 60.9999V61.9999L72.9962 61.9999L72.9978 60.9999ZM73.3611 60.9103L73.8285 61.7943L73.8285 61.7944L73.3611 60.9103ZM74.8801 60.1073L74.4128 59.2232L74.4167 59.2212L74.8801 60.1073ZM81.3373 60.1089L81.8006 59.2228L81.8046 59.2248L81.3373 60.1089ZM82.8534 60.9103L82.3865 61.7946L82.3861 61.7944L82.8534 60.9103ZM83.6229 60.8827L83.0945 60.0337L83.0955 60.0331L83.6229 60.8827ZM83.5752 43.7732L84.0425 42.8891L84.0428 42.8893L83.5752 43.7732ZM82.0562 42.9703L82.5195 42.0841L82.5235 42.0862L82.0562 42.9703ZM74.1612 42.9687L73.6939 42.0846L73.6979 42.0825L74.1612 42.9687ZM72.9997 43.5826L73.467 44.4667L72.9996 44.7137L72.5323 44.4667L72.9997 43.5826ZM71.8414 42.9704L72.3048 42.0842L72.3087 42.0863L71.8414 42.9704ZM63.5711 58.8776L64.0381 59.7618L62.5711 60.5365V58.8776H63.5711ZM63.9467 58.6792L63.4797 57.795L63.4832 57.7931L63.9467 58.6792ZM63.5711 44.975H62.5711V44.3724L63.1038 44.0909L63.5711 44.975ZM64.6653 44.3966L64.198 43.5125L64.2022 43.5103L64.6653 44.3966ZM71.1227 44.3982L71.5861 43.512L71.59 43.5141L71.1227 44.3982ZM72.2138 44.975L72.6811 44.0909L73.2138 44.3725V44.975H72.2138ZM72.2138 58.8775H73.2138V60.5367L71.7467 59.7617L72.2138 58.8775ZM71.8414 58.6808L72.3047 57.7946L72.3084 57.7966L71.8414 58.6808ZM73.7859 58.8775L74.2529 59.7618L72.7859 60.5365V58.8775H73.7859ZM74.1615 58.6792L73.6945 57.7949L73.6981 57.793L74.1615 58.6792ZM73.7859 44.9749H72.7859V44.3724L73.3186 44.0908L73.7859 44.9749ZM74.8801 44.3966L74.4128 43.5125L74.4167 43.5104L74.8801 44.3966ZM81.3375 44.3982L81.8008 43.512L81.8049 43.5141L81.3375 44.3982ZM82.4286 44.9749L82.896 44.0909L83.4286 44.3724V44.9749H82.4286ZM82.4286 58.8775H83.4286V60.5372L81.9613 59.7616L82.4286 58.8775ZM82.0565 58.6808L82.5197 57.7945L82.5238 57.7967L82.0565 58.6808ZM61.9569 42.8891L63.4791 42.0846L64.4137 43.8528L62.8915 44.6574L61.9569 42.8891ZM60.9997 44.4865C60.9997 43.8237 61.3616 43.2041 61.9566 42.8893L62.8918 44.6572C62.9658 44.6181 62.9997 44.5488 62.9997 44.4865H60.9997ZM60.9997 60.1971V44.4865H62.9997V60.1971H60.9997ZM61.8487 61.7322C61.3153 61.4004 60.9997 60.8159 60.9997 60.1971H62.9997C62.9997 60.1387 62.9701 60.0744 62.9049 60.0338L61.8487 61.7322ZM62.7854 62C62.4597 62 62.1346 61.91 61.8486 61.7321L62.9051 60.0339C62.8695 60.0118 62.8278 60 62.7854 60V62ZM63.6136 61.7944C63.3544 61.9315 63.0701 62 62.7854 62V60C62.7485 60 62.7114 60.0091 62.679 60.0262L63.6136 61.7944ZM65.1326 60.9915L63.6136 61.7944L62.679 60.0262L64.198 59.2233L65.1326 60.9915ZM70.6593 60.9952C68.927 60.0894 66.8582 60.0896 65.1285 60.9936L64.2021 59.2212C66.5125 58.0136 69.2736 58.0137 71.586 59.2229L70.6593 60.9952ZM72.1712 61.7944L70.6554 60.9931L71.59 59.2249L73.1059 60.0263L72.1712 61.7944ZM72.9962 61.9999C72.7127 61.9994 72.4293 61.9309 72.1712 61.7944L73.1059 60.0262C73.0734 60.0091 73.0366 60 72.9994 59.9999L72.9962 61.9999ZM73.0003 61.9999C72.9985 61.9999 72.9969 61.9999 72.9967 61.9999C72.9961 61.9999 72.9969 61.9999 72.9978 61.9999V59.9999C72.9996 59.9999 73.0011 59.9999 73.0014 59.9999C73.002 59.9999 73.0012 59.9999 73.0003 59.9999V61.9999ZM73.8285 61.7944C73.5691 61.9315 73.2845 61.9999 73.0003 61.9999V59.9999C72.9633 59.9999 72.9264 60.0089 72.8938 60.0262L73.8285 61.7944ZM75.3475 60.9914L73.8285 61.7943L72.8938 60.0262L74.4128 59.2232L75.3475 60.9914ZM80.8739 60.9951C79.1414 60.0893 77.0724 60.0891 75.3436 60.9934L74.4167 59.2212C76.7269 58.0128 79.4884 58.0138 81.8006 59.2228L80.8739 60.9951ZM82.3861 61.7944L80.87 60.9931L81.8046 59.2248L83.3207 60.0261L82.3861 61.7944ZM84.1512 61.7317C83.6151 62.0653 82.9444 62.0892 82.3865 61.7946L83.3203 60.026C83.249 59.9883 83.1618 59.9918 83.0945 60.0337L84.1512 61.7317ZM85 60.197C85 60.8157 84.6845 61.4007 84.1503 61.7323L83.0955 60.0331C83.0295 60.074 83 60.1388 83 60.197H85ZM85 44.4865V60.197H83V44.4865H85ZM84.0428 42.8893C84.6382 43.2042 85 43.8234 85 44.4865H83C83 44.5489 83.0343 44.6184 83.1076 44.6572L84.0428 42.8893ZM82.5235 42.0862L84.0425 42.8891L83.1079 44.6573L81.5889 43.8544L82.5235 42.0862ZM73.6979 42.0825C76.4588 40.639 79.7552 40.6389 82.5195 42.0841L81.5929 43.8565C79.4087 42.7146 76.8046 42.7151 74.6245 43.8549L73.6979 42.0825ZM72.5324 42.6985L73.6939 42.0846L74.6285 43.8528L73.467 44.4667L72.5324 42.6985ZM72.3087 42.0863L73.467 42.6985L72.5323 44.4667L71.3741 43.8544L72.3087 42.0863ZM63.4831 42.0825C66.2445 40.6388 69.5413 40.6389 72.3048 42.0842L71.3779 43.8565C69.1947 42.7147 66.5904 42.7148 64.4097 43.8549L63.4831 42.0825ZM63.1041 57.9933L63.4797 57.795L64.4136 59.5635L64.0381 59.7618L63.1041 57.9933ZM64.5711 44.975V58.8776H62.5711V44.975H64.5711ZM65.1326 45.2807L64.0384 45.8591L63.1038 44.0909L64.198 43.5125L65.1326 45.2807ZM70.6593 45.2844C68.9271 44.3787 66.8582 44.379 65.1284 45.2829L64.2022 43.5103C66.5124 42.3031 69.2735 42.3029 71.586 43.512L70.6593 45.2844ZM71.7464 45.8591L70.6554 45.2823L71.59 43.5141L72.6811 44.0909L71.7464 45.8591ZM71.2138 58.8775V44.975H73.2138V58.8775H71.2138ZM72.3084 57.7966L72.6808 57.9933L71.7467 59.7617L71.3743 59.565L72.3084 57.7966ZM67.8917 56.7106C69.4064 56.7106 70.9223 57.0719 72.3047 57.7946L71.378 59.567C70.286 58.996 69.0886 58.7106 67.8917 58.7106V56.7106ZM63.4832 57.7931C64.8634 57.0713 66.3773 56.7106 67.8917 56.7106V58.7106C66.6948 58.7106 65.4996 58.9956 64.4101 59.5654L63.4832 57.7931ZM73.319 57.9933L73.6945 57.7949L74.6285 59.5635L74.2529 59.7618L73.319 57.9933ZM74.7859 44.9749V58.8775H72.7859V44.9749H74.7859ZM75.3475 45.2806L74.2532 45.859L73.3186 44.0908L74.4128 43.5125L75.3475 45.2806ZM80.8742 45.2844C79.1415 44.3785 77.0724 44.3786 75.3435 45.2827L74.4167 43.5104C76.7268 42.3024 79.4883 42.303 81.8008 43.512L80.8742 45.2844ZM81.9613 45.859L80.8702 45.2823L81.8049 43.5141L82.896 44.0909L81.9613 45.859ZM81.4286 58.8775V44.9749H83.4286V58.8775H81.4286ZM82.5238 57.7967L82.8959 57.9934L81.9613 59.7616L81.5891 59.5649L82.5238 57.7967ZM78.1065 56.7106C79.6213 56.7106 81.1372 57.0718 82.5197 57.7946L81.5932 59.567C80.5008 58.996 79.3034 58.7106 78.1065 58.7106V56.7106ZM73.6981 57.793C75.0785 57.0712 76.5924 56.7106 78.1065 56.7106V58.7106C76.91 58.7106 75.7147 58.9955 74.6249 59.5654L73.6981 57.793Z" fill="white" mask="url(#path-4-outside-1_444_5648)"/>
<g clip-path="url(#clip0_444_5648)">
<path d="M75.553 48.6149C75.8138 48.2065 76.3746 48.0368 77.1303 48.1342C77.157 48.1373 77.1853 48.142 77.212 48.1452C77.2229 48.1201 77.2339 48.0949 77.2465 48.0698C77.5717 47.3801 78.0163 47 78.5001 47C78.984 47 79.4301 47.3801 79.7537 48.0698C79.7647 48.0949 79.7773 48.1201 79.7883 48.1452C79.8165 48.1405 79.8432 48.1373 79.8699 48.1342C80.6271 48.0352 81.1864 48.2065 81.4472 48.6149C81.7079 49.0234 81.6278 49.603 81.2225 50.2471C81.1691 50.3319 81.111 50.4167 81.0481 50.5C81.111 50.5848 81.1691 50.6681 81.2225 50.7529C81.6278 51.397 81.7079 51.9782 81.4472 52.3851C81.2351 52.7181 80.8235 52.8925 80.269 52.8925C80.1361 52.8918 80.0033 52.8829 79.8715 52.8658C79.8448 52.8626 79.8165 52.8579 79.7899 52.8548C79.7788 52.8799 79.7678 52.905 79.7552 52.9302C79.4301 53.6198 78.9855 54 78.5017 54C78.0178 54 77.5717 53.6198 77.2481 52.9302C77.2371 52.905 77.2245 52.8799 77.2136 52.8548C77.1853 52.8595 77.1586 52.8626 77.1318 52.8658C77.0001 52.8836 76.8673 52.8925 76.7344 52.8925C76.1799 52.8925 75.7683 52.7181 75.5562 52.3851C75.2954 51.9767 75.3756 51.397 75.7808 50.7529C75.8343 50.6681 75.8924 50.5833 75.9552 50.5C75.8924 50.4151 75.8343 50.3319 75.7808 50.2471C75.3709 49.6015 75.2907 49.0218 75.553 48.6149ZM79.4693 48.2033C79.2039 47.6378 78.8504 47.3142 78.5001 47.3142C78.1498 47.3142 77.7963 47.6378 77.5309 48.2033C77.5307 48.2045 77.5301 48.2056 77.5293 48.2065C77.863 48.2867 78.1884 48.3977 78.5017 48.5379C78.8146 48.397 79.1402 48.286 79.4741 48.2065C79.4709 48.2065 79.4709 48.2049 79.4693 48.2033ZM77.0847 50.5C77.0846 50.7514 77.0982 51.0026 77.1256 51.2525C77.3214 51.4105 77.5259 51.5573 77.7382 51.6923C77.9832 51.8496 78.2383 51.9908 78.5017 52.1149C78.7646 51.9899 79.0196 51.8487 79.2651 51.6923C79.4772 51.5569 79.6817 51.4101 79.8778 51.2525C79.9323 50.7523 79.9323 50.2477 79.8778 49.7475C79.4544 49.4072 78.9925 49.1178 78.5017 48.8851C78.2388 49.0101 77.9838 49.1512 77.7382 49.3077C77.5261 49.443 77.3216 49.5899 77.1256 49.7475C77.0982 49.9974 77.0846 50.2486 77.0847 50.5ZM76.7847 50.0429C76.6308 50.1861 76.486 50.3388 76.3511 50.5C76.486 50.6612 76.6308 50.8138 76.7847 50.9571C76.7752 50.8063 76.7705 50.654 76.7705 50.5C76.7705 50.3461 76.7752 50.1937 76.7847 50.0429ZM77.19 51.6986C77.2396 51.9706 77.3115 52.238 77.4052 52.4982C77.6492 52.4431 77.8886 52.3696 78.1215 52.2783C77.9362 52.1809 77.7508 52.0741 77.567 51.9578C77.4381 51.8746 77.3125 51.7882 77.19 51.6986ZM78.8787 52.2783C79.1112 52.3708 79.3507 52.4443 79.595 52.4982C79.6887 52.238 79.7606 51.9706 79.8102 51.6986C79.6893 51.7882 79.5636 51.8746 79.4332 51.9562C79.2494 52.0741 79.064 52.1809 78.8787 52.2783ZM80.2155 50.9571C80.3694 50.8138 80.5141 50.6612 80.6491 50.5C80.5141 50.3388 80.3694 50.1861 80.2155 50.0429C80.225 50.1937 80.2297 50.3461 80.2297 50.5C80.2297 50.654 80.225 50.8063 80.2155 50.9571ZM79.8102 49.3014C79.7606 49.0294 79.6887 48.7619 79.595 48.5018C79.351 48.5569 79.1115 48.6304 78.8787 48.7217C79.064 48.8191 79.2494 48.926 79.4332 49.0422C79.5621 49.1255 79.6877 49.2119 79.8102 49.3014ZM77.5685 49.0422C77.7508 48.926 77.9362 48.8175 78.1231 48.7217C77.8906 48.6293 77.6511 48.5557 77.4067 48.5018C77.3131 48.7619 77.2412 49.0294 77.1915 49.3014C77.3125 49.2119 77.4381 49.1255 77.5685 49.0422ZM80.957 50.079C81.2901 49.5511 81.3718 49.0783 81.1832 48.783C81.0324 48.5474 80.7056 48.4201 80.2643 48.4201C80.1461 48.4206 80.028 48.4285 79.9108 48.4436H79.9077C80.0348 48.8132 80.1232 49.1949 80.1715 49.5826C80.4136 49.7845 80.639 50.0057 80.8455 50.2439C80.8848 50.1906 80.9224 50.1356 80.957 50.079ZM79.9123 52.5548C80.0295 52.57 80.1476 52.5779 80.2658 52.5783C80.7072 52.5783 81.034 52.4527 81.1848 52.2154C81.3733 51.9201 81.2916 51.4473 80.9586 50.9194C80.924 50.8645 80.8863 50.8079 80.847 50.7529C80.6406 50.9912 80.4152 51.2123 80.1731 51.4143C80.1247 51.802 80.0363 52.1837 79.9092 52.5532C79.9092 52.5548 79.9108 52.5548 79.9123 52.5548ZM77.5309 52.7967C77.7963 53.3622 78.1498 53.6858 78.5001 53.6858C78.8504 53.6858 79.2039 53.3622 79.4693 52.7967C79.4695 52.7955 79.4701 52.7944 79.4709 52.7935C79.1372 52.7133 78.8118 52.6023 78.4985 52.4621C78.1856 52.603 77.86 52.714 77.5261 52.7935C77.5293 52.7935 77.5293 52.7951 77.5309 52.7967ZM76.0432 50.921C75.7101 51.4488 75.6285 51.9217 75.817 52.217C76.0055 52.5123 76.4689 52.6365 77.0879 52.5548H77.091C76.9639 52.1852 76.8754 51.8036 76.8271 51.4159C76.585 51.2139 76.3596 50.9927 76.1532 50.7545C76.1154 50.8095 76.0778 50.8645 76.0432 50.921ZM76.8287 49.5842C76.877 49.1964 76.9655 48.8147 77.0925 48.4452H77.0894C76.4705 48.3651 76.0071 48.4876 75.8186 48.783C75.6301 49.0783 75.7117 49.5511 76.0448 50.079C76.0793 50.134 76.117 50.1906 76.1563 50.2455C76.3618 50.0069 76.5867 49.7857 76.8287 49.5842Z" fill="#F67C19"/>
<path d="M78.5 49.8779C78.8435 49.8779 79.1221 50.1565 79.1221 50.5C79.1221 50.8436 78.8435 51.1221 78.5 51.1221C78.1564 51.1221 77.8779 50.8436 77.8779 50.5C77.8781 50.1565 78.1565 49.8782 78.5 49.8779ZM78.5 50.8079C78.67 50.8079 78.8079 50.6701 78.8079 50.5C78.8079 50.33 78.67 50.1921 78.5 50.1921C78.3299 50.1921 78.192 50.33 78.192 50.5C78.1923 50.67 78.33 50.8077 78.5 50.8079Z" fill="#F07A16"/>
</g>
<g clip-path="url(#clip1_444_5648)">
<path d="M70.9959 51.635C70.9959 51.6276 70.9958 51.6213 70.9958 51.6164H70.5276C70.5276 51.6226 70.5277 51.6305 70.5278 51.6398H70.5276V51.7148C70.5213 52.0273 70.4458 52.2589 70.3028 52.4038C70.1806 52.5276 70.0079 52.5878 69.7747 52.5878C69.6021 52.5878 69.4735 52.5375 69.3816 52.4339C69.1785 52.2053 69.1813 51.7576 69.1995 51.6044L69.1946 51.6038L69.3751 49.4044H70.9958V48H66.4975C66.2402 48 65.9917 48.0765 65.7789 48.2212C65.5662 48.3659 65.4038 48.5689 65.3092 48.8083L65.3063 48.8156L65.0161 49.7251C65.0134 49.7315 65.0108 49.738 65.0082 49.7445L65.0097 49.7451L65.0029 49.7663L65.4436 49.9165C65.4448 49.9137 65.4459 49.9109 65.447 49.908L65.4489 49.9086L65.4555 49.8881C65.5847 49.5932 65.8723 49.4044 66.1965 49.4044H66.9019L66.8152 50.3292C66.6079 51.4546 66.1996 52.0306 65.9013 52.4515C65.6874 52.7532 65.5185 52.9915 65.5185 53.2978C65.5185 53.685 65.8335 54 66.2207 54C66.645 54 66.9552 53.7071 67.011 53.2538L67.0114 53.2504L67.3721 49.4044H68.9055L68.6523 52.4896C68.6485 52.5235 68.6318 52.6946 68.6518 52.9053C68.6828 53.2315 68.7825 53.4919 68.9482 53.6794C69.1291 53.884 69.3865 53.9922 69.6928 53.9922C69.9885 53.9922 70.2434 53.905 70.4504 53.7332C70.614 53.5973 70.744 53.4106 70.8367 53.1781C70.9843 52.8082 70.9958 52.4267 70.9958 52.3186V51.7179C70.9963 51.6906 70.9963 51.663 70.9959 51.635ZM66.546 53.1997C66.511 53.4741 66.35 53.5319 66.2207 53.5319C66.0917 53.5319 65.9867 53.4269 65.9867 53.2978C65.9867 53.1406 66.111 52.9651 66.2832 52.7222C66.3894 52.5724 66.5144 52.3961 66.6418 52.1782L66.546 53.1997ZM66.1965 48.9363C66.0358 48.9363 65.8786 48.9661 65.7313 49.0238L65.7474 48.9734C65.8719 48.6662 66.1655 48.4681 66.4975 48.4681H70.5276V48.9363H66.1965ZM70.4019 53.0046C70.2624 53.3542 70.0305 53.5241 69.6928 53.5241C69.5202 53.5241 69.3916 53.4737 69.2996 53.3702C69.1765 53.2315 69.129 53.0123 69.1148 52.8272C69.2878 52.9773 69.5135 53.0559 69.7747 53.0559C70.0354 53.0559 70.2593 52.9988 70.4434 52.8858C70.4314 52.9254 70.4176 52.9652 70.4019 53.0046Z" fill="url(#paint0_linear_444_5648)"/>
</g>
<path d="M34.0049 23.9512C35.0348 23.9876 35.8438 24.0059 36.4316 24.0059C36.9876 24.0059 37.7806 23.9876 38.8105 23.9512C38.8288 24.0241 38.8379 24.0742 38.8379 24.1016C38.8379 24.1517 38.8288 24.2087 38.8105 24.2725C38.6009 24.2907 38.43 24.3112 38.2979 24.334C38.1657 24.3522 38.0039 24.3841 37.8125 24.4297C37.6211 24.4753 37.4753 24.5413 37.375 24.6279C37.2747 24.71 37.2246 24.8102 37.2246 24.9287C37.2201 25.2249 37.2132 25.9199 37.2041 27.0137C37.1995 28.1074 37.1927 29.1305 37.1836 30.083C37.1745 30.8441 37.1608 31.4684 37.1426 31.9561C37.1289 32.4391 37.097 32.9769 37.0469 33.5693C37.0013 34.1572 36.9352 34.6289 36.8486 34.9844C36.7666 35.3444 36.6527 35.7113 36.5068 36.085C36.361 36.4632 36.1833 36.7526 35.9736 36.9531C35.7686 37.1536 35.5156 37.3177 35.2148 37.4453C34.9141 37.5729 34.5677 37.6367 34.1758 37.6367C33.515 37.6367 33.0023 37.4749 32.6377 37.1514C32.2731 36.8278 32.0908 36.445 32.0908 36.0029C32.0908 35.6247 32.1911 35.3307 32.3916 35.1211C32.5921 34.916 32.8564 34.8135 33.1846 34.8135C33.4535 34.8135 33.6836 34.8864 33.875 35.0322C34.0664 35.1781 34.1621 35.3945 34.1621 35.6816C34.1621 35.8366 34.1234 35.9733 34.0459 36.0918C33.9684 36.2148 33.8818 36.3037 33.7861 36.3584C33.695 36.4176 33.6107 36.4701 33.5332 36.5156C33.4557 36.5658 33.417 36.5999 33.417 36.6182C33.417 36.7913 33.4831 36.9326 33.6152 37.042C33.752 37.1514 33.9388 37.2061 34.1758 37.2061C34.431 37.2061 34.6452 37.1582 34.8184 37.0625C34.9961 36.9668 35.1396 36.8324 35.249 36.6592C35.363 36.486 35.4495 36.2445 35.5088 35.9346C35.568 35.6247 35.6068 35.2943 35.625 34.9434C35.6478 34.5924 35.6592 34.1527 35.6592 33.624C35.6592 29.1214 35.6364 26.223 35.5908 24.9287C35.5863 24.8102 35.5339 24.71 35.4336 24.6279C35.3333 24.5413 35.1875 24.4753 34.9961 24.4297C34.8047 24.3841 34.6429 24.3522 34.5107 24.334C34.3831 24.3112 34.2145 24.2907 34.0049 24.2725C33.9867 24.1904 33.9775 24.1335 33.9775 24.1016C33.9775 24.056 33.9867 24.0059 34.0049 23.9512Z" fill="black"/>
<path d="M81.5332 9.95117C82.554 9.98763 83.347 10.0059 83.9121 10.0059C84.4772 10.0059 85.2702 9.98763 86.291 9.95117C86.3092 10.0241 86.3184 10.0742 86.3184 10.1016C86.3184 10.1335 86.3092 10.1904 86.291 10.2725C86.0814 10.2907 85.9105 10.3112 85.7783 10.334C85.6507 10.3522 85.4912 10.3841 85.2998 10.4297C85.113 10.4753 84.9694 10.5413 84.8691 10.6279C84.7689 10.71 84.7165 10.8102 84.7119 10.9287C84.6527 12.4782 84.623 13.9206 84.623 15.2559C84.623 15.944 84.6481 17.3864 84.6982 19.583H86.8105C87.4805 19.5374 88.0798 19.4395 88.6084 19.2891C89.137 19.1387 89.5768 18.9473 89.9277 18.7148C90.2832 18.4779 90.5749 18.234 90.8027 17.9834C91.0352 17.7282 91.2357 17.4434 91.4043 17.1289C91.5228 17.1745 91.6003 17.236 91.6367 17.3135C91.4499 17.6598 91.304 17.9401 91.1992 18.1543C91.099 18.3685 90.9873 18.651 90.8643 19.002C90.7458 19.3483 90.6683 19.681 90.6318 20H84.6982C83.4632 20 82.4036 20.0137 81.5195 20.041C81.5013 19.9863 81.4922 19.9408 81.4922 19.9043C81.4922 19.8724 81.5013 19.8109 81.5195 19.7197C81.7292 19.7015 81.8978 19.6833 82.0254 19.665C82.1576 19.6423 82.3171 19.6081 82.5039 19.5625C82.6953 19.5169 82.8411 19.4531 82.9414 19.3711C83.0417 19.2845 83.0941 19.182 83.0986 19.0635C83.1533 17.637 83.1807 16.1992 83.1807 14.75C83.1807 13.2734 83.1579 11.9997 83.1123 10.9287C83.1077 10.8102 83.0553 10.71 82.9551 10.6279C82.8548 10.5413 82.709 10.4753 82.5176 10.4297C82.3307 10.3841 82.1712 10.3522 82.0391 10.334C81.9115 10.3112 81.7428 10.2907 81.5332 10.2725C81.515 10.1904 81.5059 10.1335 81.5059 10.1016C81.5059 10.056 81.515 10.0059 81.5332 9.95117Z" fill="black"/>
<path d="M108.005 23.9512C109.035 23.9876 109.844 24.0059 110.432 24.0059C110.988 24.0059 111.781 23.9876 112.811 23.9512C112.829 24.0241 112.838 24.0742 112.838 24.1016C112.838 24.1517 112.829 24.2087 112.811 24.2725C112.601 24.2907 112.43 24.3112 112.298 24.334C112.166 24.3522 112.004 24.3841 111.812 24.4297C111.621 24.4753 111.475 24.5413 111.375 24.6279C111.275 24.71 111.225 24.8102 111.225 24.9287C111.22 25.2249 111.213 25.9199 111.204 27.0137C111.2 28.1074 111.193 29.1305 111.184 30.083C111.174 30.8441 111.161 31.4684 111.143 31.9561C111.129 32.4391 111.097 32.9769 111.047 33.5693C111.001 34.1572 110.935 34.6289 110.849 34.9844C110.767 35.3444 110.653 35.7113 110.507 36.085C110.361 36.4632 110.183 36.7526 109.974 36.9531C109.769 37.1536 109.516 37.3177 109.215 37.4453C108.914 37.5729 108.568 37.6367 108.176 37.6367C107.515 37.6367 107.002 37.4749 106.638 37.1514C106.273 36.8278 106.091 36.445 106.091 36.0029C106.091 35.6247 106.191 35.3307 106.392 35.1211C106.592 34.916 106.856 34.8135 107.185 34.8135C107.453 34.8135 107.684 34.8864 107.875 35.0322C108.066 35.1781 108.162 35.3945 108.162 35.6816C108.162 35.8366 108.123 35.9733 108.046 36.0918C107.968 36.2148 107.882 36.3037 107.786 36.3584C107.695 36.4176 107.611 36.4701 107.533 36.5156C107.456 36.5658 107.417 36.5999 107.417 36.6182C107.417 36.7913 107.483 36.9326 107.615 37.042C107.752 37.1514 107.939 37.2061 108.176 37.2061C108.431 37.2061 108.645 37.1582 108.818 37.0625C108.996 36.9668 109.14 36.8324 109.249 36.6592C109.363 36.486 109.45 36.2445 109.509 35.9346C109.568 35.6247 109.607 35.2943 109.625 34.9434C109.648 34.5924 109.659 34.1527 109.659 33.624C109.659 29.1214 109.636 26.223 109.591 24.9287C109.586 24.8102 109.534 24.71 109.434 24.6279C109.333 24.5413 109.188 24.4753 108.996 24.4297C108.805 24.3841 108.643 24.3522 108.511 24.334C108.383 24.3112 108.215 24.2907 108.005 24.2725C107.987 24.1904 107.978 24.1335 107.978 24.1016C107.978 24.056 107.987 24.0059 108.005 23.9512Z" fill="black"/>
<path d="M53.5332 9.96484C54.2988 9.99219 55.0964 10.0059 55.9258 10.0059C56.3177 10.0059 56.6914 9.99674 57.0469 9.97852C57.4023 9.96029 57.5846 9.95117 57.5938 9.95117C57.8398 9.95117 58.0654 9.95801 58.2705 9.97168C58.4801 9.98079 58.7148 10.0036 58.9746 10.04C59.2389 10.0765 59.4736 10.1266 59.6787 10.1904C59.8838 10.2542 60.0889 10.3431 60.2939 10.457C60.5036 10.571 60.6768 10.7054 60.8135 10.8604C60.9548 11.0153 61.0687 11.2067 61.1553 11.4346C61.2419 11.6624 61.2852 11.9176 61.2852 12.2002C61.2852 13.0342 60.7861 13.6608 59.7881 14.0801V14.1348C60.5355 14.2715 61.1598 14.5814 61.6611 15.0645C62.167 15.5475 62.4199 16.165 62.4199 16.917C62.4199 17.318 62.347 17.6803 62.2012 18.0039C62.0599 18.3229 61.8776 18.5872 61.6543 18.7969C61.431 19.0065 61.1507 19.1888 60.8135 19.3438C60.4762 19.4987 60.1481 19.6172 59.8291 19.6992C59.5101 19.7812 59.1432 19.8473 58.7285 19.8975C58.3184 19.943 57.9674 19.9727 57.6758 19.9863C57.3841 19.9954 57.0583 20 56.6982 20C55.4632 20 54.4036 20.0137 53.5195 20.041C53.5013 19.9863 53.4922 19.9408 53.4922 19.9043C53.4922 19.8724 53.5013 19.8109 53.5195 19.7197C53.6562 19.7061 53.7656 19.6947 53.8477 19.6855C53.9297 19.6764 54.0413 19.6605 54.1826 19.6377C54.3285 19.6149 54.4447 19.5898 54.5312 19.5625C54.6224 19.5306 54.7158 19.4919 54.8115 19.4463C54.9072 19.4007 54.9779 19.346 55.0234 19.2822C55.0736 19.2184 55.0986 19.1455 55.0986 19.0635C55.1533 17.637 55.1807 16.1992 55.1807 14.75C55.1807 13.2734 55.1579 11.9997 55.1123 10.9287C55.1077 10.8102 55.0553 10.71 54.9551 10.6279C54.8594 10.5459 54.7135 10.4821 54.5176 10.4365C54.3216 10.391 54.1644 10.3613 54.0459 10.3477C53.9274 10.3294 53.7565 10.3089 53.5332 10.2861C53.515 10.2041 53.5059 10.1471 53.5059 10.1152C53.5059 10.0879 53.515 10.0378 53.5332 9.96484ZM56.623 14.75V15.2559L56.6982 19.5352C57.0036 19.5352 57.2747 19.5306 57.5117 19.5215C57.7487 19.5078 58.0085 19.4805 58.291 19.4395C58.5736 19.3939 58.8197 19.3346 59.0293 19.2617C59.2389 19.1888 59.4486 19.0885 59.6582 18.9609C59.8678 18.8288 60.0387 18.6738 60.1709 18.4961C60.3031 18.3184 60.4102 18.0996 60.4922 17.8398C60.5742 17.5755 60.6152 17.2793 60.6152 16.9512C60.6152 16.6322 60.5628 16.3473 60.458 16.0967C60.3532 15.8415 60.2051 15.6296 60.0137 15.4609C59.8268 15.2878 59.5967 15.1442 59.3232 15.0303C59.0544 14.9163 58.7604 14.8343 58.4414 14.7842C58.127 14.734 57.7829 14.709 57.4092 14.709C57.1494 14.709 56.8874 14.7227 56.623 14.75ZM56.7119 10.4365L56.623 14.333C58.4824 14.333 59.4121 13.6221 59.4121 12.2002C59.4121 11.5804 59.2184 11.1247 58.8311 10.833C58.4482 10.5413 57.9378 10.3955 57.2998 10.3955C57.1585 10.3955 56.9626 10.4092 56.7119 10.4365Z" fill="black"/>
<path d="M110.221 72.3C110.405 72.62 110.601 72.904 110.809 73.152C111.025 73.392 111.261 73.58 111.517 73.716C111.773 73.844 112.061 73.908 112.381 73.908C112.765 73.908 113.077 73.804 113.317 73.596C113.557 73.388 113.677 73.12 113.677 72.792C113.677 72.48 113.601 72.232 113.449 72.048C113.297 71.856 113.085 71.696 112.813 71.568C112.549 71.432 112.241 71.3 111.889 71.172C111.681 71.1 111.449 71.004 111.193 70.884C110.937 70.756 110.693 70.6 110.461 70.416C110.229 70.224 110.037 69.992 109.885 69.72C109.733 69.44 109.657 69.104 109.657 68.712C109.657 68.264 109.773 67.872 110.005 67.536C110.237 67.192 110.549 66.928 110.941 66.744C111.341 66.552 111.793 66.456 112.297 66.456C112.793 66.456 113.225 66.544 113.593 66.72C113.961 66.896 114.269 67.12 114.517 67.392C114.773 67.664 114.973 67.948 115.117 68.244L113.965 68.892C113.861 68.684 113.729 68.492 113.569 68.316C113.409 68.132 113.221 67.988 113.005 67.884C112.797 67.772 112.553 67.716 112.273 67.716C111.881 67.716 111.593 67.808 111.409 67.992C111.225 68.168 111.133 68.376 111.133 68.616C111.133 68.832 111.197 69.028 111.325 69.204C111.461 69.372 111.669 69.532 111.949 69.684C112.229 69.836 112.593 69.992 113.041 70.152C113.289 70.24 113.537 70.352 113.785 70.488C114.041 70.624 114.273 70.796 114.481 71.004C114.689 71.204 114.853 71.44 114.973 71.712C115.101 71.984 115.165 72.304 115.165 72.672C115.165 73.064 115.089 73.416 114.937 73.728C114.785 74.04 114.577 74.304 114.313 74.52C114.049 74.728 113.749 74.888 113.413 75C113.085 75.12 112.741 75.18 112.381 75.18C111.885 75.18 111.425 75.084 111.001 74.892C110.585 74.692 110.221 74.428 109.909 74.1C109.597 73.772 109.349 73.416 109.165 73.032L110.221 72.3Z" fill="black"/>
<path d="M100.651 66.6H102.067V73.728H105.403V75H100.651V66.6Z" fill="black"/>
<path d="M90.1346 72.84L90.3986 71.64H94.2986L94.5746 72.84H90.1346ZM92.3306 68.976L91.0106 72.06L90.9866 72.372L89.8226 75H88.2266L92.3306 66.132L96.4346 75H94.8386L93.6986 72.444L93.6626 72.096L92.3306 68.976Z" fill="black"/>
<path d="M82.582 66.6H84.01V75H82.582V66.6Z" fill="black"/>
<path d="M73.9331 70.992H75.4691L78.3131 75H76.6091L73.9331 70.992ZM72.2051 66.6H73.6211V75H72.2051V66.6ZM73.0451 67.824V66.6H74.7971C75.4051 66.6 75.9331 66.708 76.3811 66.924C76.8371 67.14 77.1891 67.444 77.4371 67.836C77.6851 68.22 77.8091 68.676 77.8091 69.204C77.8091 69.732 77.6851 70.192 77.4371 70.584C77.1891 70.976 76.8371 71.28 76.3811 71.496C75.9331 71.712 75.4051 71.82 74.7971 71.82H73.0451V70.656H74.7371C75.0571 70.656 75.3371 70.6 75.5771 70.488C75.8251 70.376 76.0171 70.216 76.1531 70.008C76.2891 69.792 76.3571 69.536 76.3571 69.24C76.3571 68.936 76.2891 68.68 76.1531 68.472C76.0171 68.264 75.8251 68.104 75.5771 67.992C75.3371 67.88 75.0571 67.824 74.7371 67.824H73.0451Z" fill="black"/>
<path d="M60.3643 70.8C60.3643 71.376 60.4843 71.892 60.7243 72.348C60.9723 72.796 61.3123 73.148 61.7443 73.404C62.1763 73.66 62.6683 73.788 63.2203 73.788C63.7803 73.788 64.2723 73.66 64.6963 73.404C65.1283 73.148 65.4643 72.796 65.7043 72.348C65.9523 71.892 66.0763 71.376 66.0763 70.8C66.0763 70.224 65.9563 69.712 65.7163 69.264C65.4763 68.808 65.1403 68.452 64.7083 68.196C64.2843 67.94 63.7883 67.812 63.2203 67.812C62.6683 67.812 62.1763 67.94 61.7443 68.196C61.3123 68.452 60.9723 68.808 60.7243 69.264C60.4843 69.712 60.3643 70.224 60.3643 70.8ZM58.8643 70.8C58.8643 70.168 58.9723 69.588 59.1883 69.06C59.4043 68.532 59.7083 68.076 60.1003 67.692C60.5003 67.3 60.9643 66.996 61.4923 66.78C62.0283 66.564 62.6043 66.456 63.2203 66.456C63.8523 66.456 64.4323 66.564 64.9603 66.78C65.4883 66.996 65.9483 67.3 66.3403 67.692C66.7403 68.076 67.0483 68.532 67.2643 69.06C67.4803 69.588 67.5883 70.168 67.5883 70.8C67.5883 71.424 67.4803 72.004 67.2643 72.54C67.0483 73.076 66.7443 73.54 66.3523 73.932C65.9603 74.324 65.4963 74.632 64.9603 74.856C64.4323 75.072 63.8523 75.18 63.2203 75.18C62.5963 75.18 62.0163 75.072 61.4803 74.856C60.9443 74.632 60.4803 74.324 60.0883 73.932C59.7043 73.54 59.4043 73.076 59.1883 72.54C58.9723 72.004 58.8643 71.424 58.8643 70.8Z" fill="black"/>
<path d="M49.8154 67.908V66.6H55.6714V67.908H53.4514V75H52.0234V67.908H49.8154Z" fill="black"/>
<path d="M39.4795 66.6H40.8955V72.18C40.8955 72.7 41.0315 73.12 41.3035 73.44C41.5835 73.752 41.9955 73.908 42.5395 73.908C43.0755 73.908 43.4835 73.752 43.7635 73.44C44.0435 73.12 44.1835 72.7 44.1835 72.18V66.6H45.5995V72.24C45.5995 72.704 45.5235 73.12 45.3715 73.488C45.2275 73.848 45.0195 74.156 44.7475 74.412C44.4755 74.668 44.1515 74.864 43.7755 75C43.3995 75.136 42.9875 75.204 42.5395 75.204C42.0915 75.204 41.6795 75.136 41.3035 75C40.9275 74.864 40.5995 74.668 40.3195 74.412C40.0475 74.156 39.8395 73.848 39.6955 73.488C39.5515 73.12 39.4795 72.704 39.4795 72.24V66.6Z" fill="black"/>
<path d="M29.4131 67.908V66.6H35.2691V67.908H33.0491V75H31.6211V67.908H29.4131Z" fill="black"/>
<path d="M142.707 91.12C142.107 91.12 141.583 91 141.135 90.76C140.687 90.52 140.339 90.188 140.091 89.764C139.851 89.332 139.731 88.824 139.731 88.24C139.731 87.648 139.851 87.14 140.091 86.716C140.339 86.284 140.687 85.952 141.135 85.72C141.583 85.48 142.111 85.36 142.719 85.36C143.327 85.36 143.843 85.472 144.267 85.696C144.699 85.912 145.027 86.232 145.251 86.656C145.475 87.072 145.587 87.576 145.587 88.168C145.587 88.24 145.583 88.316 145.575 88.396C145.575 88.476 145.571 88.54 145.563 88.588H140.619V87.628H144.207L143.787 88.18C143.819 88.132 143.847 88.068 143.871 87.988C143.903 87.9 143.919 87.828 143.919 87.772C143.919 87.5 143.867 87.268 143.763 87.076C143.667 86.884 143.527 86.732 143.343 86.62C143.159 86.508 142.943 86.452 142.695 86.452C142.391 86.452 142.135 86.52 141.927 86.656C141.727 86.784 141.571 86.98 141.459 87.244C141.355 87.5 141.299 87.82 141.291 88.204C141.291 88.572 141.343 88.884 141.447 89.14C141.559 89.396 141.723 89.592 141.939 89.728C142.155 89.864 142.415 89.932 142.719 89.932C143.063 89.932 143.355 89.868 143.595 89.74C143.843 89.604 144.047 89.404 144.207 89.14L145.563 89.56C145.275 90.08 144.891 90.472 144.411 90.736C143.939 90.992 143.371 91.12 142.707 91.12Z" fill="black"/>
<path d="M136.964 87.64C136.964 87.272 136.892 86.992 136.748 86.8C136.604 86.608 136.372 86.512 136.052 86.512C135.836 86.512 135.644 86.56 135.476 86.656C135.308 86.744 135.18 86.872 135.092 87.04C135.004 87.208 134.96 87.408 134.96 87.64V91H133.4V85.48H134.96V86.32C135.128 86.008 135.348 85.772 135.62 85.612C135.9 85.444 136.236 85.36 136.628 85.36C137.284 85.36 137.772 85.548 138.092 85.924C138.412 86.292 138.572 86.808 138.572 87.472V91H136.964V87.64Z" fill="black"/>
<path d="M130.07 83.344C130.07 83.088 130.162 82.88 130.346 82.72C130.53 82.552 130.75 82.468 131.006 82.468C131.262 82.468 131.478 82.552 131.654 82.72C131.838 82.88 131.93 83.088 131.93 83.344C131.93 83.592 131.838 83.8 131.654 83.968C131.478 84.136 131.262 84.22 131.006 84.22C130.75 84.22 130.53 84.136 130.346 83.968C130.162 83.8 130.07 83.592 130.07 83.344ZM130.238 85.48H131.75V91H130.238V85.48Z" fill="black"/>
<path d="M125.046 81.64V91H123.486V81.64H125.046ZM127.05 87.64C127.05 87.272 126.978 86.992 126.834 86.8C126.698 86.608 126.466 86.512 126.138 86.512C125.922 86.512 125.73 86.56 125.562 86.656C125.394 86.744 125.266 86.872 125.178 87.04C125.09 87.208 125.046 87.408 125.046 87.64H124.734C124.734 87.2 124.806 86.804 124.95 86.452C125.102 86.1 125.326 85.82 125.622 85.612C125.918 85.404 126.282 85.3 126.714 85.3C127.146 85.3 127.502 85.38 127.782 85.54C128.062 85.7 128.27 85.94 128.406 86.26C128.542 86.572 128.61 86.956 128.61 87.412V91H127.05V87.64Z" fill="black"/>
<path d="M118.489 89.092C118.721 89.308 118.937 89.484 119.137 89.62C119.337 89.748 119.525 89.844 119.701 89.908C119.885 89.972 120.057 90.004 120.217 90.004C120.425 90.004 120.585 89.96 120.697 89.872C120.809 89.776 120.865 89.648 120.865 89.488C120.865 89.344 120.817 89.224 120.721 89.128C120.633 89.024 120.501 88.932 120.325 88.852C120.149 88.772 119.925 88.688 119.653 88.6C119.397 88.504 119.149 88.392 118.909 88.264C118.669 88.128 118.469 87.952 118.309 87.736C118.157 87.512 118.081 87.228 118.081 86.884C118.081 86.556 118.169 86.28 118.345 86.056C118.521 85.824 118.757 85.652 119.053 85.54C119.357 85.42 119.693 85.36 120.061 85.36C120.373 85.36 120.665 85.4 120.937 85.48C121.209 85.56 121.461 85.668 121.693 85.804C121.925 85.932 122.129 86.084 122.305 86.26L121.621 87.22C121.421 87.004 121.181 86.828 120.901 86.692C120.629 86.556 120.361 86.488 120.097 86.488C119.921 86.488 119.781 86.524 119.677 86.596C119.581 86.66 119.533 86.76 119.533 86.896C119.533 87.016 119.581 87.124 119.677 87.22C119.781 87.308 119.925 87.388 120.109 87.46C120.301 87.532 120.517 87.62 120.757 87.724C121.053 87.836 121.325 87.964 121.573 88.108C121.829 88.244 122.033 88.416 122.185 88.624C122.337 88.832 122.413 89.104 122.413 89.44C122.413 89.992 122.233 90.424 121.873 90.736C121.513 91.04 121.017 91.192 120.385 91.192C119.993 91.192 119.633 91.14 119.305 91.036C118.985 90.932 118.693 90.796 118.429 90.628C118.173 90.452 117.941 90.264 117.733 90.064L118.489 89.092Z" fill="black"/>
<path d="M115.074 87.64C115.074 87.272 115.002 86.992 114.858 86.8C114.714 86.608 114.482 86.512 114.162 86.512C113.946 86.512 113.754 86.56 113.586 86.656C113.418 86.744 113.29 86.872 113.202 87.04C113.114 87.208 113.07 87.408 113.07 87.64V91H111.51V85.48H113.07V86.32C113.238 86.008 113.458 85.772 113.73 85.612C114.01 85.444 114.346 85.36 114.738 85.36C115.394 85.36 115.882 85.548 116.202 85.924C116.522 86.292 116.682 86.808 116.682 87.472V91H115.074V87.64Z" fill="black"/>
<path d="M106.415 88.84C106.415 89.2 106.487 89.48 106.631 89.68C106.775 89.872 107.007 89.968 107.327 89.968C107.551 89.968 107.743 89.924 107.903 89.836C108.071 89.74 108.199 89.608 108.287 89.44C108.383 89.272 108.431 89.072 108.431 88.84V85.48H109.979V91H108.431V90.16C108.255 90.472 108.031 90.712 107.759 90.88C107.487 91.04 107.155 91.12 106.763 91.12C106.107 91.12 105.615 90.932 105.287 90.556C104.967 90.18 104.807 89.664 104.807 89.008V85.48H106.415V88.84Z" fill="black"/>
<path d="M98.476 88.18C98.652 88.492 98.844 88.764 99.052 88.996C99.268 89.228 99.504 89.408 99.76 89.536C100.016 89.664 100.292 89.728 100.588 89.728C100.932 89.728 101.212 89.64 101.428 89.464C101.644 89.288 101.752 89.048 101.752 88.744C101.752 88.48 101.684 88.268 101.548 88.108C101.42 87.948 101.224 87.808 100.96 87.688C100.704 87.56 100.388 87.424 100.012 87.28C99.812 87.208 99.58 87.112 99.316 86.992C99.06 86.864 98.816 86.704 98.584 86.512C98.352 86.312 98.16 86.072 98.008 85.792C97.856 85.504 97.78 85.16 97.78 84.76C97.78 84.28 97.9 83.868 98.14 83.524C98.388 83.172 98.72 82.904 99.136 82.72C99.56 82.528 100.032 82.432 100.552 82.432C101.088 82.432 101.548 82.524 101.932 82.708C102.324 82.884 102.648 83.112 102.904 83.392C103.168 83.664 103.372 83.948 103.516 84.244L102.172 84.988C102.06 84.788 101.924 84.608 101.764 84.448C101.612 84.28 101.436 84.148 101.236 84.052C101.036 83.948 100.808 83.896 100.552 83.896C100.216 83.896 99.964 83.976 99.796 84.136C99.628 84.288 99.544 84.468 99.544 84.676C99.544 84.884 99.612 85.068 99.748 85.228C99.884 85.38 100.092 85.528 100.372 85.672C100.652 85.808 101.004 85.948 101.428 86.092C101.7 86.188 101.96 86.308 102.208 86.452C102.464 86.596 102.692 86.772 102.892 86.98C103.1 87.18 103.26 87.42 103.372 87.7C103.492 87.972 103.552 88.288 103.552 88.648C103.552 89.056 103.472 89.42 103.312 89.74C103.152 90.06 102.932 90.332 102.652 90.556C102.372 90.772 102.056 90.936 101.704 91.048C101.36 91.168 100.996 91.228 100.612 91.228C100.1 91.228 99.62 91.132 99.172 90.94C98.732 90.74 98.348 90.472 98.02 90.136C97.692 89.8 97.436 89.436 97.252 89.044L98.476 88.18Z" fill="black"/>
<path d="M90.8628 87.64C90.8628 87.272 90.7908 86.992 90.6468 86.8C90.5028 86.608 90.2708 86.512 89.9508 86.512C89.7348 86.512 89.5428 86.56 89.3748 86.656C89.2068 86.744 89.0788 86.872 88.9908 87.04C88.9028 87.208 88.8588 87.408 88.8588 87.64V91H87.2988V85.48H88.8588V86.32C89.0268 86.008 89.2468 85.772 89.5188 85.612C89.7988 85.444 90.1348 85.36 90.5268 85.36C91.1828 85.36 91.6708 85.548 91.9908 85.924C92.3108 86.292 92.4708 86.808 92.4708 87.472V91H90.8628V87.64Z" fill="black"/>
<path d="M77.6465 85.48H79.3025L80.5145 88.54L82.0745 85.06L83.6945 88.552L84.9185 85.48H86.5625L83.8625 91.372L82.0865 87.856L80.3585 91.372L77.6465 85.48Z" fill="black"/>
<path d="M70.0366 86.8C70.0366 87.336 70.1486 87.812 70.3726 88.228C70.5966 88.644 70.9046 88.972 71.2966 89.212C71.6886 89.452 72.1446 89.572 72.6646 89.572C73.1846 89.572 73.6406 89.452 74.0326 89.212C74.4246 88.972 74.7286 88.644 74.9446 88.228C75.1686 87.812 75.2806 87.336 75.2806 86.8C75.2806 86.264 75.1726 85.788 74.9566 85.372C74.7406 84.956 74.4366 84.628 74.0446 84.388C73.6526 84.148 73.1926 84.028 72.6646 84.028C72.1446 84.028 71.6886 84.148 71.2966 84.388C70.9046 84.628 70.5966 84.956 70.3726 85.372C70.1486 85.788 70.0366 86.264 70.0366 86.8ZM68.2246 86.8C68.2246 86.16 68.3366 85.576 68.5606 85.048C68.7846 84.512 69.0966 84.048 69.4966 83.656C69.8966 83.264 70.3646 82.964 70.9006 82.756C71.4446 82.54 72.0326 82.432 72.6646 82.432C73.3046 82.432 73.8926 82.54 74.4286 82.756C74.9646 82.964 75.4326 83.264 75.8326 83.656C76.2406 84.048 76.5526 84.512 76.7686 85.048C76.9926 85.576 77.1046 86.16 77.1046 86.8C77.1046 87.432 76.9926 88.02 76.7686 88.564C76.5526 89.1 76.2446 89.568 75.8446 89.968C75.4526 90.368 74.9846 90.68 74.4406 90.904C73.9046 91.12 73.3126 91.228 72.6646 91.228C72.0166 91.228 71.4206 91.12 70.8766 90.904C70.3406 90.68 69.8726 90.368 69.4726 89.968C69.0726 89.568 68.7646 89.1 68.5486 88.564C68.3326 88.02 68.2246 87.432 68.2246 86.8Z" fill="black"/>
<path d="M61.8111 85.48V91H60.2871V85.48H61.8111ZM63.4311 87.1C63.3271 87.004 63.2191 86.932 63.1071 86.884C63.0031 86.828 62.8711 86.8 62.7111 86.8C62.5191 86.8 62.3551 86.852 62.2191 86.956C62.0831 87.06 61.9791 87.208 61.9071 87.4C61.8431 87.584 61.8111 87.808 61.8111 88.072L61.3791 87.64C61.3791 87.2 61.4631 86.812 61.6311 86.476C61.7991 86.132 62.0191 85.86 62.2911 85.66C62.5631 85.452 62.8431 85.348 63.1311 85.348C63.3311 85.348 63.5191 85.384 63.6951 85.456C63.8791 85.528 64.0271 85.636 64.1391 85.78L63.4311 87.1Z" fill="black"/>
<path d="M55.192 88.84C55.192 89.2 55.264 89.48 55.408 89.68C55.552 89.872 55.784 89.968 56.104 89.968C56.328 89.968 56.52 89.924 56.68 89.836C56.848 89.74 56.976 89.608 57.064 89.44C57.16 89.272 57.208 89.072 57.208 88.84V85.48H58.756V91H57.208V90.16C57.032 90.472 56.808 90.712 56.536 90.88C56.264 91.04 55.932 91.12 55.54 91.12C54.884 91.12 54.392 90.932 54.064 90.556C53.744 90.18 53.584 89.664 53.584 89.008V85.48H55.192V88.84Z" fill="black"/>
<path d="M46.2979 88.24C46.2979 87.664 46.4299 87.16 46.6939 86.728C46.9659 86.296 47.3299 85.96 47.7859 85.72C48.2499 85.48 48.7739 85.36 49.3579 85.36C49.9419 85.36 50.4619 85.48 50.9179 85.72C51.3819 85.96 51.7459 86.296 52.0099 86.728C52.2819 87.16 52.4179 87.664 52.4179 88.24C52.4179 88.808 52.2819 89.312 52.0099 89.752C51.7459 90.184 51.3819 90.52 50.9179 90.76C50.4619 91 49.9419 91.12 49.3579 91.12C48.7739 91.12 48.2499 91 47.7859 90.76C47.3299 90.52 46.9659 90.184 46.6939 89.752C46.4299 89.312 46.2979 88.808 46.2979 88.24ZM47.8819 88.24C47.8819 88.552 47.9459 88.828 48.0739 89.068C48.2099 89.3 48.3899 89.484 48.6139 89.62C48.8379 89.748 49.0859 89.812 49.3579 89.812C49.6299 89.812 49.8779 89.748 50.1019 89.62C50.3259 89.484 50.5019 89.3 50.6299 89.068C50.7659 88.828 50.8339 88.552 50.8339 88.24C50.8339 87.928 50.7659 87.652 50.6299 87.412C50.5019 87.172 50.3259 86.988 50.1019 86.86C49.8779 86.732 49.6299 86.668 49.3579 86.668C49.0859 86.668 48.8379 86.732 48.6139 86.86C48.3899 86.988 48.2099 87.172 48.0739 87.412C47.9459 87.652 47.8819 87.928 47.8819 88.24Z" fill="black"/>
<path d="M45.1305 82.6H47.0865L44.1945 87.52V91H42.4545V87.532L39.5625 82.6H41.5185L43.3185 85.984L45.1305 82.6Z" fill="black"/>
<path d="M32.6684 91.12C32.0684 91.12 31.5444 91 31.0964 90.76C30.6484 90.52 30.3004 90.188 30.0524 89.764C29.8124 89.332 29.6924 88.824 29.6924 88.24C29.6924 87.648 29.8124 87.14 30.0524 86.716C30.3004 86.284 30.6484 85.952 31.0964 85.72C31.5444 85.48 32.0724 85.36 32.6804 85.36C33.2884 85.36 33.8044 85.472 34.2284 85.696C34.6604 85.912 34.9884 86.232 35.2124 86.656C35.4364 87.072 35.5484 87.576 35.5484 88.168C35.5484 88.24 35.5444 88.316 35.5364 88.396C35.5364 88.476 35.5324 88.54 35.5244 88.588H30.5804V87.628H34.1684L33.7484 88.18C33.7804 88.132 33.8084 88.068 33.8324 87.988C33.8644 87.9 33.8804 87.828 33.8804 87.772C33.8804 87.5 33.8284 87.268 33.7244 87.076C33.6284 86.884 33.4884 86.732 33.3044 86.62C33.1204 86.508 32.9044 86.452 32.6564 86.452C32.3524 86.452 32.0964 86.52 31.8884 86.656C31.6884 86.784 31.5324 86.98 31.4204 87.244C31.3164 87.5 31.2604 87.82 31.2524 88.204C31.2524 88.572 31.3044 88.884 31.4084 89.14C31.5204 89.396 31.6844 89.592 31.9004 89.728C32.1164 89.864 32.3764 89.932 32.6804 89.932C33.0244 89.932 33.3164 89.868 33.5564 89.74C33.8044 89.604 34.0084 89.404 34.1684 89.14L35.5244 89.56C35.2364 90.08 34.8524 90.472 34.3724 90.736C33.9004 90.992 33.3324 91.12 32.6684 91.12Z" fill="black"/>
<path d="M25.8291 85.48H29.2371V86.788H25.8291V85.48ZM26.7771 83.56H28.2771V91H26.7771V83.56Z" fill="black"/>
<path d="M21.3832 89.284C21.3832 89.444 21.4232 89.584 21.5032 89.704C21.5832 89.816 21.6912 89.904 21.8272 89.968C21.9712 90.024 22.1272 90.052 22.2952 90.052C22.5352 90.052 22.7512 90.004 22.9432 89.908C23.1352 89.804 23.2912 89.66 23.4112 89.476C23.5312 89.284 23.5912 89.056 23.5912 88.792L23.7832 89.512C23.7832 89.864 23.6832 90.16 23.4832 90.4C23.2912 90.64 23.0392 90.82 22.7272 90.94C22.4232 91.06 22.1032 91.12 21.7672 91.12C21.4232 91.12 21.1032 91.052 20.8072 90.916C20.5112 90.78 20.2712 90.584 20.0872 90.328C19.9112 90.064 19.8232 89.744 19.8232 89.368C19.8232 88.832 20.0112 88.408 20.3872 88.096C20.7632 87.784 21.2952 87.628 21.9832 87.628C22.3352 87.628 22.6432 87.664 22.9072 87.736C23.1792 87.808 23.4072 87.896 23.5912 88C23.7752 88.104 23.9072 88.204 23.9872 88.3V89.02C23.7712 88.86 23.5272 88.74 23.2552 88.66C22.9912 88.58 22.7112 88.54 22.4152 88.54C22.1752 88.54 21.9792 88.572 21.8272 88.636C21.6752 88.692 21.5632 88.776 21.4912 88.888C21.4192 88.992 21.3832 89.124 21.3832 89.284ZM20.7832 87.04L20.2072 85.984C20.4952 85.832 20.8472 85.688 21.2632 85.552C21.6792 85.408 22.1432 85.336 22.6552 85.336C23.1272 85.336 23.5472 85.404 23.9152 85.54C24.2832 85.676 24.5712 85.876 24.7792 86.14C24.9872 86.396 25.0912 86.712 25.0912 87.088V91H23.5912V87.412C23.5912 87.26 23.5672 87.132 23.5192 87.028C23.4712 86.916 23.3952 86.824 23.2912 86.752C23.1952 86.68 23.0792 86.628 22.9432 86.596C22.8072 86.564 22.6552 86.548 22.4872 86.548C22.2312 86.548 21.9872 86.576 21.7552 86.632C21.5232 86.688 21.3232 86.756 21.1552 86.836C20.9872 86.916 20.8632 86.984 20.7832 87.04Z" fill="black"/>
<path d="M16.227 91.12C15.627 91.12 15.103 91 14.655 90.76C14.207 90.52 13.859 90.188 13.611 89.764C13.371 89.332 13.251 88.824 13.251 88.24C13.251 87.648 13.371 87.14 13.611 86.716C13.859 86.284 14.207 85.952 14.655 85.72C15.103 85.48 15.631 85.36 16.239 85.36C16.847 85.36 17.363 85.472 17.787 85.696C18.219 85.912 18.547 86.232 18.771 86.656C18.995 87.072 19.107 87.576 19.107 88.168C19.107 88.24 19.103 88.316 19.095 88.396C19.095 88.476 19.091 88.54 19.083 88.588H14.139V87.628H17.727L17.307 88.18C17.339 88.132 17.367 88.068 17.391 87.988C17.423 87.9 17.439 87.828 17.439 87.772C17.439 87.5 17.387 87.268 17.283 87.076C17.187 86.884 17.047 86.732 16.863 86.62C16.679 86.508 16.463 86.452 16.215 86.452C15.911 86.452 15.655 86.52 15.447 86.656C15.247 86.784 15.091 86.98 14.979 87.244C14.875 87.5 14.819 87.82 14.811 88.204C14.811 88.572 14.863 88.884 14.967 89.14C15.079 89.396 15.243 89.592 15.459 89.728C15.675 89.864 15.935 89.932 16.239 89.932C16.583 89.932 16.875 89.868 17.115 89.74C17.363 89.604 17.567 89.404 17.727 89.14L19.083 89.56C18.795 90.08 18.411 90.472 17.931 90.736C17.459 90.992 16.891 91.12 16.227 91.12Z" fill="black"/>
<path d="M10.647 85.48V91H9.12305V85.48H10.647ZM12.267 87.1C12.163 87.004 12.055 86.932 11.943 86.884C11.839 86.828 11.707 86.8 11.547 86.8C11.355 86.8 11.191 86.852 11.055 86.956C10.919 87.06 10.815 87.208 10.743 87.4C10.679 87.584 10.647 87.808 10.647 88.072L10.215 87.64C10.215 87.2 10.299 86.812 10.467 86.476C10.635 86.132 10.855 85.86 11.127 85.66C11.399 85.452 11.679 85.348 11.967 85.348C12.167 85.348 12.355 85.384 12.531 85.456C12.715 85.528 12.863 85.636 12.975 85.78L12.267 87.1Z" fill="black"/>
<path d="M2.29164 86.8C2.29164 87.352 2.41564 87.836 2.66364 88.252C2.91964 88.66 3.25164 88.976 3.65964 89.2C4.06764 89.416 4.51164 89.524 4.99164 89.524C5.39164 89.524 5.74764 89.472 6.05964 89.368C6.37164 89.264 6.65164 89.124 6.89964 88.948C7.15564 88.772 7.37564 88.58 7.55964 88.372V90.304C7.21564 90.576 6.83964 90.788 6.43164 90.94C6.03164 91.092 5.52364 91.168 4.90764 91.168C4.26764 91.168 3.67164 91.064 3.11964 90.856C2.57564 90.648 2.09964 90.348 1.69164 89.956C1.29164 89.564 0.979641 89.104 0.755641 88.576C0.539641 88.04 0.431641 87.448 0.431641 86.8C0.431641 86.152 0.539641 85.564 0.755641 85.036C0.979641 84.5 1.29164 84.036 1.69164 83.644C2.09964 83.252 2.57564 82.952 3.11964 82.744C3.67164 82.536 4.26764 82.432 4.90764 82.432C5.52364 82.432 6.03164 82.508 6.43164 82.66C6.83964 82.812 7.21564 83.024 7.55964 83.296V85.228C7.37564 85.02 7.15564 84.828 6.89964 84.652C6.65164 84.476 6.37164 84.336 6.05964 84.232C5.74764 84.128 5.39164 84.076 4.99164 84.076C4.51164 84.076 4.06764 84.188 3.65964 84.412C3.25164 84.628 2.91964 84.94 2.66364 85.348C2.41564 85.756 2.29164 86.24 2.29164 86.8Z" fill="black"/>
<line x1="26" y1="70.5" x2="-4.37114e-08" y2="70.5" stroke="#55AE3A"/>
<line x1="146" y1="70.5" x2="120" y2="70.5" stroke="#55AE3A"/>
<defs>
<linearGradient id="paint0_linear_444_5648" x1="67.9996" y1="48" x2="67.9996" y2="54" gradientUnits="userSpaceOnUse">
<stop stop-color="#6FAB4B"/>
<stop offset="1" stop-color="#0A82BE"/>
</linearGradient>
<clipPath id="clip0_444_5648">
<rect width="7" height="7" fill="white" transform="matrix(-1 0 0 1 82 47)"/>
</clipPath>
<clipPath id="clip1_444_5648">
<rect width="6" height="6" fill="white" transform="translate(65 48)"/>
</clipPath>
</defs>
</svg>
