<svg width="274" height="199" viewBox="0 0 274 199" fill="none" xmlns="http://www.w3.org/2000/svg">
<path d="M0 12C0 5.37258 5.37258 0 12 0H262C268.627 0 274 5.37258 274 12V199H0V12Z" fill="#EC8425"/>
<g clip-path="url(#clip0_484_1323)">
<path d="M133.029 167.352C127.462 165.217 128.316 163.312 114.457 157.273C102.148 151.91 72.9422 163.078 61.1236 125.094C44.2356 70.8175 98.4086 28.1838 161.268 48.0815C174.1 52.1434 212.544 76.2775 206.891 119.455C203.972 141.756 188.024 160.885 166.544 167.059C156.78 169.866 144.699 171.829 133.029 167.352Z" fill="#F6E3D3" fill-opacity="0.6"/>
<path d="M123.34 81.1243H97.3783V130.177H123.34V81.1243Z" fill="white"/>
<path d="M123.332 30.0115H97.3699V79.0637H123.332V30.0115Z" fill="white"/>
<path d="M151.362 81.1196H125.4V130.172H151.362V81.1196Z" fill="white"/>
<path d="M151.354 30.0066H125.392V79.0589H151.354V30.0066Z" fill="white"/>
<path d="M179.385 81.116H153.423V130.168H179.385V81.116Z" fill="white"/>
<path d="M179.376 30.002H153.414V79.0542H179.376V30.002Z" fill="white"/>
<path d="M78.1441 73.134H71.911C71.6366 73.134 71.4145 73.3562 71.4145 73.6306V77.3368C71.4145 77.6112 71.6366 77.8334 71.911 77.8334H73.7131L75.6757 79.1858L75.671 77.8334H78.1441C78.4185 77.8334 78.6406 77.6112 78.6406 77.3368V73.6306C78.6406 73.3562 78.4185 73.134 78.1441 73.134Z" fill="#7764A6"/>
<path d="M74.539 74.5901H73.4956C73.0533 74.5901 72.694 74.9494 72.694 75.3918C72.694 75.6634 72.8293 75.9033 73.0365 76.0489V76.6453L73.4881 76.1936C73.4881 76.1936 73.4928 76.1936 73.4956 76.1936H74.539C74.9813 76.1936 75.3406 75.8342 75.3406 75.3918C75.3406 74.9494 74.9813 74.5901 74.539 74.5901Z" fill="white"/>
<path d="M76.8758 76.1999C76.7937 76.1999 76.7274 76.1337 76.7274 76.0515V75.0286L76.4671 75.2162C76.4008 75.2638 76.3075 75.2489 76.2599 75.1826C76.2123 75.1163 76.2272 75.023 76.2935 74.9754L76.789 74.6189C76.8348 74.5862 76.8936 74.5815 76.943 74.6077C76.9925 74.6329 77.0242 74.6842 77.0242 74.7402V76.0525C77.0242 76.1346 76.9579 76.2009 76.8758 76.2009V76.1999Z" fill="white"/>
<path d="M89.7472 63.7271H83.6867C83.3645 63.7271 83.1034 63.9882 83.1034 64.3104V67.8925C83.1034 68.2147 83.3645 68.4759 83.6867 68.4759H89.7472C90.0693 68.4759 90.3305 68.2147 90.3305 67.8925V64.3104C90.3305 63.9882 90.0693 63.7271 89.7472 63.7271Z" fill="#FCCC44"/>
<path d="M88.3221 66.1014L90.253 64.1703C90.3193 64.1041 90.3193 63.9958 90.253 63.9295C90.1867 63.8633 90.0785 63.8633 90.0122 63.9295L87.9908 65.9511C87.9787 65.9586 87.9675 65.9661 87.9572 65.9763C87.9469 65.9866 87.9385 65.9978 87.932 66.0099L87.0912 66.8509C86.8849 67.0571 86.5489 67.0571 86.3436 66.8509L83.4216 63.9286C83.3554 63.8623 83.2471 63.8623 83.1809 63.9286C83.1146 63.9949 83.1146 64.1031 83.1809 64.1694L85.1117 66.1005L83.1809 68.0315C83.1146 68.0978 83.1146 68.2061 83.1809 68.2723C83.2145 68.3059 83.2574 68.3218 83.3012 68.3218C83.3451 68.3218 83.388 68.305 83.4216 68.2723L85.3525 66.3413L86.1029 67.0917C86.2727 67.2615 86.4948 67.3455 86.7179 67.3455C86.9409 67.3455 87.163 67.2606 87.3329 67.0917L88.0832 66.3413L90.0141 68.2723C90.0477 68.3059 90.0906 68.3218 90.1345 68.3218C90.1783 68.3218 90.2213 68.305 90.2549 68.2723C90.3211 68.2061 90.3211 68.0978 90.2549 68.0315L88.324 66.1005L88.3221 66.1014Z" fill="white"/>
<path d="M90.9875 78.0518H83.9144C83.4664 78.0518 83.1034 78.4148 83.1034 78.8628V83.4044C83.1034 83.8524 83.4664 84.2155 83.9144 84.2155H84.5649C84.6162 84.2155 84.6647 84.2407 84.6946 84.2818L84.6918 85.8731C84.7562 85.9636 84.8915 85.9618 84.954 85.8694L87.1677 84.2855C87.1975 84.2416 87.247 84.2155 87.3002 84.2155H90.9884C91.4364 84.2155 91.7994 83.8524 91.7994 83.4044V78.8628C91.7994 78.4148 91.4364 78.0518 90.9884 78.0518H90.9875Z" fill="white"/>
<path d="M89.5596 82.1294C89.4467 82.1294 89.3552 82.0379 89.3552 81.925V80.5175L88.9969 80.7751C88.9054 80.8414 88.7775 80.8199 88.7113 80.7285C88.645 80.637 88.6665 80.5091 88.7579 80.4429L89.4392 79.9519C89.5017 79.9071 89.5839 79.9006 89.652 79.9361C89.7201 79.9706 89.763 80.0415 89.763 80.1181V81.9241C89.763 82.037 89.6716 82.1285 89.5587 82.1285L89.5596 82.1294Z" fill="#E30613"/>
<path d="M87.8994 80.499C87.8994 80.0948 87.5774 79.6963 87.1808 79.6963H87.1108C86.8187 79.6963 86.5219 79.8727 86.3884 80.1238C86.3744 80.1508 86.3362 80.1508 86.3222 80.1238C86.1887 79.8718 85.8929 79.6963 85.5998 79.6963H85.5298C85.1332 79.6963 84.8112 80.0948 84.8112 80.499C84.8112 81.5835 85.9955 82.2396 86.3156 82.3964H86.395C86.7141 82.2387 87.8994 81.5835 87.8994 80.499Z" fill="#E30613"/>
<path d="M92.6608 89.0034H66.4188C64.7072 89.0034 63.3195 90.3913 63.3195 92.103V104.436C63.3195 106.148 64.7072 107.536 66.4188 107.536H85.5886L89.1228 110.765V107.536H92.6617C94.3733 107.536 95.761 106.148 95.761 104.436V92.103C95.761 90.3913 94.3733 89.0034 92.6617 89.0034H92.6608Z" fill="#EB9E94"/>
<path d="M85.346 103.199C85.346 103.576 85.0408 103.882 84.6638 103.882C84.2867 103.882 83.9816 103.576 83.9816 103.199C83.9816 102.822 84.2867 102.517 84.6638 102.517C85.0408 102.517 85.346 102.822 85.346 103.199Z" fill="white"/>
<path d="M88.1756 103.199C88.1756 103.576 87.8704 103.882 87.4934 103.882C87.1164 103.882 86.8112 103.576 86.8112 103.199C86.8112 102.822 87.1164 102.517 87.4934 102.517C87.8704 102.517 88.1756 102.822 88.1756 103.199Z" fill="white"/>
<path d="M90.323 103.882C90.6998 103.882 91.0052 103.576 91.0052 103.199C91.0052 102.823 90.6998 102.517 90.323 102.517C89.9462 102.517 89.6408 102.823 89.6408 103.199C89.6408 103.576 89.9462 103.882 90.323 103.882Z" fill="white"/>
<path d="M90.9716 94.0667H75.2539C74.875 94.0667 74.5688 93.7596 74.5688 93.3816C74.5688 93.0036 74.8759 92.6965 75.2539 92.6965H90.9716C91.3505 92.6965 91.6566 93.0036 91.6566 93.3816C91.6566 93.7596 91.3495 94.0667 90.9716 94.0667Z" fill="white"/>
<path d="M90.9716 97.3408H68.108C67.7291 97.3408 67.423 97.0338 67.423 96.6558C67.423 96.2778 67.73 95.9707 68.108 95.9707H90.9716C91.3505 95.9707 91.6566 96.2778 91.6566 96.6558C91.6566 97.0338 91.3496 97.3408 90.9716 97.3408Z" fill="white"/>
<path d="M90.9716 100.615H68.108C67.7291 100.615 67.423 100.308 67.423 99.9299C67.423 99.5519 67.73 99.2449 68.108 99.2449H90.9716C91.3505 99.2449 91.6566 99.5519 91.6566 99.9299C91.6566 100.308 91.3496 100.615 90.9716 100.615Z" fill="white"/>
<path d="M81.9658 103.889H68.108C67.7291 103.889 67.423 103.582 67.423 103.204C67.423 102.826 67.73 102.519 68.108 102.519H81.9658C82.3447 102.519 82.6508 102.826 82.6508 103.204C82.6508 103.582 82.3437 103.889 81.9658 103.889Z" fill="white"/>
<path d="M148.532 125.246L147.973 125.119C147.911 125.105 147.849 125.144 147.835 125.206L145.461 135.664C145.447 135.726 145.486 135.787 145.548 135.801L146.108 135.928C146.169 135.942 146.231 135.904 146.245 135.842L148.619 125.384C148.633 125.322 148.594 125.261 148.532 125.246Z" fill="#A30010"/>
<path d="M148.465 124.632L148.298 124.594C148.246 124.582 148.194 124.615 148.182 124.667L147.983 125.547C147.971 125.599 148.004 125.651 148.056 125.663L148.222 125.701C148.275 125.712 148.327 125.68 148.339 125.627L148.538 124.748C148.55 124.696 148.517 124.644 148.465 124.632Z" fill="#A30010"/>
<path d="M145.528 137.151C145.448 137.133 145.394 137.056 145.405 136.974L145.576 135.694C145.588 135.6 145.678 135.538 145.77 135.559L145.998 135.611C146.089 135.632 146.143 135.727 146.114 135.817L145.715 137.046C145.69 137.124 145.608 137.171 145.527 137.152L145.528 137.151Z" fill="#EA9A26"/>
<path d="M149.928 125.04L149.398 124.903C149.339 124.887 149.279 124.923 149.264 124.982L146.688 134.912C146.673 134.971 146.708 135.031 146.767 135.046L147.298 135.184C147.356 135.199 147.417 135.164 147.432 135.105L150.007 125.174C150.022 125.116 149.987 125.055 149.928 125.04Z" fill="#3A4A1D"/>
<path d="M149.728 124.408L149.887 124.449C149.937 124.462 149.966 124.512 149.953 124.562L149.737 125.398C149.724 125.447 149.674 125.477 149.624 125.464L149.465 125.423C149.415 125.41 149.386 125.36 149.399 125.31L149.616 124.474C149.629 124.425 149.679 124.395 149.728 124.408Z" fill="#3A4A1D"/>
<path d="M146.726 136.328C146.65 136.308 146.601 136.233 146.614 136.155L146.814 134.935C146.829 134.847 146.917 134.79 147.004 134.812L147.22 134.868C147.307 134.891 147.356 134.983 147.326 135.068L146.908 136.232C146.881 136.307 146.803 136.349 146.726 136.328Z" fill="#3A4A1D"/>
<path d="M144.93 136.661L145.497 136.574C145.56 136.564 145.603 136.506 145.593 136.443L143.968 125.843C143.958 125.78 143.899 125.737 143.837 125.747L143.269 125.834C143.207 125.844 143.164 125.902 143.173 125.965L144.799 136.565C144.809 136.628 144.867 136.671 144.93 136.661Z" fill="#312553"/>
<path d="M145.218 137.208L145.387 137.182C145.44 137.174 145.476 137.125 145.468 137.072L145.332 136.181C145.323 136.128 145.274 136.091 145.221 136.099L145.052 136.125C144.999 136.133 144.963 136.183 144.971 136.236L145.108 137.127C145.116 137.18 145.165 137.216 145.218 137.208Z" fill="#312553"/>
<path d="M143.358 124.487C143.441 124.475 143.518 124.526 143.538 124.606L143.848 125.861C143.871 125.952 143.81 126.043 143.718 126.058L143.486 126.093C143.393 126.107 143.308 126.039 143.302 125.945L143.223 124.655C143.218 124.573 143.276 124.5 143.358 124.487Z" fill="#312553"/>
<path d="M146.678 124.402L147.248 124.457C147.312 124.464 147.358 124.52 147.352 124.583L146.324 135.258C146.318 135.321 146.262 135.368 146.198 135.361L145.628 135.306C145.565 135.3 145.518 135.244 145.524 135.18L146.552 124.506C146.559 124.442 146.615 124.395 146.678 124.402Z" fill="#FCCC44"/>
<path d="M145.775 134.908L145.689 135.806C145.684 135.859 145.723 135.907 145.776 135.912L145.946 135.928C146 135.933 146.047 135.894 146.052 135.841L146.139 134.943C146.144 134.89 146.105 134.842 146.051 134.837L145.881 134.821C145.828 134.816 145.781 134.855 145.775 134.908Z" fill="#FCCC44"/>
<path d="M147.089 123.121C147.171 123.128 147.233 123.198 147.233 123.28L147.227 124.572C147.227 124.666 147.146 124.739 147.051 124.731L146.818 124.708C146.725 124.699 146.658 124.612 146.676 124.52L146.916 123.25C146.931 123.169 147.006 123.113 147.089 123.121Z" fill="#FCCC44"/>
<path d="M145.044 124.299L144.471 124.319C144.407 124.321 144.358 124.374 144.36 124.437L144.734 135.155C144.736 135.218 144.789 135.268 144.853 135.266L145.426 135.246C145.49 135.243 145.539 135.19 145.537 135.127L145.163 124.409C145.161 124.346 145.107 124.297 145.044 124.299Z" fill="#7764A6"/>
<path d="M144.823 123.722L144.653 123.728C144.599 123.73 144.557 123.775 144.559 123.828L144.591 124.729C144.593 124.783 144.637 124.825 144.691 124.823L144.862 124.817C144.915 124.815 144.957 124.77 144.955 124.717L144.924 123.815C144.922 123.762 144.877 123.72 144.823 123.722Z" fill="#7764A6"/>
<path d="M145.189 136.568C145.105 136.571 145.035 136.51 145.024 136.428L144.863 135.147C144.851 135.053 144.922 134.97 145.016 134.967L145.25 134.958C145.344 134.954 145.421 135.033 145.415 135.127L145.343 136.417C145.339 136.499 145.272 136.565 145.189 136.568H145.189Z" fill="#7764A6"/>
<path d="M148.695 130.454H143.674C143.571 130.454 143.488 130.537 143.488 130.64V137.356C143.488 137.458 143.571 137.542 143.674 137.542H148.695C148.797 137.542 148.88 137.458 148.88 137.356V130.64C148.88 130.537 148.797 130.454 148.695 130.454Z" fill="#312553"/>
<path d="M148.88 131.686H143.488C143.339 131.686 143.218 131.566 143.218 131.416C143.218 131.267 143.339 131.146 143.488 131.146H148.88C149.03 131.146 149.15 131.267 149.15 131.416C149.15 131.566 149.03 131.686 148.88 131.686Z" fill="#312553"/>
<path d="M68.7286 125.627H84.059C84.6946 125.627 85.2107 126.142 85.2107 126.778V128.976C85.2107 129.612 84.6955 130.128 84.059 130.128H68.7286" fill="white"/>
<path d="M84.059 130.472H67.7869V125.282H84.0581C84.884 125.282 85.5541 125.951 85.5541 126.778V128.976C85.5541 129.802 84.8849 130.472 84.0581 130.472L84.059 130.472Z" fill="#FCCC44"/>
<path d="M84.0068 137.541H68.4813C68.4813 137.541 68.4803 137.541 68.4803 137.541V136.944C68.4803 136.944 68.4803 136.943 68.4813 136.943V133.411C68.4813 133.411 68.4803 133.411 68.4803 133.41V132.813C68.4803 132.813 68.4803 132.812 68.4813 132.812H84.031C85.3208 132.812 86.3725 133.85 86.3959 135.135C86.4192 136.462 85.3338 137.542 84.0068 137.542V137.541Z" fill="#312553"/>
<path d="M68.1817 121.022H83.5943C84.4967 121.022 85.2293 121.755 85.2293 122.658V123.518C85.2293 124.421 84.4967 125.153 83.5943 125.153H68.1817V121.022Z" fill="#7CA417"/>
<path d="M82.3988 137.252H67.4164V133.121H82.3988C83.5392 133.121 84.4641 134.046 84.4641 135.187C84.4641 136.327 83.5392 137.252 82.3988 137.252Z" fill="#CBBEED"/>
<path d="M82.3736 137.542H67.1495C66.9844 137.542 66.85 137.407 66.85 137.242C66.85 137.077 66.9844 136.942 67.1495 136.942H82.3773C83.3684 136.942 84.1841 136.136 84.1664 135.145C84.1496 134.185 83.3638 133.41 82.4007 133.41H67.1495C66.9844 133.41 66.85 133.275 66.85 133.11C66.85 132.945 66.9844 132.811 67.1495 132.811H82.4007C83.6904 132.811 84.7431 133.849 84.7655 135.134C84.7888 136.46 83.7007 137.541 82.3736 137.541V137.542Z" fill="#7764A6"/>
<path d="M83.6633 132.74H67.4053C67.2914 132.74 67.199 132.647 67.199 132.533C67.199 132.419 67.2914 132.327 67.4053 132.327V130.973C67.2914 130.973 67.199 130.88 67.199 130.767C67.199 130.653 67.2914 130.56 67.4053 130.56H83.6829C84.2914 130.56 84.7842 131.061 84.773 131.671C84.7618 132.268 84.2606 132.742 83.6633 132.742V132.74Z" fill="#A30010"/>
<path d="M82.2681 130.466H67.2821C67.0917 130.466 66.9377 130.312 66.9377 130.122C66.9377 129.931 67.0917 129.777 67.2821 129.777H82.2681C82.7133 129.777 83.0754 129.416 83.0754 128.97V126.772C83.0754 126.327 82.7142 125.964 82.2681 125.964H67.2821C67.0917 125.964 66.9377 125.81 66.9377 125.62C66.9377 125.43 67.0917 125.276 67.2821 125.276H82.2681C83.0941 125.276 83.7641 125.945 83.7641 126.772V128.97C83.7641 129.796 83.095 130.466 82.2681 130.466Z" fill="#EA9A26"/>
<path d="M83.3367 132.372H67.2905V130.81H83.3367C83.5028 130.81 83.6372 130.945 83.6372 131.111V132.071C83.6372 132.237 83.5028 132.372 83.3367 132.372Z" fill="#E1D7F7"/>
<path d="M82.8598 132.74H67.1757C67.0618 132.74 66.9694 132.647 66.9694 132.533C66.9694 132.419 67.0618 132.327 67.1757 132.327H82.8645C83.2331 132.327 83.5467 132.039 83.5569 131.669C83.5681 131.286 83.2602 130.972 82.8803 130.972H67.1757C67.0618 130.972 66.9694 130.879 66.9694 130.766C66.9694 130.652 67.0618 130.559 67.1757 130.559H82.8794C83.4879 130.559 83.9806 131.06 83.9694 131.67C83.9582 132.267 83.4571 132.741 82.8598 132.741V132.74Z" fill="#E30613"/>
<path d="M67.4258 121.022H69.3837C70.2862 121.022 71.0188 121.755 71.0188 122.658V123.518C71.0188 124.421 70.2862 125.153 69.3837 125.153H67.4258V121.022Z" fill="#E1D7F7"/>
<path d="M69.3837 121.022H66.9928C66.877 121.022 66.7828 121.117 66.7828 121.232V121.272C66.7828 121.387 66.877 121.482 66.9928 121.482H69.3837C70.0333 121.482 70.5596 122.008 70.5596 122.658V123.518C70.5596 124.168 70.0333 124.694 69.3837 124.694H66.9928C66.877 124.694 66.7828 124.788 66.7828 124.904V124.943C66.7828 125.059 66.877 125.153 66.9928 125.153H69.3837C70.2871 125.153 71.0188 124.422 71.0188 123.518V122.658C71.0188 121.754 70.2871 121.022 69.3837 121.022Z" fill="#3A4A1D"/>
<path d="M67.426 121.836H69.6723C69.7255 121.836 69.7675 121.879 69.7675 121.932V121.947C69.7675 122 69.7246 122.042 69.6723 122.042H67.426V121.835V121.836Z" fill="white"/>
<path d="M67.4258 122.296H69.6721C69.7253 122.296 69.7673 122.339 69.7673 122.391V122.406C69.7673 122.459 69.7244 122.502 69.6712 122.502H67.4249V122.296H67.4258Z" fill="white"/>
<path d="M67.4258 122.755H69.6721C69.7253 122.755 69.7673 122.798 69.7673 122.85V122.865C69.7673 122.918 69.7244 122.96 69.6721 122.96H67.4258V122.754V122.755Z" fill="white"/>
<path d="M67.4258 123.214H69.6721C69.7253 123.214 69.7673 123.257 69.7673 123.309V123.324C69.7673 123.377 69.7244 123.419 69.6721 123.419H67.4258V123.213V123.214Z" fill="white"/>
<path d="M67.4258 123.673H69.6721C69.7253 123.673 69.7673 123.716 69.7673 123.768V123.783C69.7673 123.836 69.7244 123.879 69.6712 123.879H67.4249V123.673H67.4258Z" fill="white"/>
<path d="M67.4258 124.132H69.6721C69.7253 124.132 69.7673 124.175 69.7673 124.228V124.242C69.7673 124.296 69.7244 124.339 69.6712 124.339H67.4249V124.132H67.4258Z" fill="white"/>
<path d="M67.7869 126.189H82.27C82.3232 126.189 82.3652 126.232 82.3652 126.285V126.3C82.3652 126.353 82.3222 126.396 82.2691 126.396H67.7869V126.189Z" fill="white"/>
<path d="M67.7869 126.718H82.27C82.3232 126.718 82.3652 126.761 82.3652 126.813V126.828C82.3652 126.881 82.3222 126.923 82.27 126.923H67.7869V126.717V126.718Z" fill="white"/>
<path d="M67.7869 127.246H82.27C82.3232 127.246 82.3652 127.289 82.3652 127.341V127.356C82.3652 127.409 82.3222 127.451 82.27 127.451H67.7869V127.245V127.246Z" fill="white"/>
<path d="M67.7869 127.774H82.27C82.3232 127.774 82.3652 127.817 82.3652 127.87V127.885C82.3652 127.938 82.3222 127.98 82.27 127.98H67.7869V127.773V127.774Z" fill="white"/>
<path d="M67.7869 128.302H82.27C82.3232 128.302 82.3652 128.345 82.3652 128.398V128.413C82.3652 128.466 82.3222 128.508 82.27 128.508H67.7869V128.302V128.302Z" fill="white"/>
<path d="M67.7869 128.83H82.27C82.3232 128.83 82.3652 128.873 82.3652 128.925V128.94C82.3652 128.993 82.3222 129.035 82.27 129.035H67.7869V128.829V128.83Z" fill="white"/>
<path d="M67.7869 129.358H82.27C82.3232 129.358 82.3652 129.401 82.3652 129.453V129.468C82.3652 129.521 82.3222 129.564 82.2691 129.564H67.7869V129.358Z" fill="white"/>
<path d="M67.4164 133.762H81.8995C81.9527 133.762 81.9947 133.805 81.9947 133.858V133.873C81.9947 133.926 81.9518 133.968 81.8995 133.968H67.4164V133.761V133.762Z" fill="white"/>
<path d="M67.4164 134.291H81.8995C81.9527 134.291 81.9947 134.334 81.9947 134.386V134.401C81.9947 134.454 81.9518 134.497 81.8986 134.497H67.4164V134.291Z" fill="white"/>
<path d="M67.4164 134.819H81.8995C81.9527 134.819 81.9947 134.862 81.9947 134.914V134.929C81.9947 134.982 81.9518 135.024 81.8995 135.024H67.4164V134.818V134.819Z" fill="white"/>
<path d="M67.4164 135.347H81.8995C81.9527 135.347 81.9947 135.39 81.9947 135.442V135.457C81.9947 135.51 81.9518 135.552 81.8995 135.552H67.4164V135.346V135.347Z" fill="white"/>
<path d="M67.4164 135.874H81.8995C81.9527 135.874 81.9947 135.917 81.9947 135.97V135.985C81.9947 136.038 81.9518 136.08 81.8995 136.08H67.4164V135.874V135.874Z" fill="white"/>
<path d="M67.4164 136.403H81.8995C81.9527 136.403 81.9947 136.446 81.9947 136.498V136.513C81.9947 136.566 81.9518 136.608 81.8995 136.608H67.4164V136.402V136.403Z" fill="white"/>
<path d="M67.2905 131.224H81.7735C81.8267 131.224 81.8687 131.267 81.8687 131.319V131.334C81.8687 131.387 81.8258 131.429 81.7735 131.429H67.2905V131.223V131.224Z" fill="white"/>
<path d="M67.2905 131.752H81.7735C81.8267 131.752 81.8687 131.795 81.8687 131.847V131.862C81.8687 131.915 81.8258 131.957 81.7735 131.957H67.2905V131.751V131.752Z" fill="white"/>
<path d="M203.483 132.083C204.931 132.737 206.819 135.691 207.689 140.115C208.297 143.212 208.548 145.187 208.501 148C208.385 154.957 205.807 161.896 205.192 163.654C201.809 173.32 177.887 169.917 175.636 164.898C175.158 163.832 175.79 163.215 175.636 159.1C175.529 156.249 175.14 154.254 174.94 153.071C173.842 146.574 174.343 131.97 177.049 131.271C177.612 131.126 177.996 131.67 179.02 132.43C184.3 136.354 191.874 136.289 198.15 133.706C200.817 132.609 202.043 131.433 203.484 132.083H203.483Z" fill="#3A4A1D"/>
<path d="M193.412 53.3146C192.863 53.1438 192.692 52.8265 192.298 52.6958C189.326 51.7055 185.006 53.5647 183.258 54.6773C179.138 57.3009 177.903 62.0842 177.067 65.3275C175.666 70.7605 176.406 75.1761 176.572 76.101C177.129 79.1913 178.275 85.5538 183.877 89.3515C188.531 92.5062 193.59 92.0825 195.145 91.9518C197.015 91.795 199.725 91.5337 202.451 89.5989C203.344 88.9651 205.852 87.0061 207.032 83.5313C208.292 79.8194 207.798 76.5378 207.032 73.9963C206.198 71.229 204.201 69.6097 202.574 65.4517C201.46 62.6031 202.45 58.517 197.126 54.6782C194.99 53.1382 194.33 53.6021 193.411 53.3165L193.412 53.3146Z" fill="#512618"/>
<path d="M182.773 55.283L182.251 55.6022C182.164 55.6563 182.075 55.7086 181.989 55.7646L181.742 55.9475C181.579 56.0716 181.411 56.1911 181.251 56.3208L180.789 56.7306C180.191 57.2962 179.637 57.9206 179.169 58.6047C178.218 59.9655 177.531 61.4962 176.996 63.0548C176.728 63.8351 176.492 64.6238 176.279 65.4124C176.168 65.8026 176.07 66.2076 175.969 66.609C175.916 66.8087 175.874 67.0122 175.832 67.2147L175.704 67.8232C175.404 69.4528 175.248 71.1104 175.261 72.769C175.269 73.5978 175.313 74.4275 175.401 75.2535C175.446 75.667 175.503 76.0795 175.573 76.4911C175.608 76.6983 175.647 76.9008 175.684 77.0996L175.803 77.7035C176.127 79.3144 176.554 80.9263 177.192 82.4588C177.511 83.2242 177.862 83.9783 178.282 84.6932C178.7 85.4091 179.167 86.097 179.686 86.7419C180.728 88.0262 181.983 89.135 183.393 89.9582C182.105 88.9567 180.974 87.7807 180.067 86.4554C179.148 85.1384 178.44 83.6908 177.899 82.1863C177.628 81.4331 177.405 80.664 177.206 79.8884C177.013 79.11 176.848 78.3251 176.707 77.5308L176.602 76.9335C176.567 76.7319 176.532 76.534 176.502 76.339C176.44 75.947 176.392 75.5512 176.354 75.1546C176.275 74.3612 176.236 73.5614 176.231 72.7624C176.225 72.363 176.236 71.9626 176.246 71.5631C176.253 71.3634 176.267 71.1636 176.277 70.9639L176.294 70.6643L176.319 70.3656C176.371 69.5667 176.489 68.7752 176.606 67.9838L176.714 67.393C176.749 67.196 176.784 66.9991 176.83 66.804C176.918 66.413 177 66.0238 177.101 65.6271C177.297 64.8394 177.492 64.0572 177.717 63.2844C177.938 62.5107 178.21 61.7566 178.506 61.0127C178.799 60.266 179.161 59.5511 179.568 58.8623C179.963 58.1642 180.454 57.5258 180.981 56.9182L181.392 56.4739C181.535 56.3311 181.688 56.1995 181.835 56.0604L182.057 55.8523C182.136 55.7879 182.216 55.7263 182.295 55.6628L182.774 55.283H182.773Z" fill="#512618"/>
<path d="M203.695 89.7716C204.466 89.2648 205.182 88.6628 205.823 87.9843C206.471 87.3113 207.033 86.5507 207.514 85.7396C207.99 84.9257 208.366 84.0428 208.643 83.1384C208.924 82.2349 209.104 81.2988 209.202 80.3524C209.299 79.406 209.303 78.4484 209.214 77.4992C209.125 76.55 208.944 75.6129 208.702 74.6964C208.64 74.4677 208.577 74.2391 208.506 74.0132L208.4 73.6753C208.365 73.5624 208.319 73.4457 208.278 73.3309C208.115 72.8671 207.904 72.4256 207.681 71.9963C207.221 71.1451 206.683 70.3704 206.171 69.6116C205.654 68.8547 205.158 68.1024 204.712 67.3231C204.596 67.1308 204.49 66.9329 204.383 66.736L204.223 66.4401L204.072 66.1396C203.97 65.9399 203.869 65.7392 203.779 65.5339L203.638 65.2277L203.567 65.0747L203.505 64.9291C203.181 64.1544 203.011 63.264 202.801 62.3624C202.697 61.9107 202.59 61.4524 202.458 60.996C202.326 60.5405 202.173 60.086 201.991 59.6417C201.63 58.7513 201.144 57.9057 200.549 57.1553C200.246 56.7829 199.923 56.432 199.583 56.1007C199.236 55.7768 198.882 55.4613 198.504 55.1813C198.13 54.8957 197.737 54.6381 197.341 54.3899C196.94 54.1472 196.532 53.9129 196.096 53.7291C195.662 53.5452 195.201 53.4033 194.731 53.3567C194.259 53.3063 193.801 53.3781 193.347 53.2876C193.564 53.366 193.797 53.4043 194.026 53.4313C194.256 53.4593 194.483 53.4864 194.702 53.5377C195.142 53.6329 195.557 53.8112 195.949 54.0315C196.728 54.4795 197.456 55.0395 198.127 55.6405C198.467 55.9373 198.782 56.2575 199.085 56.5851C199.383 56.9183 199.659 57.2664 199.914 57.6295C200.412 58.3612 200.824 59.1424 201.11 59.9777C201.401 60.8112 201.586 61.6829 201.757 62.5808C201.843 63.0307 201.924 63.4871 202.03 63.9509C202.133 64.4139 202.259 64.8861 202.44 65.3547L202.509 65.5292L202.579 65.6916L202.722 66.0155C202.815 66.2329 202.917 66.4457 203.021 66.6576L203.175 66.9768L203.338 67.2913C203.447 67.5004 203.557 67.7104 203.674 67.9148C204.137 68.7371 204.653 69.5267 205.172 70.292C205.696 71.0555 206.209 71.7975 206.633 72.5647C206.84 72.9492 207.033 73.3375 207.181 73.7407C207.219 73.8424 207.26 73.9385 207.295 74.0449L207.402 74.3641C207.471 74.5769 207.537 74.7907 207.601 75.0044C207.851 75.8621 208.039 76.7348 208.158 77.6168C208.269 78.4988 208.31 79.3901 208.266 80.2805C208.224 81.1709 208.086 82.0567 207.883 82.9303C207.683 83.8048 207.388 84.6495 206.996 85.4596C206.611 86.2725 206.13 87.0453 205.573 87.7659C205.299 88.1299 205 88.4752 204.687 88.8093C204.376 89.1463 204.043 89.4636 203.698 89.7707L203.695 89.7716Z" fill="#512618"/>
<path d="M165.668 102.765C165.678 102.33 165.556 101.822 161.3 97.5265C159.188 95.3947 158.878 95.1773 158.259 94.2533C157.168 92.6293 157.217 91.9507 156.004 90.5815C154.897 89.3318 151.992 88.0233 149.937 87.1926C149.646 87.075 146.271 85.4267 144.559 84.9097C144.312 84.835 143.839 84.7062 143.375 85.0469C143.134 85.2242 143.128 85.6741 143.136 85.7273C143.171 85.9531 143.251 86.1874 143.513 86.3619C144.282 86.8734 146.634 88.1213 147.576 88.5207C148.491 88.909 149.289 89.301 149.167 91.0118C149.096 91.9965 148.153 92.4053 147.867 94.0442C147.789 94.4885 147.817 94.6789 147.871 94.8338C148.079 95.4349 148.698 95.5338 149.588 96.2721C150.051 96.6557 149.937 96.6725 150.381 97.057C150.861 97.4723 151.347 97.757 153.678 98.7501C154.723 99.1953 154.712 99.1747 154.864 99.2699C155.992 99.9737 156.492 101.037 156.717 101.497C158.046 104.208 158.998 106.151 160.294 106.609C162.22 107.288 165.617 104.936 165.667 102.766L165.668 102.765Z" fill="#EC7D40"/>
<path d="M155.747 94.3849C152.719 95.4256 151.874 91.1126 151.769 90.6161C151.497 89.3318 151.86 88.5394 151.131 87.2421C150.738 86.544 150.516 86.3545 150.18 85.1645C149.866 84.0557 150.111 83.2017 150.202 83.0188C150.421 82.5782 150.856 82.6221 151.131 82.763C151.414 82.9077 151.514 83.8317 151.532 83.9269C151.746 85.116 153.258 86.2864 155.456 88.6729C157.864 91.2872 156.762 94.0368 155.747 94.3849Z" fill="#EC7D40"/>
<path d="M163.24 98.9649C162.803 98.6382 162.153 99.1254 159.92 101.029C157.64 102.973 157.174 103.507 157.245 104.162C157.305 104.714 157.717 105.065 158.017 105.346C159.342 106.59 159.092 107.066 161.104 110.086C163.406 113.539 165.512 116.622 169.427 118.635C169.941 118.899 170.219 119.042 170.661 119.196C174.514 120.537 180.821 119.216 182.386 114.758C188.149 98.347 182.425 88.9913 179.206 89.457C175.827 89.9461 173.09 105.851 172.879 106.98C172.866 107.052 169.042 103.3 163.241 98.9649H163.24Z" fill="#EA9A26"/>
<path d="M146.098 91.5104C146.232 91.236 146.447 91.0344 146.698 90.9224C146.113 90.759 145.732 90.1524 145.832 89.5112C145.938 88.827 146.551 88.3613 147.202 88.4714C148.876 88.7542 150.506 89.3852 151.792 90.2476C152.347 90.62 152.509 91.3956 152.153 91.9798C152.124 92.0274 152.093 92.0722 152.059 92.1142C152.561 92.2878 152.908 92.8002 152.873 93.3808C152.837 93.9613 152.432 94.4242 151.914 94.5334C151.919 94.5605 151.924 94.5876 151.927 94.6156C151.983 95.2185 151.564 95.758 150.991 95.8196C150.499 95.8728 150.003 95.8905 149.513 95.8756C148.565 95.8466 147.641 95.6917 146.82 95.4192C146.27 95.2372 145.967 94.6202 146.142 94.0416C146.253 93.6729 146.532 93.4097 146.863 93.3145C146.783 93.2744 146.699 93.2371 146.62 93.1951C146.033 92.8824 145.8 92.1273 146.099 91.5085L146.098 91.5104Z" fill="#F79556"/>
<path d="M209.022 99.663C209.942 96.6054 210.479 95.142 210.113 92.9944C209.614 90.0796 206.356 87.1116 205.142 86.3257C202.05 84.3256 199.1 83.3512 196.898 82.5672C189.745 80.021 179.916 85.061 178.47 87.2954C173.803 94.5092 173.681 102.148 173.984 105.482C174.275 108.687 176.59 113.06 177.378 125.488C177.565 128.431 175.862 131.634 177.135 133.976C180.894 140.887 201.591 139.314 204.656 135.795C206.293 133.915 204.222 133.102 203.444 125.247C202.6 116.736 203.319 113.737 203.686 110.94C204.06 108.091 207.418 104.99 209.021 99.664L209.022 99.663Z" fill="#FCCC44"/>
<path d="M196.336 71.4165C197.299 72.6177 195.758 74.3668 195.966 78.1029C196.141 81.2389 196.877 82.0995 196.415 83.8784C195.633 86.8912 193.139 87.7555 192.405 88.0168C190.904 88.5507 187.382 89.1751 186.041 87.5436C185.508 86.8949 185.852 86.4161 185.926 85.0199C186.128 81.2165 185.301 79.9192 185.524 77.2965C185.777 74.3211 187.495 71.5892 190.191 70.7259C190.378 70.6661 194.916 69.6469 196.335 71.4175L196.336 71.4165Z" fill="#EC7D40"/>
<path d="M197.985 85.2952C197.687 85.8673 197.387 86.4068 197.024 86.8921C196.654 87.3718 196.244 87.8012 195.788 88.1689C195.334 88.5376 194.84 88.8484 194.317 89.1078C194.054 89.2338 193.79 89.3561 193.512 89.456C193.374 89.5092 193.237 89.5596 193.09 89.61C192.946 89.6604 192.812 89.7033 192.668 89.7462C191.528 90.085 190.326 90.3221 189.133 90.4052C188.537 90.4416 187.939 90.436 187.353 90.3389C186.767 90.2418 186.193 90.0402 185.689 89.6389C185.837 89.9245 186.056 90.1821 186.316 90.393C186.574 90.6068 186.87 90.7757 187.178 90.9092C187.798 91.1752 188.463 91.303 189.122 91.359C189.783 91.4122 190.443 91.3852 191.093 91.3096C191.419 91.2704 191.742 91.2144 192.064 91.1509C192.385 91.0818 192.704 91.0016 193.022 90.9073C193.179 90.8578 193.343 90.8018 193.495 90.7458C193.645 90.6908 193.803 90.6329 193.955 90.5676C194.263 90.4378 194.568 90.2885 194.859 90.1196C195.441 89.7789 195.982 89.358 196.44 88.8605C196.897 88.364 197.269 87.7946 197.535 87.1889C197.792 86.5776 197.939 85.9354 197.982 85.297L197.985 85.2952Z" fill="white"/>
<path d="M181.315 60.2352C180.311 62.6442 180.529 64.0703 180.739 65.0774C180.837 65.5459 181.046 66.2506 180.969 67.2679C180.925 67.855 180.808 68.2563 180.739 68.5363C180.389 69.9475 180.448 71.2374 180.623 72.11C180.969 73.8395 183.159 79.1418 184.888 80.1796C185.598 80.6062 186.288 80.7144 186.848 80.7564C188.131 80.8516 189.192 80.5427 189.844 80.2954C193.922 78.7479 195.739 74.378 195.953 73.8395C196.341 72.8698 196.502 72.11 196.645 71.4184C197.293 68.2908 199.587 64.7535 197.221 60.2576C196.531 58.9463 192.611 53.897 185.249 56.4076C183.518 56.9984 182.096 58.363 181.315 60.2371L181.315 60.2352Z" fill="#F79556"/>
<path d="M192.472 54.932C192.472 54.932 192.361 54.9562 192.251 55.0001C191.551 55.282 190.815 56.4869 190.514 58.0446C190.364 58.8128 190.34 59.383 190.398 60.1194C190.675 63.6101 194.9 64.0796 195.931 67.4974C196.801 70.3833 197.937 68.945 198.352 67.8437C200.137 63.0893 200.896 59.313 194.326 55.2782C193.911 55.0234 192.974 54.8256 192.473 54.932H192.472Z" fill="#512618"/>
<path d="M191.089 54.8284C190.393 54.5167 186.048 52.9216 181.523 57.5948C178.993 60.2072 179.256 63.9975 179.332 65.4339C179.392 66.5548 180.128 67.2688 180.259 67.2782C180.496 67.2959 178.939 63.1556 187.393 60.8428C189.793 60.1867 190.664 58.5935 190.859 58.4012C191.527 57.7432 192.471 56.4058 192.011 55.5191C191.823 55.156 191.465 54.9964 191.089 54.8275V54.8284Z" fill="#512618"/>
<path d="M196.092 67.3835C196.286 67.2099 197.174 66.4129 197.957 66.7003C198.707 66.9757 199.169 67.8045 199.289 68.4765C199.538 69.8783 199.045 72.0717 197.824 73.1226C197.578 73.3335 197.093 73.7395 196.492 73.6695C195.928 73.6033 195.562 73.1534 195.426 72.9863C194.342 71.6507 194.541 68.7751 196.092 67.3835Z" fill="#F79556"/>
<path d="M187.442 126.943C189.258 126.297 190.646 126.187 192.777 125.731C196.171 125.004 198.111 124.519 200.293 123.064C201.827 122.041 202.766 121.659 204.172 121.123C206.163 120.366 208.113 121.077 208.9 121.366C211.39 122.275 213.551 123.966 213.507 125.852C213.489 126.608 213.143 127.186 213.143 127.186C212.689 127.943 211.93 128.257 211.567 128.398C205.445 130.792 201.747 131.187 201.746 131.187C196.14 131.786 196.928 131.096 192.896 131.673C189.926 132.097 188.473 132.318 186.713 131.915C184.836 131.486 184.313 130.213 184.41 129.005C184.497 127.922 185.932 127.481 187.441 126.944L187.442 126.943Z" fill="#F79556"/>
<path d="M206.173 119.366C205.119 119.596 204.026 119.942 202.779 121.185C201.976 121.986 200.779 122.822 199.627 123.367C199.227 123.556 198.737 123.48 198.657 123.731C198.543 124.087 199.305 124.594 199.748 124.943C202.057 126.761 203.344 130.05 202.415 131.248C202.191 131.537 201.895 131.617 201.93 131.733C202.03 132.062 204.474 131.632 206.173 131.248C210.251 130.328 211.204 130.218 213.327 128.581C214.585 127.61 215.276 125.233 214.66 123.246C213.651 119.985 209.217 118.7 206.173 119.366Z" fill="#FCCC44"/>
<path d="M169.889 129.368H188.591C188.848 129.368 188.97 129.051 188.779 128.879L175.377 116.576C174.988 116.225 174.483 116.031 173.959 116.031H155.256C155 116.031 154.877 116.348 155.069 116.52L168.47 128.823C168.859 129.174 169.364 129.368 169.889 129.368Z" fill="white"/>
<path d="M211.684 95.2389C211.34 94.1507 210.766 92.5584 209.308 91.1789C208.75 90.6507 207.363 89.3757 205.208 89.1545C203.349 88.9632 201.937 89.6604 201.309 89.9815C198.517 91.4067 198.099 99.2411 198.879 102.844C199.597 106.156 200.621 108.965 202.285 113.525C203.283 116.259 202.405 121.842 202.714 122.751C203.429 124.858 205.643 125.804 207.423 126.6C209.625 127.584 212.164 129.432 213.463 128.663C214.842 127.849 214.95 125.7 214.991 123.518C215.131 116.057 213.647 111.66 213.287 105.495C213.149 103.145 213.01 99.4305 211.683 95.2389H211.684Z" fill="#FCCC44"/>
<path d="M202.583 121.338C202.928 119.772 203.195 118.197 203.26 116.572C203.288 115.76 203.272 114.938 203.113 114.094C203.092 113.989 203.076 113.883 203.049 113.778L202.96 113.46C202.93 113.348 202.9 113.263 202.87 113.166L202.779 112.882L202.404 111.752C201.896 110.251 201.352 108.765 200.814 107.282L199.197 102.803C199.251 104.41 199.529 106 199.901 107.556C200.276 109.113 200.746 110.637 201.256 112.142L201.648 113.267L201.749 113.547C201.782 113.639 201.821 113.74 201.843 113.819L201.923 114.072C201.948 114.158 201.968 114.247 201.992 114.335C202.168 115.045 202.248 115.816 202.31 116.589C202.433 118.141 202.428 119.735 202.583 121.336V121.338Z" fill="#EA9A26"/>
<path d="M188.698 76.3997C188.76 76.3167 188.711 76.1991 188.61 76.1823C188.172 76.1104 187.106 75.9592 185.877 75.9583C185.035 75.9583 184.233 76.0945 183.899 76.1589C183.811 76.1757 183.763 76.27 183.8 76.3521C183.989 76.7749 184.63 77.8893 186.131 77.8753C187.48 77.8623 188.383 76.8263 188.698 76.3997Z" fill="#D65B5B"/>
<path d="M183.987 66.4102C183.904 66.1367 183.753 65.9034 183.575 65.6981C183.397 65.49 183.184 65.3135 182.95 65.1679C182.477 64.8693 181.887 64.8226 181.344 64.8357C181.207 64.8413 181.071 64.8413 180.936 64.8627L180.734 64.8889C180.663 64.9019 180.589 64.9197 180.518 64.9355C180.237 65.0177 179.989 65.1568 179.773 65.3154C179.343 65.6402 179.034 66.0537 178.722 66.4242L178.779 66.4998C179.002 66.3654 179.192 66.2077 179.395 66.0714C179.596 65.9342 179.803 65.812 180.014 65.7214C180.222 65.6272 180.435 65.5646 180.64 65.5516L180.792 65.546L180.961 65.5543C181.073 65.5543 181.184 65.5749 181.294 65.5898C181.404 65.6038 181.511 65.6393 181.618 65.6664C181.722 65.7074 181.827 65.7382 181.927 65.7867C182.129 65.8698 182.328 65.9538 182.54 66.0201L183.192 66.2432C183.418 66.3225 183.651 66.4037 183.919 66.4793L183.986 66.413L183.987 66.4102Z" fill="#512618"/>
<path d="M193.636 65.6916C193.193 65.3043 192.667 65.0112 192.102 64.7891C191.534 64.5726 190.91 64.4671 190.276 64.4876C190.117 64.4876 189.959 64.5091 189.797 64.5147C189.637 64.5324 189.478 64.5567 189.315 64.581C188.996 64.6435 188.691 64.7732 188.425 64.958C187.897 65.3314 187.471 65.854 187.333 66.5027L187.42 66.5774C188.026 66.3552 188.499 66.1387 188.975 65.9595C189.211 65.869 189.433 65.7691 189.66 65.658C189.774 65.6076 189.89 65.5526 190.009 65.504C190.13 65.4658 190.251 65.42 190.378 65.3958C190.63 65.3454 190.891 65.3062 191.156 65.3062C191.421 65.2922 191.69 65.3071 191.961 65.3435C192.506 65.4023 193.048 65.5647 193.574 65.7887L193.635 65.6926L193.636 65.6916Z" fill="#512618"/>
<path d="M191.398 68.4738C191.38 68.6241 190.876 69.0198 189.526 68.8565C188.926 68.7846 188.345 68.5615 188.38 68.2619C188.415 67.9754 188.863 67.4938 189.388 67.4705C190.306 67.4285 191.434 68.1733 191.397 68.4738H191.398Z" fill="#E6E6E6"/>
<path d="M190.395 68.01C190.147 67.1905 188.708 67.3492 188.903 68.4468C189.099 69.5463 190.793 69.3269 190.395 68.01Z" fill="#512618"/>
<path d="M188.219 68.4729C188.39 68.3292 188.554 68.2163 188.72 68.1547C188.884 68.0921 189.043 68.0744 189.207 68.0791C189.535 68.0893 189.89 68.1855 190.264 68.2825C190.639 68.3815 191.034 68.4897 191.465 68.542C191.681 68.5653 191.908 68.5775 192.142 68.5373C192.258 68.5187 192.378 68.4795 192.484 68.4197C192.591 68.3572 192.678 68.2648 192.72 68.1612C192.612 68.1985 192.517 68.2088 192.426 68.1995C192.332 68.1845 192.247 68.1668 192.159 68.1332C191.984 68.0735 191.809 67.9951 191.629 67.9167C191.268 67.7589 190.89 67.5965 190.472 67.4873C190.058 67.3828 189.591 67.31 189.104 67.4425C188.865 67.5107 188.63 67.646 188.472 67.8364C188.314 68.0268 188.231 68.2517 188.218 68.472L188.219 68.4729Z" fill="#512618"/>
<path d="M183.499 68.697C183.484 68.8192 183.037 69.1394 181.837 68.9994C181.303 68.9368 181.07 68.7016 181.101 68.4571C181.131 68.2238 181.242 67.885 181.708 67.8682C182.524 67.8392 183.53 68.4524 183.499 68.697Z" fill="#E6E6E6"/>
<path d="M182.674 68.2638C182.451 67.5264 181.156 67.6692 181.331 68.6567C181.508 69.646 183.033 69.4482 182.674 68.2638Z" fill="#512618"/>
<path d="M180.618 68.4804C180.789 68.4011 180.937 68.3208 181.083 68.2713C181.229 68.2209 181.362 68.1957 181.484 68.1967C181.726 68.1957 181.959 68.2788 182.239 68.3927C182.517 68.5056 182.822 68.6493 183.184 68.7361C183.365 68.7753 183.565 68.8043 183.771 68.7669C183.975 68.7315 184.171 68.6157 184.259 68.4487C184.069 68.4729 183.924 68.4393 183.795 68.3824C183.666 68.3264 183.543 68.2461 183.414 68.164C183.157 67.9979 182.879 67.8075 182.536 67.6675C182.364 67.5993 182.177 67.5405 181.97 67.52C181.764 67.4995 181.538 67.5191 181.337 67.6003C181.134 67.6805 180.966 67.8149 180.847 67.9689C180.728 68.1248 180.655 68.2984 180.617 68.4804H180.618Z" fill="#512618"/>
<path d="M199.747 124.943C199.304 124.594 198.541 124.087 198.656 123.731C198.736 123.481 199.226 123.556 199.626 123.367C200.777 122.821 201.975 121.985 202.778 121.185C202.847 121.116 202.915 121.051 202.984 120.988C205.96 122.926 209.256 126.415 209.856 130.379C208.947 130.639 207.813 130.878 206.173 131.248C204.475 131.632 202.03 132.062 201.93 131.733C201.894 131.618 202.191 131.537 202.415 131.248C203.344 130.05 202.057 126.761 199.748 124.943H199.747Z" fill="white"/>
<path d="M159.92 101.029C162.153 99.1264 162.803 98.6383 163.24 98.965C164.421 99.847 165.518 100.705 166.52 101.511C164.76 104.327 162.022 106.44 159.636 107.667C159.07 106.627 158.867 106.144 158.017 105.345C157.717 105.064 157.305 104.713 157.245 104.161C157.174 103.507 157.64 102.972 159.92 101.029V101.029Z" fill="white"/>
<path d="M169.585 130.036H188.288C188.544 130.036 188.667 129.718 188.475 129.547L175.074 117.243C174.685 116.892 174.18 116.698 173.655 116.698H154.953C154.696 116.698 154.574 117.016 154.766 117.187L168.167 129.491C168.556 129.841 169.061 130.036 169.585 130.036Z" fill="#312553"/>
<path d="M189.044 127.539C188.249 127.148 187.207 126.505 186.399 125.253C185.874 124.441 185.607 124.038 185.351 123.711C184.227 122.28 182.945 121.482 182.244 121.054C181.238 120.44 181.277 120.55 179.697 119.629C179.607 119.577 179.348 119.461 179.112 119.559C178.877 119.657 178.51 120.766 179.265 121.519C179.773 122.026 180.196 122.268 180.803 122.623C180.935 122.7 181.48 123.126 181.608 123.307C181.783 123.557 182.289 124.094 182.307 124.566C182.331 125.214 182.114 125.612 181.477 125.694C181.063 125.747 180.724 125.542 180.528 125.42C179.27 124.636 178.155 123.887 177.591 123.446C177.591 123.446 175.96 122.391 173.578 121.946C173.523 121.936 172.818 121.732 172.641 122.441C172.603 122.594 172.577 122.763 172.801 123.008C173.274 123.526 173.902 123.735 173.902 123.735C175.189 124.279 176.63 125.926 176.52 126.082C176.479 126.14 176.094 125.959 175.323 125.596C174.577 125.245 172.604 124.038 171.685 123.56C171.151 123.283 170.385 122.904 169.302 123.033C168.865 123.084 168.502 123.33 168.439 123.582C168.351 123.936 168.601 123.945 168.484 124.158C168.411 124.291 168.376 124.284 168.271 124.407C167.952 124.779 168.631 125.165 168.881 125.287C170.274 125.961 172.348 127.489 173.773 128.036C175.271 128.611 175.187 128.279 176.975 128.946C178.021 129.336 178.027 129.442 179.619 130.132C181.687 131.029 183.103 131.469 183.442 131.573C184.932 132.029 185.695 132.258 186.627 132.252C187.672 132.247 189.13 132.238 189.906 131.184C190.662 130.158 190.543 128.444 189.76 127.833C189.521 127.646 189.453 127.743 189.042 127.541L189.044 127.539Z" fill="#F79556"/>
<path d="M166.676 48.1467H128.196C125.686 48.1467 123.651 50.1814 123.651 52.6921V70.7763C123.651 73.2861 125.686 75.3217 128.196 75.3217H156.304L161.487 80.0574V75.3217H166.676C169.185 75.3217 171.22 73.287 171.22 70.7763V52.6921C171.22 50.1823 169.186 48.1467 166.676 48.1467Z" fill="#7764A6"/>
<path d="M155.951 68.9629C155.951 69.5155 155.503 69.9635 154.95 69.9635C154.398 69.9635 153.95 69.5155 153.95 68.9629C153.95 68.4104 154.398 67.9624 154.95 67.9624C155.503 67.9624 155.951 68.4104 155.951 68.9629Z" fill="white"/>
<path d="M160.093 69.0448C160.139 68.4941 159.73 68.0108 159.179 67.9652C158.628 67.9196 158.145 68.3291 158.099 68.8798C158.054 69.4305 158.463 69.9139 159.014 69.9595C159.565 70.005 160.048 69.5955 160.093 69.0448Z" fill="white"/>
<path d="M164.239 69.126C164.328 68.5805 163.957 68.0666 163.412 67.9781C162.867 67.8895 162.353 68.2599 162.264 68.8054C162.176 69.3508 162.546 69.8647 163.091 69.9533C163.637 70.0418 164.151 69.6714 164.239 69.126Z" fill="white"/>
<path d="M164.2 55.5724H141.152C140.597 55.5724 140.147 55.1225 140.147 54.5672C140.147 54.0119 140.597 53.562 141.152 53.562H164.2C164.755 53.562 165.205 54.0119 165.205 54.5672C165.205 55.1225 164.755 55.5724 164.2 55.5724Z" fill="white"/>
<path d="M164.2 60.3725H130.674C130.118 60.3725 129.669 59.9226 129.669 59.3673C129.669 58.8119 130.118 58.3621 130.674 58.3621H164.2C164.755 58.3621 165.205 58.8119 165.205 59.3673C165.205 59.9226 164.755 60.3725 164.2 60.3725Z" fill="white"/>
<path d="M164.2 65.1737H130.674C130.118 65.1737 129.669 64.7239 129.669 64.1685C129.669 63.6132 130.118 63.1633 130.674 63.1633H164.2C164.755 63.1633 165.205 63.6132 165.205 64.1685C165.205 64.7239 164.755 65.1737 164.2 65.1737Z" fill="white"/>
<path d="M150.992 69.9738H130.673C130.118 69.9738 129.668 69.5239 129.668 68.9686C129.668 68.4132 130.118 67.9634 130.673 67.9634H150.992C151.548 67.9634 151.997 68.4132 151.997 68.9686C151.997 69.5239 151.548 69.9738 150.992 69.9738Z" fill="white"/>
<path d="M130.759 137.541H140.805C140.796 137.478 140.786 137.414 140.774 137.354C140.422 135.564 139.597 134.892 139.211 134.618C137.601 133.477 135.41 134.195 134.834 134.385C132.806 135.05 131.473 136.543 130.76 137.541H130.759Z" fill="#A30010"/>
<path d="M97.9037 137.542H129.543C131.04 135.265 132.627 132.977 134.364 129.539C134.855 128.567 135.36 127.155 135.072 125.474C134.814 123.96 133.961 122.897 133.509 122.505C130.804 120.163 125.189 118.8 119.207 118.294C114.608 117.905 112.043 117.979 108.238 118.296C102.255 118.795 96.6411 120.168 93.9374 122.511C93.4848 122.903 92.6337 123.967 92.3752 125.482C92.0887 127.163 92.5936 128.574 93.0854 129.547C94.8222 132.981 96.4087 135.268 97.9056 137.542L97.9037 137.542Z" fill="#A30010"/>
<path d="M96.6877 137.542C95.9728 136.543 94.6411 135.055 92.616 134.392C92.0401 134.203 89.8479 133.484 88.239 134.627C87.8536 134.9 87.0277 135.572 86.6768 137.362C86.6656 137.42 86.6562 137.48 86.6469 137.541H96.6877V137.542Z" fill="#A30010"/>
<path d="M103.763 116.211C104.781 116.845 105.845 120.433 102.091 125.63C101.669 126.214 100.706 128.526 97.5874 132.991C96.7913 134.13 95.6434 135.086 94.4377 135.365C93.314 135.625 92.8614 135.259 92.2632 134.3C91.874 133.676 91.9431 132.939 92.699 130.701C93.7835 127.491 97.3765 121.413 98.1594 119.756C99.3699 117.197 100.01 116.633 100.495 116.37C100.637 116.292 102.298 115.298 103.763 116.209V116.211Z" fill="#EC7D40"/>
<path d="M120.987 124.922C120.234 122.916 120.262 122.302 120.306 120.942C120.366 119.121 120.721 118.149 121.248 117.39C121.642 116.823 121.892 116.463 122.282 116.404C123.409 116.235 124.285 118.801 126.709 122.884C128.438 125.795 130.404 129.136 131.33 131.04C131.676 131.753 131.681 133.723 130.818 134.19C128.884 135.237 127.345 134.136 125.564 131.639C122.881 127.877 121.79 127.058 120.988 124.922H120.987Z" fill="#EC7D40"/>
<path d="M104.485 101.049C104.236 100.98 101.571 101.787 99.5127 105.632C97.7171 108.987 97.0638 115.528 99.9783 117.986C101.422 119.204 103.852 119.735 105.494 118.996C105.821 118.848 106.58 118.577 106.814 117.986C107.223 116.954 106.871 115.991 105.882 114.256C105.882 114.256 102.728 110.032 103.473 105.555C103.614 104.712 103.738 104.351 104.328 103.69C104.833 103.124 105.394 103.108 105.494 102.603C105.612 102.003 105.112 101.222 104.484 101.049H104.485Z" fill="#512618"/>
<path d="M104.018 101.36C103.966 101.356 103.915 101.37 103.865 101.384C103.816 101.398 103.766 101.415 103.718 101.434C103.621 101.47 103.527 101.514 103.434 101.56C103.248 101.651 103.069 101.755 102.896 101.867C102.549 102.092 102.223 102.343 101.919 102.619C101.305 103.165 100.773 103.794 100.306 104.464C100.072 104.799 99.8561 105.146 99.6517 105.501L99.5024 105.769L99.3587 106.041C99.2663 106.223 99.1767 106.401 99.0974 106.588C98.935 106.96 98.7847 107.338 98.6606 107.727C98.5337 108.114 98.4161 108.506 98.3218 108.905C98.2239 109.302 98.1371 109.703 98.0699 110.107C98.0316 110.309 98.0045 110.511 97.9728 110.714C97.9485 110.917 97.9196 111.12 97.9009 111.324C97.8151 112.139 97.7936 112.96 97.8403 113.777C97.8664 114.185 97.914 114.591 97.9793 114.994C98.0484 115.396 98.1464 115.794 98.2733 116.182C98.5234 116.96 98.9247 117.694 99.5108 118.299C99.4277 118.235 99.3437 118.171 99.2607 118.106C99.1786 118.039 99.1048 117.964 99.0255 117.892C98.9453 117.822 98.8799 117.738 98.8071 117.66C98.7726 117.619 98.7353 117.581 98.7017 117.539L98.6046 117.412C98.5393 117.327 98.473 117.243 98.418 117.152C98.362 117.061 98.2985 116.974 98.2481 116.879L98.0923 116.597L97.9532 116.307C97.7806 115.914 97.6415 115.506 97.5314 115.092C97.4259 114.677 97.3466 114.254 97.2925 113.829C97.1889 112.979 97.1767 112.119 97.2402 111.267C97.3009 110.415 97.439 109.569 97.6424 108.738C97.8506 107.908 98.1221 107.091 98.4954 106.312C98.5869 106.117 98.6905 105.925 98.7941 105.737L98.9546 105.459L99.1235 105.187C99.3521 104.824 99.5995 104.474 99.8654 104.138C100.396 103.466 101.014 102.861 101.703 102.355C101.878 102.232 102.055 102.112 102.238 102.003C102.421 101.894 102.606 101.789 102.8 101.701C102.994 101.611 103.191 101.53 103.393 101.464C103.495 101.434 103.597 101.405 103.701 101.384C103.753 101.374 103.806 101.365 103.858 101.359C103.91 101.354 103.965 101.349 104.017 101.363L104.018 101.36Z" fill="#512618"/>
<path d="M120.954 101.981C121.797 101.923 122.537 102.792 122.741 103.069C124.917 106.021 123.798 111.713 123.129 113.557C122.54 115.186 121.175 118.957 118.235 119.462C117.204 119.639 115.785 119.448 114.895 118.529C113.333 116.916 114.235 113.918 114.74 112.236C115.476 109.79 116.068 110.223 118.236 105.865C119.396 103.534 119.903 102.052 120.955 101.98L120.954 101.981Z" fill="#512618"/>
<path d="M120.9 102.229C121.116 102.187 121.346 102.215 121.561 102.28C121.775 102.348 121.977 102.454 122.165 102.579C122.354 102.703 122.527 102.848 122.688 103.008C122.769 103.087 122.847 103.173 122.916 103.261C122.987 103.349 123.061 103.434 123.125 103.527C123.389 103.893 123.604 104.293 123.783 104.707C123.961 105.121 124.09 105.554 124.197 105.99C124.413 106.863 124.496 107.759 124.519 108.65C124.53 109.096 124.518 109.541 124.494 109.986C124.467 110.431 124.423 110.874 124.366 111.316C124.246 112.197 124.081 113.076 123.795 113.933C123.519 114.769 123.21 115.61 122.798 116.403C122.395 117.198 121.895 117.959 121.252 118.592C120.926 118.902 120.569 119.183 120.174 119.393C120.073 119.442 119.976 119.497 119.871 119.537L119.717 119.603L119.56 119.657C119.35 119.729 119.132 119.774 118.916 119.808C119.337 119.68 119.73 119.489 120.084 119.245C120.438 119.001 120.752 118.706 121.031 118.382C121.312 118.061 121.555 117.706 121.773 117.338C121.992 116.97 122.188 116.588 122.361 116.194C122.708 115.406 122.984 114.589 123.234 113.754L123.324 113.446C123.351 113.344 123.38 113.242 123.405 113.137C123.456 112.93 123.5 112.72 123.543 112.509C123.627 112.087 123.696 111.662 123.752 111.233C123.867 110.378 123.928 109.515 123.934 108.655C123.938 108.224 123.925 107.794 123.891 107.366C123.854 106.938 123.803 106.513 123.726 106.092C123.568 105.253 123.313 104.426 122.873 103.695C122.822 103.601 122.76 103.515 122.701 103.425C122.642 103.335 122.582 103.251 122.513 103.169C122.377 103.006 122.226 102.854 122.064 102.715C121.901 102.577 121.723 102.455 121.529 102.367C121.336 102.276 121.122 102.222 120.902 102.228L120.9 102.229Z" fill="#512618"/>
<path d="M98.9695 118.685C99.1282 117.923 99.7282 116.913 100.446 116.355C101.117 115.833 101.727 115.306 103.631 115.267C105.354 115.232 106.7 114.84 108.37 114.18C110.151 113.476 112.603 112.982 114.974 114.18C115.52 114.456 115.774 114.7 116.605 115.035C117.812 115.521 118.161 115.522 119.169 115.657C120.752 115.868 121.227 115.696 122.509 116.278C123.317 116.646 123.678 117.465 123.829 117.755C124.785 119.578 124.203 121.953 123.752 124.203C122.522 130.335 121.933 133.286 122.275 135.857C122.43 137.022 122.217 138.291 121.887 139.12C121.276 140.656 119.206 139.96 116.837 140.002C107.144 140.174 104.328 141.155 102.621 138.709C102.112 137.98 101.816 137.002 101.689 133.759C101.431 127.164 101.922 127.154 100.834 124.125C99.8048 121.258 98.5775 120.576 98.9695 118.686V118.685Z" fill="#FCCC44"/>
<path d="M106.368 103.52C106.249 103.409 105.786 102.99 105.081 102.968C104.937 102.963 104.254 102.942 103.805 103.428C103.496 103.762 103.453 104.166 103.423 104.493C103.387 104.882 103.427 105.203 104.312 107.51C104.342 107.59 104.561 108.144 105.01 108.725C105.195 108.963 105.311 109.066 105.45 109.143C105.806 109.339 106.264 109.334 106.535 109.215C107.659 108.723 107.159 105.603 107.107 105.282C106.936 104.213 106.661 103.794 106.368 103.519V103.52Z" fill="#F79556"/>
<path d="M108.564 111.63C108.268 112.003 107.824 112.431 107.82 113.746C107.816 115.224 107.814 115.964 107.932 116.649C108.176 118.051 108.46 119.074 109.39 120.123C109.729 120.506 111.072 121.462 112.908 121.353C115.894 121.174 116.548 117.488 116.637 116.594C116.757 115.375 116.867 114.249 116.247 113.123C114.632 110.19 110.408 110.836 110.199 110.869C109.214 111.02 108.797 111.337 108.564 111.63Z" fill="#EC7D40"/>
<path d="M119.517 108.856C119.709 109.092 119.87 109.151 119.982 109.167C119.982 109.167 120.165 109.193 120.371 109.09C120.743 108.902 121.726 107.776 121.925 105.439C122.009 104.454 122.061 103.727 121.614 103.419C121.197 103.131 120.53 103.337 120.137 103.574C118.822 104.368 118.971 106.482 119.05 107.614C119.054 107.662 119.11 108.358 119.516 108.857L119.517 108.856Z" fill="#EC7D40"/>
<path d="M104.951 101.126C104.782 99.1859 105.76 97.6469 106.116 97.0859C107.137 95.4787 108.48 94.7059 109.224 94.2887C111.337 93.1053 113.313 93.0474 113.886 93.0455C114.766 93.0437 117.558 93.0362 119.868 95.1437C120.154 95.405 123.441 99.6498 120.955 105.166C120.678 105.781 120.863 106.133 120.722 107.031C120.624 107.654 120.499 108.751 119.945 109.983C118.547 113.091 117.995 113.206 116.449 114.566C115.966 114.992 114.781 116.065 114.507 116.275C113.846 116.78 112.254 116.897 110.934 116.198C109.73 115.56 107.515 113.168 106.894 111.225C106.636 110.419 106.566 109.915 106.428 108.428C106.195 105.915 106.074 104.644 105.884 103.922C105.429 102.188 105.051 102.266 104.952 101.124L104.951 101.126Z" fill="#F79556"/>
<path d="M115.361 98.7959C114.831 99.6984 114.223 100.213 113.031 101.205C110.79 103.068 107.931 105.057 105.728 104.39C105.625 104.36 104.416 103.974 103.786 102.836C103.248 101.864 103.425 100.868 103.631 99.8067C103.79 98.9844 104.175 97.1215 105.729 95.378C106.984 93.9687 108.274 93.4554 110.468 92.5808C111.725 92.0796 112.751 91.837 113.887 92.0367C114.388 92.1244 114.723 92.1832 115.052 92.425C116.467 93.4619 116.613 96.6679 115.363 98.7959H115.361Z" fill="#512618"/>
<path d="M114.894 93.0466C115.229 93.2436 115.503 93.5497 115.704 93.8932C115.806 94.064 115.893 94.245 115.965 94.4308C116.039 94.6165 116.097 94.8078 116.146 95.001C116.196 95.1942 116.229 95.3912 116.259 95.589C116.284 95.7869 116.304 95.9866 116.31 96.1864C116.328 96.5858 116.305 96.9872 116.25 97.3848C116.224 97.5836 116.185 97.7814 116.142 97.9784C116.096 98.1744 116.042 98.3694 115.977 98.5617C115.851 98.9472 115.684 99.3233 115.477 99.678C115.274 100.032 115.02 100.367 114.745 100.666C114.469 100.966 114.172 101.232 113.878 101.489C112.701 102.491 111.473 103.466 110.094 104.226C109.404 104.602 108.674 104.925 107.901 105.109C107.514 105.2 107.117 105.252 106.72 105.243C106.324 105.239 105.93 105.16 105.572 105.012C105.764 105.041 105.953 105.069 106.143 105.065C106.238 105.071 106.333 105.061 106.427 105.06C106.521 105.049 106.615 105.046 106.708 105.029C107.079 104.974 107.442 104.878 107.791 104.744C108.491 104.481 109.15 104.112 109.781 103.702C111.046 102.879 112.207 101.893 113.371 100.902C113.66 100.656 113.937 100.407 114.186 100.145C114.438 99.8842 114.656 99.6042 114.849 99.2981C115.232 98.6924 115.495 97.9998 115.651 97.2802C115.73 96.92 115.781 96.5532 115.802 96.1826C115.824 95.813 115.818 95.4397 115.773 95.071C115.764 94.9777 115.746 94.8872 115.733 94.7948C115.715 94.7042 115.7 94.6118 115.676 94.5222C115.636 94.3402 115.579 94.1629 115.512 93.9884C115.446 93.8138 115.361 93.6449 115.258 93.4872C115.159 93.3276 115.036 93.1801 114.895 93.0466H114.894Z" fill="#512618"/>
<path d="M115.832 92.5417C116.111 92.2383 116.705 92.3839 117.805 92.929C118.622 93.3331 119.617 93.8259 120.536 94.8647C123.11 97.773 122.518 100.426 122.281 102.144C122.255 102.333 121.282 105.095 121.067 104.544C120.119 102.105 115.946 101.253 115.226 96.723C115.002 95.3127 114.695 93.7802 115.832 92.5407V92.5417Z" fill="#512618"/>
<path d="M121.13 105.32C120.875 104.771 120.486 104.322 120.058 103.918C119.632 103.51 119.163 103.143 118.704 102.752C118.244 102.364 117.788 101.956 117.37 101.504C117.159 101.279 116.964 101.037 116.775 100.79C116.729 100.727 116.685 100.663 116.64 100.598C116.594 100.535 116.551 100.47 116.51 100.403L116.384 100.205L116.267 100.001C116.187 99.8666 116.124 99.7219 116.053 99.5828C116.019 99.5119 115.99 99.4391 115.958 99.3672C115.928 99.2944 115.894 99.2244 115.869 99.1498C115.816 99.0014 115.76 98.8558 115.718 98.7046L115.652 98.4796L115.599 98.251C115.561 98.0988 115.536 97.9448 115.511 97.7908C115.48 97.6378 115.472 97.4819 115.454 97.3279C115.425 97.0227 115.406 96.7287 115.389 96.4216C115.362 95.814 115.371 95.1822 115.542 94.5764C115.632 94.2768 115.752 93.9847 115.923 93.7252C116.014 93.5992 116.101 93.4723 116.208 93.3631C116.308 93.2474 116.429 93.1522 116.542 93.0532C116.355 93.2912 116.193 93.5414 116.074 93.8074C115.957 94.0752 115.88 94.3552 115.84 94.6408C115.795 94.9246 115.784 95.2139 115.799 95.5042C115.811 95.7944 115.84 96.0856 115.876 96.3787L115.936 96.8202C115.957 96.9658 115.974 97.1216 115.998 97.2626C116.024 97.4054 116.04 97.5491 116.073 97.6891C116.103 97.83 116.13 97.9719 116.171 98.1091L116.227 98.3172L116.293 98.5216C116.333 98.6588 116.39 98.7914 116.441 98.9248C116.493 99.0583 116.553 99.188 116.612 99.3187C116.678 99.4456 116.737 99.5763 116.81 99.6995C116.944 99.9534 117.106 100.191 117.27 100.428C117.438 100.663 117.618 100.89 117.808 101.112C118.188 101.555 118.606 101.972 119.031 102.392C119.457 102.812 119.889 103.24 120.279 103.711C120.47 103.951 120.652 104.199 120.8 104.469C120.948 104.737 121.067 105.023 121.128 105.319L121.13 105.32Z" fill="#512618"/>
<path d="M112.409 107.73C112.178 107.964 111.875 108.111 111.556 108.191C111.397 108.23 111.229 108.251 111.066 108.252C110.903 108.257 110.74 108.245 110.578 108.219C110.255 108.167 109.942 108.054 109.664 107.884C109.525 107.798 109.394 107.699 109.278 107.584C109.163 107.468 109.058 107.339 108.992 107.187C109.301 107.289 109.58 107.365 109.858 107.436C110.135 107.506 110.406 107.563 110.68 107.607L110.783 107.625L110.886 107.638C110.921 107.643 110.955 107.65 110.99 107.654C111.024 107.658 111.059 107.661 111.094 107.666C111.233 107.686 111.369 107.697 111.51 107.707C111.792 107.728 112.083 107.724 112.41 107.731L112.409 107.73Z" fill="#512618"/>
<path d="M116.215 108C116.356 108.003 116.487 108.028 116.613 108.048L116.976 108.113C117.212 108.155 117.436 108.185 117.66 108.199C117.883 108.212 118.113 108.207 118.356 108.196C118.598 108.189 118.851 108.166 119.128 108.187C118.926 108.375 118.696 108.511 118.444 108.608C118.191 108.702 117.914 108.754 117.631 108.741C117.348 108.727 117.072 108.65 116.831 108.519C116.588 108.39 116.384 108.216 116.214 107.999L116.215 108Z" fill="#512618"/>
<path d="M111.771 113.544C111.736 113.488 111.772 113.418 111.836 113.412C112.112 113.388 112.784 113.344 113.551 113.401C114.075 113.44 114.57 113.563 114.775 113.619C114.829 113.634 114.854 113.695 114.827 113.744C114.689 113.999 114.237 114.664 113.302 114.584C112.461 114.512 111.947 113.824 111.772 113.544H111.771Z" fill="#D65B5B"/>
<path d="M124.045 129.713C123.748 129.323 123.474 128.971 123.232 128.659C122.078 127.174 121.442 126.356 120.914 124.949C120.164 122.951 120.183 122.334 120.227 120.982V120.938C120.281 119.306 120.567 118.232 121.184 117.344C121.583 116.769 121.847 116.389 122.27 116.327C122.308 116.321 122.347 116.318 122.386 116.318C123.182 116.318 123.822 117.502 124.984 119.651C125.487 120.582 126.058 121.637 126.775 122.845C127.378 123.861 127.905 124.756 128.37 125.545C128.6 125.937 128.815 126.302 129.016 126.644L129.042 126.688L129.013 126.729C128.351 127.649 127.08 128.887 124.782 129.559C124.599 129.612 124.371 129.679 124.125 129.741L124.076 129.753L124.045 129.712V129.713Z" fill="#FCCC44"/>
<path d="M123.828 123.735C123.762 124.724 123.631 125.7 123.492 126.673C123.35 127.645 123.186 128.612 123.023 129.577C122.86 130.542 122.694 131.503 122.567 132.467L122.519 132.829C122.506 132.949 122.494 133.071 122.478 133.191C122.461 133.312 122.45 133.433 122.441 133.554L122.41 133.918C122.371 134.404 122.36 134.893 122.353 135.389C122.223 134.91 122.151 134.417 122.105 133.92C122.073 133.424 122.055 132.923 122.08 132.427C122.12 131.432 122.246 130.447 122.411 129.475C122.577 128.501 122.782 127.538 123.016 126.581C123.253 125.626 123.51 124.674 123.829 123.736L123.828 123.735Z" fill="#EA9A26"/>
<path d="M99.8244 129.783C97.8366 129.516 96.0419 128.43 94.4899 126.556L94.4573 126.516L94.4806 126.47C95.2599 124.933 96.1259 123.342 96.8221 122.065C97.4297 120.949 97.9094 120.069 98.1445 119.571C99.3559 117.009 100.795 115.615 102.513 115.538C103.037 115.515 103.519 115.672 103.945 115.938C104.358 116.195 104.699 116.828 104.856 117.629C105.06 118.669 105.218 121.531 102.269 125.613C102.153 125.775 101.994 126.071 101.752 126.52C101.374 127.223 100.803 128.287 99.9009 129.747L99.8738 129.791L99.8234 129.784L99.8244 129.783Z" fill="#FCCC44"/>
<path d="M104.757 118.861C104.897 119.288 104.951 119.75 104.933 120.209C104.914 120.67 104.823 121.128 104.686 121.567C104.408 122.447 103.966 123.248 103.517 124.017C103.458 124.115 103.41 124.2 103.355 124.298L103.195 124.589L102.868 125.171C102.646 125.557 102.418 125.942 102.178 126.32C101.7 127.075 101.191 127.813 100.613 128.502C100.97 127.677 101.36 126.878 101.752 126.081C101.948 125.683 102.148 125.287 102.35 124.89C102.554 124.494 102.75 124.101 102.982 123.702C103.43 122.936 103.888 122.19 104.229 121.398C104.4 121.002 104.54 120.594 104.632 120.171C104.651 120.065 104.674 119.958 104.691 119.851C104.704 119.744 104.721 119.635 104.732 119.525C104.739 119.416 104.748 119.306 104.753 119.195C104.754 119.084 104.753 118.973 104.757 118.86V118.861Z" fill="#EA9A26"/>
<path d="M101.347 131.812C101.508 131.539 104.351 132.075 105.067 132.215C105.335 132.267 105.583 132.32 105.739 132.529C105.855 132.683 105.862 132.846 105.874 133.066C105.905 133.706 105.609 134.182 105.515 134.321C105.38 134.522 105.313 134.623 105.202 134.68C104.902 134.836 104.55 134.644 103.499 134.008C102.292 133.278 101.905 133.015 101.571 132.484C101.409 132.224 101.251 131.973 101.347 131.812Z" fill="#EC7D40"/>
<path d="M92.476 131.88C92.6757 131.452 93.1694 130.398 94.2389 130.099C95.1376 129.848 95.9747 130.261 96.4544 130.497C97.2486 130.889 97.1329 131.134 98.0269 131.595C98.9667 132.08 99.8617 132.205 100.028 132.227C100.949 132.348 101.073 132.139 101.469 132.345C102.269 132.76 102.466 133.981 102.423 134.727C102.409 134.969 102.339 136.212 101.435 136.788C101.234 136.917 100.945 137.041 99.8309 137.037C98.9807 137.033 98.0717 136.957 96.223 136.609C94.6981 136.322 94.3602 136.194 94.0914 136.072C93.3887 135.756 92.7196 135.455 92.3295 134.757C91.6762 133.586 92.3201 132.21 92.4741 131.88H92.476Z" fill="#EC7D40"/>
<path d="M101.397 128.502L100.994 128.813C100.95 128.848 100.942 128.912 100.976 128.956L106.796 136.481C106.83 136.526 106.894 136.534 106.939 136.499L107.341 136.188C107.385 136.154 107.394 136.09 107.359 136.046L101.539 128.52C101.505 128.476 101.441 128.468 101.397 128.502Z" fill="black"/>
<path d="M100.938 128.202L100.818 128.295C100.78 128.324 100.773 128.378 100.802 128.416L101.292 129.048C101.321 129.086 101.374 129.093 101.412 129.064L101.532 128.971C101.57 128.942 101.577 128.888 101.548 128.85L101.058 128.217C101.029 128.18 100.975 128.173 100.938 128.202Z" fill="black"/>
<path d="M107.851 137.269C107.793 137.314 107.71 137.307 107.661 137.253L106.881 136.414C106.824 136.353 106.832 136.256 106.897 136.205L107.062 136.078C107.128 136.027 107.223 136.043 107.268 136.114L107.884 137.08C107.923 137.142 107.909 137.224 107.851 137.269Z" fill="black"/>
<path d="M99.5351 134.017C99.6452 133.425 99.5799 133.12 100.162 132.583C100.463 132.305 100.288 132.152 100.565 131.73C100.673 131.567 100.807 131.365 101.058 131.238C101.472 131.03 101.988 131.135 102.313 131.372C102.479 131.492 105.204 133.292 105.72 133.748C105.98 133.979 106.216 134.235 106.212 134.556C106.212 134.623 106.178 134.855 106.033 135.048C105.899 135.228 105.72 135.272 105.72 135.272C105.72 135.272 105.822 135.398 105.854 135.586C105.899 135.855 105.755 136.07 105.585 136.168C105.463 136.24 105.317 136.258 105.317 136.258C105.317 136.258 105.451 136.437 105.33 136.678C105.243 136.85 105.048 136.886 105.048 136.886C105.048 136.886 105.056 137.066 104.958 137.155C104.51 137.558 100.745 137.693 100.252 137.021C100.228 136.987 99.6471 135.971 99.5351 135.676C99.3578 135.212 99.4436 134.51 99.5351 134.017Z" fill="#F79556"/>
<path d="M101.193 132.808C101.276 132.872 101.353 132.942 101.43 133.011C101.508 133.079 101.584 133.148 101.661 133.213C101.815 133.342 101.974 133.459 102.143 133.546L102.689 133.806L103.241 134.068L104.345 134.594C104.714 134.771 105.079 134.951 105.452 135.139C105.036 135.095 104.633 134.983 104.24 134.855C103.847 134.725 103.462 134.569 103.088 134.391C102.995 134.347 102.902 134.3 102.809 134.254C102.717 134.206 102.625 134.158 102.535 134.109C102.444 134.057 102.353 134.008 102.265 133.954L102.131 133.873L102.065 133.832L101.996 133.787C101.814 133.66 101.662 133.502 101.533 133.334C101.469 133.25 101.41 133.163 101.355 133.075C101.299 132.988 101.246 132.899 101.193 132.809V132.808Z" fill="#EC7D40"/>
<path d="M100.79 134.332C100.942 134.465 101.078 134.617 101.221 134.755C101.362 134.893 101.51 135.021 101.672 135.117C101.712 135.142 101.753 135.162 101.795 135.184L101.929 135.247C102.018 135.288 102.108 135.33 102.199 135.368C102.38 135.445 102.563 135.517 102.748 135.583C103.119 135.716 103.498 135.829 103.882 135.93C104.266 136.031 104.656 136.115 105.049 136.215C104.645 136.229 104.24 136.202 103.838 136.139C103.438 136.075 103.041 135.975 102.657 135.836C102.465 135.766 102.277 135.687 102.093 135.596C102.001 135.552 101.911 135.504 101.822 135.454C101.778 135.429 101.734 135.402 101.69 135.376C101.646 135.348 101.599 135.319 101.557 135.287C101.386 135.159 101.247 135.002 101.125 134.838C101.004 134.673 100.899 134.502 100.79 134.333V134.332Z" fill="#EC7D40"/>
<path d="M101.149 136.394C101.455 136.486 101.759 136.548 102.067 136.598C102.374 136.648 102.682 136.687 102.992 136.72C103.302 136.754 103.612 136.782 103.925 136.808L104.87 136.886C104.56 136.973 104.24 137.005 103.92 137.019C103.601 137.032 103.281 137.022 102.963 136.987C102.645 136.953 102.328 136.894 102.019 136.802C101.712 136.71 101.407 136.587 101.15 136.393L101.149 136.394Z" fill="#EC7D40"/>
<path d="M126.808 131.27C127.218 130.843 127.032 130.418 127.839 129.97C128.594 129.551 129.357 129.718 129.498 129.746C129.646 129.776 130.446 129.95 131.022 130.688C131.604 131.434 131.574 132.265 131.559 132.66C131.515 133.895 130.834 134.733 130.618 134.991C130.321 135.347 129.203 136.486 127.615 136.471C122.819 136.426 123.921 133.319 124.298 132.795C125.105 131.674 126.146 131.963 126.808 131.271V131.27Z" fill="#EC7D40"/>
<path d="M130.943 134.276C130.827 134.18 130.691 134.122 130.552 134.101C130.506 134.093 130.477 134.05 130.488 134.004C130.579 133.65 130.425 133.266 130.09 133.08C129.781 132.907 129.407 132.957 129.153 133.175C129.101 133.219 129.069 133.197 129.093 133.133C129.255 132.702 129.038 132.219 128.607 132.057C128.3 131.941 127.967 132.019 127.742 132.228C127.695 132.273 127.617 132.244 127.613 132.178C127.588 131.847 127.367 131.549 127.031 131.443C126.592 131.304 126.209 131.585 125.983 131.987C125.309 133.188 123.852 135.375 124.487 136.116C124.642 136.296 124.896 136.332 125.115 136.308C125.155 136.304 125.196 136.296 125.235 136.286C125.278 136.275 125.321 136.301 125.33 136.344C125.365 136.5 125.446 136.646 125.571 136.765C125.743 136.928 125.967 137.003 126.188 136.99C126.299 136.985 126.408 136.957 126.51 136.907C126.549 136.887 126.595 136.905 126.614 136.944C126.639 136.997 126.671 137.048 126.709 137.097C126.882 137.315 127.142 137.424 127.4 137.41C127.564 137.401 127.727 137.343 127.867 137.233C127.893 137.213 127.929 137.209 127.957 137.228C128.098 137.319 128.266 137.365 128.435 137.355C128.546 137.35 128.657 137.321 128.762 137.266C128.775 137.259 130.153 136.469 131.043 135.402C131.326 135.063 131.28 134.559 130.942 134.276H130.943Z" fill="#F79556"/>
<path d="M127.477 132.63C127.421 132.971 127.319 133.298 127.195 133.615C127.07 133.933 126.917 134.241 126.746 134.536C126.573 134.831 126.379 135.113 126.164 135.378C125.948 135.642 125.713 135.891 125.443 136.107C125.597 135.798 125.766 135.507 125.933 135.217L126.437 134.355L126.943 133.492C127.113 133.205 127.284 132.915 127.478 132.63H127.477Z" fill="#EC7D40"/>
<path d="M128.913 133.531C128.823 133.859 128.684 134.169 128.529 134.468C128.373 134.766 128.199 135.054 128.007 135.329C127.816 135.605 127.611 135.871 127.388 136.123C127.333 136.187 127.276 136.248 127.217 136.309C127.159 136.371 127.099 136.429 127.038 136.488C126.977 136.547 126.913 136.603 126.848 136.657L126.749 136.737C126.714 136.762 126.679 136.785 126.642 136.807C126.74 136.669 126.828 136.528 126.919 136.388L127.192 135.972C127.375 135.696 127.56 135.422 127.749 135.151C127.937 134.879 128.127 134.609 128.319 134.339C128.512 134.069 128.706 133.8 128.912 133.531H128.913Z" fill="#EC7D40"/>
<path d="M130.271 134.402C130.162 134.678 130.013 134.932 129.852 135.178C129.689 135.422 129.511 135.656 129.321 135.877C129.13 136.099 128.928 136.31 128.712 136.509C128.658 136.558 128.604 136.607 128.547 136.654C128.492 136.702 128.434 136.749 128.376 136.794C128.258 136.881 128.14 136.972 128.005 137.035C128.102 136.924 128.192 136.812 128.284 136.698L128.559 136.362C128.743 136.14 128.929 135.919 129.117 135.702C129.306 135.483 129.494 135.266 129.685 135.049C129.877 134.833 130.069 134.617 130.271 134.402H130.271Z" fill="#EC7D40"/>
<path d="M129.36 136.461C124.19 138.344 121.05 133.422 116.027 136.022C116.019 136.027 115.987 136.026 115.979 136.022C110.716 133.494 107.817 138.344 102.646 136.461C102.186 136.293 102.203 137.542 102.203 137.542H129.803C129.803 137.542 129.82 136.294 129.36 136.461Z" fill="white"/>
<path d="M155.59 141.168L60.5832 141.187C59.5837 141.187 58.7737 140.377 58.7737 139.378C58.7737 138.379 59.5837 137.568 60.5823 137.568L155.589 137.55C156.588 137.55 157.398 138.36 157.398 139.359C157.398 140.358 156.588 141.168 155.59 141.168Z" fill="#312553"/>
</g>
<defs>
<clipPath id="clip0_484_1323">
<rect width="157" height="140" fill="white" transform="translate(58 30)"/>
</clipPath>
</defs>
</svg>
