<svg width="60" height="60" viewBox="0 0 60 60" fill="none" xmlns="http://www.w3.org/2000/svg">
<rect width="60" height="60" rx="30" fill="#B1AA00"/>
<path d="M39 29.9999C39 30.1988 38.921 30.3896 38.7803 30.5303C38.6397 30.6709 38.4489 30.7499 38.25 30.7499H23.5603L29.0306 36.2193C29.1003 36.289 29.1556 36.3717 29.1933 36.4628C29.231 36.5538 29.2504 36.6514 29.2504 36.7499C29.2504 36.8485 29.231 36.9461 29.1933 37.0371C29.1556 37.1281 29.1003 37.2109 29.0306 37.2806C28.9609 37.3502 28.8782 37.4055 28.7872 37.4432C28.6961 37.4809 28.5985 37.5003 28.5 37.5003C28.4014 37.5003 28.3039 37.4809 28.2128 37.4432C28.1218 37.4055 28.039 37.3502 27.9694 37.2806L21.2194 30.5306C21.1496 30.4609 21.0943 30.3782 21.0566 30.2871C21.0188 30.1961 20.9994 30.0985 20.9994 29.9999C20.9994 29.9014 21.0188 29.8038 21.0566 29.7127C21.0943 29.6217 21.1496 29.539 21.2194 29.4693L27.9694 22.7193C28.1101 22.5786 28.301 22.4995 28.5 22.4995C28.699 22.4995 28.8899 22.5786 29.0306 22.7193C29.1713 22.86 29.2504 23.0509 29.2504 23.2499C29.2504 23.449 29.1713 23.6398 29.0306 23.7806L23.5603 29.2499H38.25C38.4489 29.2499 38.6397 29.3289 38.7803 29.4696C38.921 29.6103 39 29.801 39 29.9999Z" fill="white"/>
</svg>
