<svg width="274" height="199" viewBox="0 0 274 199" fill="none" xmlns="http://www.w3.org/2000/svg">
<path d="M0 12C0 5.37258 5.37258 0 12 0H262C268.627 0 274 5.37258 274 12V199H0V12Z" fill="#CF7676"/>
<g clip-path="url(#clip0_484_1517)">
<path d="M222.766 164.493C222.766 164.493 239.643 168.494 247.951 150.36C258.731 126.832 243.602 104.483 217.506 102.873C179.868 100.551 200.727 40.4536 141.334 56.7598C124.633 61.3449 88.3085 37.6753 66.926 77.7804C63.2899 84.6 52.4212 84.2648 37.9392 95.8993C12.3936 116.422 21.5899 164.711 43.1135 164.93C64.6372 165.15 222.766 164.493 222.766 164.493Z" fill="#FFD9B1" fill-opacity="0.3"/>
<path d="M46.876 164.842C46.876 164.842 47.6605 159.701 57.6711 158.318C67.6817 156.934 76.9904 145.845 93.4997 147.454C110.009 149.064 123.708 159.163 142.5 156.068C161.292 152.974 173.06 156.919 177.275 160.029C181.489 163.139 198.934 159.299 200.223 164.999L46.876 164.842Z" fill="white"/>
<path d="M88.0271 42.3331C88.0271 42.3331 76.7288 41.7802 82.7225 76.2192C82.7225 76.2192 86.7544 87.9093 81.6645 95.4439H156.595V42.3331H88.0271Z" fill="#E2B0B0"/>
<path d="M171.007 62.717H92.7778V164.749H171.007V62.717Z" fill="#B65656"/>
<path d="M172.25 62.717H95.3352V164.749H172.25V62.717Z" fill="#E9F3FE"/>
<path d="M172.251 62.7162L95.3361 62.7172C95.7617 56.9 95.1204 52.6767 94.0933 49.6389C92.1206 43.7978 88.7211 42.333 88.7211 42.333H161.259C167.451 42.333 172.251 46.063 173.558 51.0141C173.607 51.2001 173.652 51.386 173.691 51.571C174.932 57.2361 172.303 62.6128 172.251 62.7162Z" fill="#E9F3FE"/>
<path d="M172.251 62.716L95.3362 62.717C95.7618 56.8998 95.1204 52.6766 94.0933 49.6387C101.953 51.0786 121.422 54.1453 142.259 53.6292C155.74 53.2951 166.393 52.3932 173.691 51.5718C174.932 57.2369 172.303 62.6136 172.251 62.717V62.716Z" fill="#F6C0C0"/>
<path d="M111.144 84.3313H151.933C152.353 84.3313 152.694 84.6724 152.694 85.093V85.4838C152.694 85.9044 152.353 86.2455 151.933 86.2455H111.144C110.723 86.2455 110.382 85.9044 110.382 85.4838V85.093C110.382 84.6724 110.723 84.3313 111.144 84.3313Z" fill="#EC8425"/>
<path d="M136.146 87.55H110.982C110.651 87.55 110.382 87.819 110.382 88.1507V88.8627C110.382 89.1944 110.651 89.4633 110.982 89.4633H136.146C136.478 89.4633 136.747 89.1944 136.747 88.8627V88.1507C136.747 87.819 136.478 87.55 136.146 87.55Z" fill="#EC8425"/>
<path d="M106.453 89.1541V85.2461H105.937C105.624 85.2461 105.468 85.1159 105.468 84.8553C105.468 84.6674 105.59 84.5351 105.836 84.4566C105.961 84.4148 106.16 84.384 106.434 84.3631C106.707 84.3422 106.927 84.3323 107.094 84.3323C107.261 84.3323 107.357 84.3651 107.399 84.4297C107.441 84.4954 107.462 84.6604 107.462 84.9259V89.1551H107.994C108.338 89.1551 108.51 89.3033 108.51 89.6006C108.51 89.9128 108.338 90.07 107.994 90.07H105.852C105.701 90.07 105.574 90.0292 105.473 89.9486C105.372 89.8681 105.321 89.7547 105.321 89.6086C105.321 89.3063 105.496 89.1551 105.845 89.1551H106.454L106.453 89.1541Z" fill="#EC8425"/>
<path d="M151.932 104.482H111.144C110.723 104.482 110.382 104.823 110.382 105.244V105.633C110.382 106.054 110.723 106.395 111.144 106.395H151.932C152.352 106.395 152.693 106.054 152.693 105.633V105.244C152.693 104.823 152.352 104.482 151.932 104.482Z" fill="#FFD7B2"/>
<path d="M110.983 107.702H136.146C136.478 107.702 136.747 107.971 136.747 108.303V109.014C136.747 109.346 136.477 109.614 136.146 109.614H110.983C110.651 109.614 110.383 109.345 110.383 109.014V108.303C110.383 107.97 110.652 107.702 110.983 107.702Z" fill="#FFD7B2"/>
<path d="M108.59 109.225C108.59 109.486 108.408 109.616 108.044 109.616H105.778C105.451 109.616 105.288 109.485 105.288 109.222C105.288 109.14 105.332 109.042 105.419 108.932C105.548 108.785 105.737 108.563 105.986 108.269C106.364 107.794 106.679 107.385 106.933 107.039C107.02 106.923 107.145 106.748 107.306 106.513C107.439 106.279 107.505 106.081 107.505 105.92C107.505 105.74 107.448 105.592 107.332 105.474C107.217 105.357 107.07 105.298 106.89 105.298C106.71 105.298 106.563 105.353 106.434 105.464C106.346 105.538 106.276 105.676 106.227 105.879C106.162 106.142 106.12 106.294 106.102 106.334C106.034 106.482 105.921 106.555 105.764 106.555C105.626 106.555 105.518 106.505 105.439 106.403C105.366 106.316 105.329 106.2 105.329 106.058C105.329 105.897 105.354 105.733 105.404 105.568C105.515 105.213 105.711 104.941 105.991 104.752C106.259 104.572 106.583 104.483 106.966 104.483C107.384 104.483 107.734 104.61 108.016 104.864C108.306 105.131 108.451 105.472 108.451 105.888C108.451 106.197 108.348 106.515 108.14 106.843C108.024 107.023 107.788 107.341 107.428 107.797C107.244 108.033 106.954 108.374 106.558 108.821H108.05C108.409 108.821 108.589 108.956 108.589 109.225H108.59Z" fill="#FFD7B2"/>
<path d="M111.144 121.292H151.933C152.353 121.292 152.694 121.633 152.694 122.054V122.445C152.694 122.865 152.353 123.206 151.933 123.206H111.144C110.723 123.206 110.382 122.865 110.382 122.445V122.054C110.382 121.633 110.723 121.292 111.144 121.292Z" fill="#FFD7B2"/>
<path d="M110.983 124.511H136.146C136.478 124.511 136.747 124.78 136.747 125.112V125.823C136.747 126.155 136.477 126.423 136.146 126.423H110.983C110.651 126.423 110.383 126.154 110.383 125.823V125.112C110.383 124.779 110.652 124.511 110.983 124.511Z" fill="#FFD7B2"/>
<path d="M108.59 124.822C108.59 125.311 108.418 125.705 108.075 126.002C107.75 126.284 107.338 126.425 106.839 126.425C106.453 126.425 106.123 126.334 105.851 126.15C105.417 125.858 105.202 125.507 105.202 125.098C105.202 124.98 105.239 124.879 105.315 124.794C105.391 124.71 105.487 124.667 105.604 124.667C105.722 124.667 105.842 124.75 105.95 124.915C106.124 125.188 106.226 125.338 106.254 125.367C106.409 125.532 106.609 125.614 106.854 125.614C107.183 125.614 107.419 125.491 107.56 125.247C107.626 125.125 107.659 124.969 107.659 124.78C107.659 124.319 107.388 124.063 106.846 124.011C106.54 123.983 106.387 123.854 106.387 123.622C106.387 123.453 106.475 123.333 106.653 123.262C106.985 123.14 107.153 123.076 107.158 123.071C107.336 122.954 107.425 122.749 107.425 122.457C107.425 122.283 107.373 122.145 107.27 122.044C107.166 121.942 107.028 121.892 106.854 121.892C106.638 121.892 106.469 121.943 106.348 122.047C106.245 122.136 106.158 122.29 106.088 122.506C106.031 122.671 105.924 122.754 105.764 122.754C105.652 122.754 105.559 122.704 105.486 122.606C105.413 122.506 105.377 122.399 105.377 122.281C105.377 122.134 105.416 121.988 105.497 121.843C105.629 121.598 105.831 121.407 106.104 121.271C106.354 121.144 106.626 121.08 106.924 121.08C107.323 121.08 107.657 121.202 107.923 121.444C108.189 121.687 108.322 122.006 108.322 122.401C108.322 122.876 108.124 123.253 107.729 123.531C108.303 123.761 108.59 124.192 108.59 124.822Z" fill="#FFD7B2"/>
<path d="M121.772 67.2715H147.181C147.618 67.2715 147.972 67.6255 147.972 68.062V68.7034C147.972 69.14 147.618 69.494 147.181 69.494H121.772C121.335 69.494 120.981 69.14 120.981 68.7034V68.062C120.981 67.6255 121.335 67.2705 121.773 67.2705L121.772 67.2715Z" fill="#EC8425"/>
<path d="M115.146 70.6983H153.807C154.342 70.6983 154.776 71.1328 154.776 71.6678V71.9502C154.776 72.4852 154.342 72.9207 153.806 72.9207H115.145C114.61 72.9207 114.174 72.4862 114.174 71.9502V71.6678C114.174 71.1328 114.609 70.6973 115.145 70.6973L115.146 70.6983Z" fill="#EC8425"/>
<path d="M131.497 96.5626C123.118 96.5626 115.167 95.5115 109.24 94.008C103.251 92.4895 100.025 90.0075 100.025 87.8059C100.025 85.8111 102.654 83.9755 107.628 82.4998C102.861 83.9148 100.313 85.9921 100.313 87.8059C100.313 89.8186 103.617 91.8113 109.378 93.2721C115.285 94.7697 123.14 95.595 131.497 95.595C139.854 95.595 147.71 94.7707 153.616 93.2721C159.377 91.8113 162.681 89.8196 162.681 87.8059C162.681 85.6749 159.202 83.0248 153.601 80.8928C147.233 78.4675 139.383 77.5676 131.497 77.5676C116.692 77.5676 110.597 79.2958 105.309 81.4626C110.62 79.2869 116.639 76.8218 131.497 76.8218C139.415 76.8218 147.299 78.1632 153.697 80.6005C159.416 82.7782 162.969 85.5397 162.969 87.8069C162.969 90.0741 159.67 92.057 153.682 93.5754C147.754 95.0779 139.875 96.5636 131.497 96.5636V96.5626Z" fill="black"/>
<path d="M182.377 116.207C182.377 116.207 182.102 118.89 181.799 119.397C181.496 119.904 180.207 121.526 179.658 121.844C179.109 122.162 179.993 119.708 179.882 119.23C179.769 118.752 179.429 120.102 179.188 120.134C178.946 120.165 179.008 118.951 179 118.509C178.991 118.067 180.177 116.975 180.596 116.035C181.014 115.094 182.378 116.207 182.378 116.207H182.377Z" fill="#FFB27D"/>
<path d="M149.423 91.4643L148.807 90.3008C148.807 90.3008 149.113 88.2275 146.516 86.9169C146.516 86.9169 145.566 86.5301 145.031 87.3047C144.538 88.0177 145.972 87.8894 145.895 89.1086C145.819 90.3287 146.398 91.0446 147.204 91.4414L147.87 92.2131L149.425 91.4633L149.423 91.4643Z" fill="#FFB27D"/>
<path d="M173.966 88.6838C173.966 88.6838 171.736 99.6312 159.463 103.208C155.632 104.325 146.927 91.7098 146.927 91.7098C146.927 91.7098 147.234 90.5473 149.151 90.8138C149.151 90.8138 157.625 96.4252 158.692 97.0348C159.639 97.5757 165.865 90.0819 168.703 88.8727C171.54 87.6636 173.966 88.6828 173.966 88.6828L173.966 88.6838Z" fill="#E58638"/>
<path d="M141.305 86.5279L140.957 88.7944L152.354 90.5447L152.702 88.2782L141.305 86.5279Z" fill="#C65447"/>
<path d="M138.484 87.2569L140.96 88.7962L141.308 86.531L138.484 87.2569Z" fill="#FFB27D"/>
<path d="M153.914 89.2368L153.804 89.9538C153.736 90.3943 153.324 90.6966 152.883 90.629L152.356 90.5485L152.704 88.2822L153.278 88.3707C153.694 88.4344 153.978 88.8232 153.914 89.2378V89.2368Z" fill="#FFB27D"/>
<path d="M188.619 157.504C188.619 157.504 190.142 158.893 189.845 159.881C189.548 160.868 188.174 161.527 187.989 162.733C187.803 163.94 187.06 164.598 186.392 164.598H183.206C183.206 164.598 182.713 163.749 183.902 163.493C185.09 163.238 185.538 161.82 185.464 160.503C185.389 159.187 185.575 157.432 185.575 157.432L188.1 156.847L188.62 157.505L188.619 157.504Z" fill="#233862"/>
<path d="M169.94 161.099C169.94 161.099 170.213 164.261 169.545 164.59L160.99 164.572C160.99 164.572 160.99 163.585 162.364 163.365C163.738 163.146 166.152 162.341 166.56 160.549C166.969 158.757 169.94 161.098 169.94 161.098V161.099Z" fill="#233862"/>
<path d="M162.718 116.425C162.718 116.425 163.169 121.968 163.699 128.632C164.42 137.684 165.287 148.803 165.373 150.909C165.521 154.567 166.115 160.418 166.115 160.418C166.115 160.418 167.526 161.808 170.349 161.222C170.349 161.222 172.865 152.87 173.584 144.033C173.595 143.888 173.606 143.743 173.617 143.597C174.286 134.6 175.326 115.657 175.326 115.657L162.719 116.425H162.718Z" fill="#2B478B"/>
<path d="M162.718 116.425C162.718 116.425 163.169 121.968 163.699 128.632L173.584 144.033C173.595 143.888 173.606 143.743 173.617 143.597C174.286 134.6 175.326 115.657 175.326 115.657L162.719 116.425H162.718Z" fill="#233862"/>
<path d="M164.778 117.083C164.778 117.083 172.911 137.16 178.259 146.595C183.606 156.03 185.278 158.663 185.278 158.663C185.278 158.663 188.341 157.456 188.619 156.633C188.619 156.633 186.574 138.419 182.994 133.978C180.97 131.469 178.593 123.939 178.482 121.306C178.37 118.673 177.758 113.462 177.758 113.462L164.778 117.083Z" fill="#2B478B"/>
<path d="M175.479 86.1433C175.479 86.1433 169.976 88.7983 166.804 87.8129C166.804 87.8129 167.584 86.8274 168.951 86.0946C168.842 85.4582 168.756 84.9053 168.707 84.4369C168.572 83.355 168.572 82.7424 168.572 82.7424L170.695 81.0729L172.709 79.4749C172.55 83.9685 175.479 86.1433 175.479 86.1433Z" fill="#FFB27D"/>
<path d="M178.378 114.491C178.39 114.827 177.67 115.211 177.353 115.356C174.999 116.389 172.802 117.11 170.313 117.35C167.373 117.651 163.895 116.989 162.7 117.014C162.578 117.014 162.468 116.967 162.371 116.882C162.285 116.821 162.225 113.277 162.285 108.819C162.285 108.639 162.285 108.458 162.297 108.279V108.219C162.322 106.477 162.383 104.65 162.468 102.824C162.639 98.8108 162.957 94.9416 163.494 92.8037C164.14 90.2809 165.604 88.6103 166.934 87.3971L168.033 86.4355C169.13 86.6523 170.29 86.5917 171.449 86.0268C172.718 85.4143 174.084 84.753 174.304 84.9211C175.963 86.1342 177.086 88.8619 177.683 92.3462C178.025 94.3529 178.196 96.5993 178.183 98.954C178.183 99.8192 178.158 100.708 178.11 101.585C177.817 106.343 178.11 110.476 178.281 112.868C178.329 113.565 178.366 114.106 178.378 114.49V114.491Z" fill="#EE9849"/>
<path d="M178.281 114.272C159.011 114.233 174.727 93.3605 174.727 93.3605L177.849 92.3462C178.096 94.4901 178.22 96.8906 178.211 99.4064C178.211 100.331 178.193 101.281 178.159 102.218C177.947 107.301 178.159 111.717 178.282 114.272H178.281Z" fill="#E58638"/>
<path d="M172.746 81.1921C172.746 81.1921 171.354 83.7268 168.707 84.4358C168.572 83.3539 168.572 82.7414 168.572 82.7414L170.695 81.0718L172.746 81.1921Z" fill="#ED985F"/>
<path d="M167.604 82.6688C167.604 82.6688 172.854 83.5279 173.346 80.3001C173.839 77.0723 174.848 75.0099 171.518 74.3248C168.187 73.6396 167.345 74.7752 166.915 75.8124C166.484 76.8505 166.251 82.3615 167.603 82.6678L167.604 82.6688Z" fill="#FFB27D"/>
<path d="M175.255 73.9389C175.303 73.8842 175.412 73.8405 175.657 73.8266C175.657 73.8266 175.461 73.7042 175.2 73.6983C175.149 73.3582 174.969 72.7556 174.383 72.6094C174.383 72.6094 174.697 72.7775 174.739 73.1384C174.061 72.4424 172.608 71.9352 168.585 72.2524C163.284 72.6711 165.031 76.0659 165.717 76.4707C166.403 76.8754 168.131 75.7656 169.41 75.8671C170.688 75.9685 170.932 77.8171 171.365 78.0707C171.799 78.3242 171.629 77.8758 172.216 77.6103C172.802 77.3447 172.859 78.3173 172.689 78.9497C172.519 79.5821 173.326 80.4164 173.326 80.4164L174.142 79.5384C174.957 78.6603 175.724 74.9423 175.355 74.1497C175.322 74.0801 175.29 74.0085 175.256 73.9379L175.255 73.9389Z" fill="#2C3A64"/>
<path d="M174.301 84.8943C174.301 84.8943 177.622 86.4674 179.214 88.8858C181.684 92.6367 184.548 106.307 184.601 107.573C184.653 108.838 182.511 117.775 182.511 117.775C182.511 117.775 180.337 117.632 179.776 116.535C179.776 116.535 180.211 107.353 179.935 106.762C179.66 106.171 170.875 94.4445 171.863 91.9416C172.851 89.4387 174.3 84.8933 174.3 84.8933L174.301 84.8943Z" fill="#EE9849"/>
<path d="M148.795 90.2461C148.795 90.2461 148.976 89.5331 148.481 89.2119C147.985 88.8907 147.53 88.0186 147.321 88.1369C146.889 88.3816 147.558 89.1433 147.436 90.0919C147.393 90.424 148.166 91.2951 148.795 90.2461Z" fill="#FFB27D"/>
<path d="M68.0893 157.818C68.0893 157.818 60.2871 137.839 54.8154 141.02C49.3438 144.201 68.0893 157.818 68.0893 157.818Z" fill="white"/>
<path d="M64.2315 157.818C64.2315 157.818 53.9245 148.911 49.2165 150.564C44.5085 152.219 64.2315 157.818 64.2315 157.818Z" fill="white"/>
<path d="M173.364 160.695C173.364 160.695 175.739 152.436 178.525 153.41C181.311 154.385 173.364 160.695 173.364 160.695Z" fill="white"/>
<path d="M175.531 160.245C175.531 160.245 181.595 156.264 182.927 157.494C184.259 158.725 175.531 160.245 175.531 160.245Z" fill="white"/>
<path d="M154.811 142.56H107.515C107.199 142.56 106.94 142.302 106.94 141.985C106.94 141.668 107.198 141.409 107.515 141.409H154.811C155.127 141.409 155.387 141.667 155.387 141.985C155.387 142.301 155.128 142.56 154.811 142.56Z" fill="#FFD7B2"/>
<path d="M154.811 144.864H107.515C107.199 144.864 106.94 144.605 106.94 144.289C106.94 143.972 107.198 143.713 107.515 143.713H154.811C155.127 143.713 155.387 143.972 155.387 144.289C155.387 144.605 155.128 144.864 154.811 144.864Z" fill="#FFD7B2"/>
<path d="M154.811 147.418H107.515C107.199 147.418 106.94 147.16 106.94 146.842C106.94 146.526 107.198 146.267 107.515 146.267H154.811C155.127 146.267 155.387 146.525 155.387 146.842C155.387 147.159 155.128 147.418 154.811 147.418Z" fill="#FFD7B2"/>
<path d="M107.477 148.819H148.602C148.898 148.819 149.139 149.06 149.139 149.356V149.433C149.139 149.729 148.898 149.97 148.602 149.97H107.477C107.18 149.97 106.94 149.729 106.94 149.433V149.356C106.94 149.06 107.18 148.819 107.477 148.819Z" fill="#FFD7B2"/>
<path d="M254.771 164.5H20.2287C20.1024 164.5 20 164.602 20 164.728V164.771C20 164.898 20.1024 165 20.2287 165H254.771C254.898 165 255 164.898 255 164.771V164.728C255 164.602 254.898 164.5 254.771 164.5Z" fill="#1C468A"/>
</g>
<defs>
<clipPath id="clip0_484_1517">
<rect width="235" height="147" fill="white" transform="translate(20 18)"/>
</clipPath>
</defs>
</svg>
